<svg width="161" height="73" viewBox="0 0 161 73" fill="none" xmlns="http://www.w3.org/2000/svg">
<path fill-rule="evenodd" clip-rule="evenodd" d="M82.9574 7.65204C86.8322 7.65204 90.5225 9.31267 93.4748 12.2649C96.058 14.8481 98.0876 17.9849 98.0876 19.2765C98.0876 20.3836 96.796 23.3358 95.3199 25.7345C93.2902 28.6867 90.707 29.7938 86.0942 29.7938C82.5884 29.7938 79.2671 28.8713 78.7136 27.9487C78.16 26.8416 79.8207 26.6571 83.1419 27.3951C87.0167 28.5022 89.4154 28.1332 91.6296 26.1035C93.2902 24.6274 94.5818 21.6752 94.5818 19.6455C94.5818 17.6158 93.4748 15.0326 92.1832 13.741C90.8916 12.6339 87.3858 11.1578 84.618 10.4198C80.7432 9.6817 78.16 10.2352 74.8388 13.003C72.2555 15.2171 70.0414 16.1397 69.4878 15.0326C68.9343 13.9255 70.4104 11.8959 72.8091 10.4198C75.0233 8.94364 79.6361 7.65204 82.9574 7.65204ZM77.791 13.1875C78.7136 13.1875 79.6361 13.9255 79.6361 15.0326C79.6361 16.1397 78.7136 17.2468 77.791 17.8004C76.8684 18.3539 75.9458 17.4313 75.9458 15.9552C75.9458 14.4791 76.8684 13.1875 77.791 13.1875ZM85.7251 16.1397C87.3858 17.0623 87.3858 17.8004 85.7251 19.461C84.4335 20.5681 82.9574 20.9371 82.4039 20.1991C81.8503 19.2765 82.0348 17.8004 82.5884 16.8778C83.1419 15.7707 84.618 15.4017 85.7251 16.1397ZM66.9046 18.7229C67.8272 18.7229 68.5653 22.4132 68.5653 27.0261C68.5653 31.639 69.8569 38.2815 74.1007 48.2453H64.5059C59.155 48.2453 53.8041 47.3227 52.8815 46.2157C51.5899 44.7395 49.5602 45.1086 45.8699 47.6918C41.4416 50.4595 39.9655 50.644 36.0906 48.7989C32.7694 46.9537 31.8468 45.1086 32.2158 41.4183C32.5849 36.9899 33.8765 36.0673 41.4416 34.0377C46.7925 32.5616 50.1138 30.5319 50.1138 28.8713C50.1138 27.3951 48.4531 25.3655 46.4235 24.2584C44.3938 23.1513 41.6261 22.7823 40.519 23.3358C39.2274 23.7048 37.5668 26.1035 36.8287 28.3177C35.7216 31.639 34.9835 32.1925 33.1384 30.3474C31.1087 28.5022 31.2933 27.5796 33.5074 25.181C34.9836 23.7048 38.1203 22.0442 40.519 21.4907C42.7332 20.9371 46.7925 21.6752 49.7447 22.9668C54.1731 24.9964 54.9112 26.4726 55.6492 35.3293C56.5718 44.7395 56.9408 45.4776 61.7382 45.8466C64.5059 46.2157 66.7201 45.8466 66.7201 44.924C66.7201 44.186 65.7975 40.1267 64.875 35.6983C63.7679 31.4545 63.5834 25.919 64.1369 23.3358C64.6904 20.7526 65.982 18.7229 66.9046 18.7229ZM14.3179 22.4132C25.3888 22.4132 26.1268 22.5977 26.1268 26.4726C25.9423 30.1629 25.7578 30.3474 24.2817 27.3951C23.1746 25.7345 20.7759 24.2584 18.7462 24.2584C15.6095 24.2584 15.0559 25.55 15.0559 33.8532C15.0559 39.3886 15.9785 44.7395 17.2701 46.0311C19.2998 47.8763 18.3772 48.2453 13.2108 48.0608C9.70501 48.0608 7.85986 47.6918 9.15147 47.1382C10.6276 46.5847 11.3656 42.5254 11.3656 35.3293C11.3656 25.55 10.9966 24.2584 7.67535 24.2584C5.64568 24.2584 3.61602 25.7345 3.06248 27.3951C2.50893 29.2403 1.77087 30.3474 1.21733 29.7938C0.663783 29.2403 0.663783 27.3951 1.40184 25.55C2.32442 22.9668 4.72311 22.4132 14.3179 22.4132ZM104.546 22.7823C107.313 23.1513 108.42 24.9964 108.789 30.7164C108.974 34.7757 109.712 39.9421 110.081 42.3408C110.635 44.555 112.295 46.4002 113.771 46.4002C115.248 46.4002 117.646 44.555 119.122 42.1563C120.598 39.9421 122.075 35.5138 122.259 32.5616C122.628 29.6093 122.259 25.919 121.521 24.6274C120.66 23.1513 121.644 22.4132 124.473 22.4132C128.348 22.4132 128.533 23.1513 128.164 33.4841C127.61 42.5254 128.164 44.7395 130.931 45.6621C133.514 46.7692 133.699 47.1382 131.3 48.2453C129.824 49.1679 127.426 49.3524 126.318 48.9834C125.027 48.6143 123.92 46.9537 123.92 45.4776C123.92 44.0015 123.182 42.7099 122.075 42.7099C121.152 42.7099 120.229 43.6324 120.229 44.555C120.229 45.4776 118.2 47.5073 115.617 48.6143C111.926 50.644 110.635 50.4595 108.236 48.2453C106.268 46.4002 105.345 42.4023 105.468 36.2518C105.468 31.0854 104.546 25.919 103.254 24.6274C101.224 22.4132 101.593 22.2287 104.546 22.7823ZM71.702 52.6737C72.071 53.2272 70.7794 55.8104 69.1188 58.3936C67.2737 60.9768 64.6904 63.5601 63.5834 63.9291C62.2917 64.4826 61.1847 65.9587 61.1847 67.2504C61.1847 68.542 58.786 69.4645 55.6492 69.4645C52.697 69.4645 50.1138 68.911 50.1138 67.9884C50.1138 67.2504 53.2505 65.5897 57.1253 64.1136C60.8156 62.822 65.613 59.3162 67.4582 56.5485C69.4878 53.9653 71.333 52.1201 71.702 52.6737ZM75.5768 53.7808C76.4994 53.7808 77.0529 57.4711 77.0529 61.8994C76.8684 66.3278 76.3149 69.649 75.5768 69.28C74.6542 68.911 74.1007 69.649 73.9162 70.7561C73.9162 72.6013 73.7317 72.6013 72.9936 70.7561C72.6246 69.4645 70.9639 69.0955 69.1188 69.8336C66.5356 70.7561 66.7201 70.0181 69.8569 66.5123C72.2556 64.1136 74.1007 60.2388 74.1007 57.8401C74.1007 55.6259 74.8388 53.7808 75.5768 53.7808ZM107.313 55.6259C110.081 55.6259 111.188 57.2865 111.926 61.7149C112.849 66.8813 113.402 67.6194 118.015 66.6968C120.967 66.3278 121.706 65.7742 119.86 65.4052C118.015 65.0362 116.539 63.9291 116.539 63.0065C116.539 62.0839 117.831 61.1614 119.307 61.1614C120.783 61.1614 122.075 60.2388 122.075 59.3162C122.075 58.2091 120.229 58.0246 118.015 58.5782C114.878 59.5007 114.325 59.1317 115.617 57.6556C116.724 56.364 119.491 55.6259 122.075 55.9949C125.396 56.364 126.872 57.8401 127.241 61.1614C127.61 63.7446 126.872 66.6968 125.396 67.9884C124.104 69.0955 119.676 70.3871 115.801 70.7561C109.343 71.3097 108.236 70.7561 106.391 62.6375L102.331 67.4349C99.9328 70.2026 96.058 72.2323 93.4748 72.2323C89.7845 72.2323 88.8619 71.3097 88.8619 67.6194C88.8619 64.2981 89.7845 63.0065 92.5522 63.0065C95.0124 63.0065 95.935 63.9291 95.3199 65.7742C94.7664 67.2504 95.3199 68.1729 96.2425 67.6194C97.3496 67.0658 99.3792 64.1136 100.855 61.1614C102.516 57.8401 105.099 55.6259 107.313 55.6259Z" fill="#9CACCF"/>
<path d="M63.2143 8.02104C62.1072 5.80686 61.1847 2.48559 61.3692 0.824955V0.640441C61.3692 -1.02019 63.0298 1.19399 65.0595 5.80686C67.0891 10.4197 70.5949 15.9552 72.8091 18.1694C75.0233 20.568 76.1304 22.9667 75.3923 23.7048C74.6542 24.6274 69.6723 20.9371 64.3214 15.5861C58.9705 10.2352 55.2802 5.25331 56.0182 4.51525C56.7563 3.77719 59.155 5.0688 61.1847 7.65201C64.6904 11.8958 64.875 11.8958 63.2143 8.02104Z" fill="#D37F29"/>
<path d="M76.4994 45.6621C75.9458 43.6324 75.9458 40.4957 76.6839 38.835V38.6505C77.2375 36.8054 79.6361 35.5138 82.4039 35.5138C84.9871 35.5138 89.2309 36.6208 91.9986 38.097C94.9509 39.3886 98.2721 41.9718 99.3792 43.6324C100.671 45.293 101.224 48.0608 100.486 49.7214C99.9328 51.5666 99.1947 54.3343 99.1947 55.8104C99.0102 57.8401 96.9805 58.5781 91.8141 58.5781C86.4632 58.5781 83.88 57.471 81.1123 53.9652C79.0826 51.382 77.0529 47.6917 76.4994 45.6621Z" fill="#D37F29"/>
<path d="M140.157 48.9833C139.973 47.1382 140.526 44.924 141.449 44.3705C142.371 43.6324 145.323 43.0789 148.276 43.0789C152.15 43.0789 154.365 44.555 157.132 48.9833C159.162 52.3046 160.823 57.8401 160.823 60.9768C160.823 64.2981 159.531 68.3574 157.87 69.8335C156.394 71.3096 153.996 72.6012 152.889 72.6012C151.597 72.6012 149.567 71.6787 148.276 70.3871C146.984 69.0955 146.062 66.1432 146.062 63.7445C146.062 61.5304 147.353 58.3936 148.829 56.9175C150.305 55.4414 152.15 54.5188 152.889 55.0723C153.811 55.4414 153.258 57.102 151.966 58.7626C150.859 60.2388 150.121 62.822 150.674 64.2981C151.228 65.7742 152.52 67.0658 153.442 67.0658C154.365 67.0658 155.841 65.2207 156.394 62.822C156.948 60.6078 156.21 56.1794 154.734 53.2272C153.258 50.0904 150.49 47.1382 148.645 46.2156C146.615 45.4776 144.401 45.6621 143.294 46.7692C142.187 47.9993 142.679 48.6143 144.77 48.6143C146.431 48.6143 147.907 49.1679 147.907 49.9059C147.907 50.8285 147.353 51.9356 146.615 52.6736C145.692 53.4117 144.032 53.5962 142.74 53.0427C141.633 52.6736 140.342 50.8285 140.157 48.9833Z" fill="#D37F29"/>
<path d="M136.836 61.5304C137.758 61.5304 139.234 59.8697 139.788 57.8401C140.342 55.8104 141.818 54.5188 142.74 55.0723C143.847 55.8104 144.585 59.5007 144.401 63.56C144.216 67.4348 143.294 71.1251 142.371 71.6787C141.449 72.2322 140.157 70.9406 139.603 68.9109C139.05 66.8813 137.758 65.2207 136.836 65.2207C135.913 65.2207 134.622 67.0658 134.068 69.28C133.514 72.2322 132.592 72.9703 131.116 71.6787C130.009 70.5716 129.64 67.0658 130.193 62.822C130.747 59.1317 132.038 55.9949 133.145 55.9949C134.068 55.9949 134.991 57.2865 134.991 58.7626C134.991 60.2388 135.913 61.5304 136.836 61.5304Z" fill="#D37F29"/>
<path d="M35.9061 39.9424C36.6442 38.4663 39.7809 36.4366 43.1022 35.6985C46.239 34.776 49.0067 34.4069 49.3757 34.5914C49.5602 34.9605 49.3757 37.3592 49.0067 39.9424C48.4531 43.2636 46.7925 44.9243 43.2867 45.6623C40.3345 46.2159 37.3823 45.8469 36.2752 44.7398C35.1681 43.6327 34.9836 41.603 35.9061 39.9424Z" fill="#FCFDFD"/>
</svg>
