<svg width="201" height="71" viewBox="0 0 201 71" fill="none" xmlns="http://www.w3.org/2000/svg">
<path fill-rule="evenodd" clip-rule="evenodd" d="M68.232 0.975485C67.0555 1.40892 65.7552 2.27579 65.3218 2.95691C64.8883 3.5761 64.0834 5.24793 63.4642 6.61016C62.845 8.15815 62.4115 10.8826 62.3496 13.7309C62.2877 16.2696 62.6592 19.6133 63.0927 21.1612C63.5261 22.7092 64.5787 24.6907 65.3837 25.6814C66.2505 26.6102 67.6128 27.6628 68.4796 27.9724C69.3465 28.282 71.2041 28.5916 72.6902 28.5916C74.362 28.5916 76.0338 28.1581 77.458 27.2294C78.6344 26.4244 80.2444 24.5668 81.0493 23.0188C82.1639 20.7278 82.4735 19.2417 82.4115 14.9693C82.4115 12.0591 82.1019 8.71542 81.7304 7.53895C81.297 6.36248 80.4301 4.56682 79.6871 3.5761C79.006 2.58539 77.458 1.347 76.4053 0.913566C75.2908 0.480129 73.4332 0.108612 72.3806 0.108612C71.266 0.170532 69.4084 0.542049 68.232 0.975485ZM134.734 0.542049C132.69 0.665888 130.337 1.09932 129.532 1.53276C128.727 1.90428 127.675 3.01883 127.241 4.00954C126.746 4.93833 126.374 6.734 126.374 8.03431C126.374 9.2727 126.932 11.2541 127.613 12.3687C128.294 13.4213 129.099 14.3501 129.408 14.3501C129.718 14.3501 129.223 15.0931 128.294 16.0838C126.994 17.3222 126.498 18.6225 126.127 21.1612C125.879 23.0188 125.569 25.4956 125.446 26.6102L125.136 28.5916L131.638 28.282C132.319 23.5142 132.69 21.4708 132.876 20.6659C133.124 19.5513 133.619 19.3037 135.353 19.3037C136.322 19.3037 136.858 19.3037 137.159 19.5694C137.532 19.8979 137.548 20.6327 137.582 22.2758C137.644 23.8857 137.644 25.929 137.582 26.9198C137.52 28.5297 137.582 28.5916 140.925 28.5916H144.331L144.021 0.41821C139.687 0.35629 136.777 0.41821 134.734 0.542049ZM151.142 5.06217V0.108612H159.316C164.145 0.108612 169.347 0.480129 171.885 1.0374C174.3 1.53276 178.325 2.95691 180.864 4.1953C184.145 5.86713 186.808 7.78663 189.904 10.8826C193.124 14.1024 194.857 16.5173 196.529 19.9229C197.706 22.4616 199.006 26.0529 199.377 27.8485C199.749 29.5823 200.059 33.0498 200.059 35.4027C200.059 37.7557 199.749 41.2232 199.377 43.0188C199.006 44.7526 197.768 48.2201 196.653 50.573C195.477 53.1117 193.062 56.5792 190.895 58.9321C188.851 61.1612 185.446 64.0095 183.278 65.3099C181.111 66.6102 177.396 68.2201 174.981 68.9631C171.328 70.1396 169.161 70.3253 150.833 70.3873L150.523 18.6845H158.387C163.65 18.6845 167.427 18.9941 169.594 19.6133C171.699 20.2325 173.805 21.4089 175.662 23.2046C177.21 24.6287 179.006 26.9198 179.625 28.282C180.244 29.6442 180.925 31.8733 181.173 33.2355C181.421 34.7835 181.235 36.9507 180.616 39.1179C180.121 40.9755 178.882 43.638 177.891 45.0003C176.901 46.3625 174.734 48.2201 173.062 49.1489C171.39 50.0777 168.851 51.0064 164.764 51.8114V47.0436C164.764 42.6473 164.888 42.2139 166.003 42.2139C166.684 42.2139 168.232 41.2851 169.408 40.2325C170.895 38.8702 171.699 37.4461 171.947 36.0219C172.133 34.4739 171.885 33.2975 170.956 31.8733C170.275 30.7588 168.665 29.3965 167.427 28.8393C166.127 28.3439 163.96 27.9724 160.121 28.282L159.811 60.7897H164.021C166.436 60.7897 169.842 60.2944 172.195 59.6133C174.424 58.9321 177.582 57.4461 179.254 56.3315C180.925 55.217 183.278 53.1736 184.393 51.8114C185.569 50.4492 187.179 47.9724 188.046 46.2386C188.851 44.5668 189.842 41.4708 190.275 39.4275C190.771 36.6411 190.771 34.6597 190.275 31.378C189.842 29.025 188.789 25.4956 187.86 23.638C186.932 21.7804 184.888 18.9321 183.34 17.3842C181.792 15.8362 178.758 13.6071 172.504 10.3253L151.142 10.0157V5.06217ZM4.2072 8.9631C4.02144 13.4213 3.52609 18.251 3.09265 19.5513C2.59729 20.9136 1.73042 22.09 1.11123 22.2139C0.244352 22.3996 0.0585938 23.1427 0.0585938 27.3532V32.3068H7.17934L6.25054 28.5916H14.9193C14.9193 32.2448 14.9812 32.3068 18.0152 32.3068H21.1112C21.1112 24.443 20.8635 22.3996 20.492 22.3996C20.1205 22.3996 19.8728 18.3749 19.8728 11.5637V0.727807H4.5168L4.2072 8.9631ZM22.9688 28.5916V14.7216V0.789727H39.0679V6.98168H29.78V11.316H38.4487V17.508H29.78V22.4616H39.0679V28.6535L22.9688 28.5916ZM44.6406 9.76805C44.6406 14.6597 44.393 19.4275 44.0214 20.2325C43.6499 21.2232 42.9069 21.8424 42.1639 21.8424C41.0493 21.8424 40.9255 22.152 41.1112 25.0622L41.2351 28.3439C45.6313 28.5916 47.1793 28.282 47.6747 27.8485C48.17 27.4151 49.0369 25.991 49.6561 24.6287C50.5849 22.6473 50.8326 20.542 50.8326 14.5359V6.98168H54.5478V28.6535H60.7397V0.789727H44.6406V9.76805ZM83.6499 28.6535V14.7216V0.789727H97.8914L99.4394 2.64731C100.616 4.00954 100.987 5.18601 100.987 7.41511C101.049 9.5823 100.678 10.8207 99.6252 12.1829C98.6344 13.4213 98.4487 14.0405 99.006 14.1643C99.3775 14.2882 100.182 15.217 100.678 16.2696C101.173 17.2603 101.668 19.1179 101.73 20.4182C101.792 21.7185 101.483 23.6999 100.987 24.8145C100.492 25.991 99.3156 27.2913 98.3868 27.7866C97.2722 28.3439 94.4239 28.6535 83.6499 28.6535ZM108.108 1.53276C107.984 1.9662 106.436 7.97239 104.703 14.8455C103.031 21.7185 101.607 27.6628 101.607 28.0343C101.607 28.3439 103.031 28.6535 104.703 28.6535C106.767 28.6122 107.799 28.3439 107.799 27.8485C107.799 27.4151 108.108 26.0529 108.418 24.7526L109.037 22.4616C115.848 22.4616 117.086 22.6473 117.086 23.2046C117.086 23.638 117.396 25.0003 117.706 26.3006C118.325 28.5916 118.387 28.6535 121.421 28.6535C123.155 28.6535 124.517 28.5297 124.517 28.4677C124.517 28.4191 123.561 24.6612 122.25 19.5079L122.248 19.5004L122.247 19.4982C121.891 18.0967 121.508 16.5922 121.111 15.0312C119.254 7.66279 117.706 1.47084 117.706 1.22316C117.706 0.975485 115.6 0.789727 113.062 0.789727C109.904 0.789727 108.294 0.975485 108.108 1.53276ZM57.2103 36.5792C58.2629 35.8362 59.8728 34.9693 60.7397 34.7216C61.6066 34.4739 63.7118 34.412 65.3837 34.5978C67.1174 34.7835 68.975 35.1551 69.5942 35.4646C70.4611 35.96 70.6468 36.8888 70.5849 44.443L68.232 43.8238C66.4363 43.3284 65.3837 43.3903 64.2072 43.9476C63.3403 44.3811 62.04 45.6194 61.3589 46.734C60.5333 48.0962 60.1205 49.8506 60.1205 51.9972C60.1205 53.7928 60.4301 55.8981 60.8016 56.6411C61.1731 57.3842 62.1019 58.6845 62.845 59.4275C63.7118 60.3563 64.8264 60.8516 66.1886 60.8516C67.2413 60.8516 68.7273 60.542 69.4084 60.2324C70.5849 59.6133 70.6468 59.799 70.6468 64.2572C70.6468 68.5916 70.5849 68.9012 69.0988 69.5204C68.232 69.83 66.0029 70.1396 64.1453 70.1396C62.2877 70.1396 60.1205 69.7681 59.3775 69.3965C58.5725 69.025 57.0245 67.8485 55.91 66.7959C54.7954 65.7433 53.3713 63.4523 52.7521 61.7804C52.071 60.0467 51.3899 57.1365 51.1422 55.2789C50.8945 53.2975 51.0183 50.1396 51.4518 47.8485C51.8852 45.6194 52.8759 42.4616 53.6809 40.8516C54.4858 39.2417 56.0957 37.3222 57.2103 36.5792ZM80.8635 35.0931C79.5013 35.6504 77.6437 36.8269 76.653 37.7557C75.7242 38.6845 74.362 40.8516 73.6809 42.5854C72.9379 44.2572 72.1948 47.6009 72.0091 50.0157C71.8233 52.6164 72.0091 55.8981 72.5663 58.3749C73.0617 60.7278 74.1762 63.5142 75.2908 65.1241C76.2815 66.6102 78.1391 68.3439 79.3156 68.9631C80.6778 69.7061 82.7831 70.1396 85.0741 70.1396C86.9936 70.1396 89.1608 69.83 89.8419 69.5204C90.8945 68.9631 91.0803 68.282 91.0803 64.1953C91.0803 59.799 91.0183 59.6133 89.8419 60.1705C89.1608 60.542 87.9224 60.7897 87.0555 60.7897C86.1886 60.7897 84.9502 60.542 84.2691 60.1705C83.588 59.8609 82.4735 58.3749 81.7923 56.9507C81.1112 55.5266 80.5539 53.6071 80.5539 52.7402C80.5539 51.9352 80.8635 50.1396 81.297 48.7154C81.6685 47.3532 82.5973 45.6194 83.4023 44.8764C84.2691 44.0715 85.5694 43.4523 86.7459 43.4523C87.7366 43.4523 89.1608 43.7619 89.8419 44.0715C91.0183 44.6907 91.0803 44.5049 91.0803 40.0467C91.0803 36.8888 90.8326 35.3408 90.3372 35.1551C89.9038 35.0312 88.1703 34.7836 86.4367 34.5359L86.4365 34.5359L86.4363 34.5359C84.3723 34.2882 82.5147 34.4739 80.8635 35.0931ZM0.0585938 70.1396L0.120513 52.4306L0.182433 34.7216L17.458 35.0931L19.8109 37.5699C21.7304 39.6133 22.2877 40.7278 22.6592 43.4523C22.9069 45.3718 22.9688 48.1581 22.7211 49.6442C22.5354 51.1922 21.7304 53.4213 20.9255 54.5978C20.1824 55.8362 18.5725 57.2603 17.3961 57.8795C16.0957 58.5606 13.8047 58.9321 8.10813 58.9321V70.0777L0.0585938 70.1396ZM32.5663 35.4646C31.5137 35.7742 29.9038 36.765 28.9131 37.7557C27.9224 38.6845 26.4982 40.7278 25.8171 42.2758C24.7026 44.6287 24.5168 46.2386 24.5168 52.8021C24.5168 60.1705 24.5787 60.7278 26.3744 64.2572C27.7366 67.0436 28.8512 68.282 30.7087 69.3346C32.3806 70.2634 34.2382 70.7588 36.5911 70.7588C39.006 70.7588 40.8016 70.3253 42.7831 69.3346C44.9502 68.1581 45.9409 67.1055 47.427 64.2572C49.0369 61.0374 49.2846 59.799 49.5323 54.3501C49.6561 49.8919 49.4704 47.1674 48.7273 44.5668C48.0462 42.2139 46.9317 40.1705 45.3837 38.4987C44.0834 37.0746 42.1639 35.7742 40.9255 35.4027C39.749 35.0931 37.7676 34.8455 36.5911 34.9074C35.4146 34.9074 33.557 35.1551 32.5663 35.4646ZM94.7335 69.83L94.7954 52.3068V34.8455H102.845L102.969 54.3501L109.347 34.7835L118.944 34.8455V70.1396H110.895L110.771 48.1581L103.155 70.7588H101.297C100.244 70.7588 98.3868 70.5111 94.7335 69.83ZM127.613 35.217C127.117 35.4027 126.003 36.1458 125.26 36.8888C124.455 37.6318 123.402 38.9941 122.907 39.9229C122.412 40.8516 122.04 42.7092 122.04 44.0715C122.04 45.4337 122.412 47.477 122.845 48.5916C123.278 49.7061 124.393 51.1922 125.322 51.9972C126.87 53.2975 126.932 53.4213 125.755 53.669C125.074 53.8547 124.021 54.7835 123.464 55.7123C122.845 56.6411 122.04 59.7371 121.607 62.6473C121.173 65.5575 120.802 68.4058 120.802 69.025C120.802 69.9538 121.421 70.0777 124.826 70.0777H128.851C129.594 61.8424 130.028 60.1705 130.833 59.4275C131.452 58.8083 132.876 58.3129 134.114 58.3129H136.282V70.0777H144.331V34.7835C132.071 34.8455 128.108 35.0312 127.613 35.217ZM91.5756 11.2541C90.6468 11.2541 90.4611 10.7588 90.4611 8.46775C90.4611 6.91976 90.7087 5.68137 91.0803 5.68137C91.4518 5.68137 92.2567 5.92905 92.9378 6.30056C93.6189 6.67208 94.1762 7.53895 94.1762 8.28199C94.1762 9.08694 93.8666 10.0777 93.4332 10.4492C92.9998 10.8826 92.1948 11.2541 91.5756 11.2541ZM69.2227 8.52967C69.4703 7.84855 70.2753 7.10552 70.9564 6.85784C71.6375 6.61016 72.3806 6.36248 72.6282 6.36248C72.9378 6.30056 73.8047 6.98168 74.6716 7.84855C76.0957 9.2727 76.2196 9.8919 76.2196 14.6597C76.2196 19.1179 76.0338 20.1086 74.9812 21.1612C74.3001 21.8424 73.3094 22.3996 72.814 22.3996C72.3186 22.3996 71.3279 22.09 70.6468 21.7804C69.9038 21.4089 69.0988 20.0467 68.7273 18.5606C68.3558 17.0746 68.17 14.5359 68.4177 12.8021C68.6035 11.1303 68.975 9.14886 69.2227 8.52967ZM9.9657 10.1396C9.9657 11.9352 9.71802 14.9693 9.3465 16.8269C8.97499 18.6845 8.54155 20.7278 8.41771 21.2851C8.17003 22.2139 8.54155 22.3996 10.5849 22.3996H13.0617V6.91976C10.0276 6.91976 9.9657 7.10552 9.9657 10.1396ZM132.442 9.52038C132.381 8.90118 132.69 8.09623 133.186 7.66279C133.681 7.22936 134.919 6.91976 135.972 6.91976C137.829 6.91976 137.829 6.98168 137.829 10.0157V10.016C137.829 11.7924 137.829 12.5494 137.455 12.8721C137.177 13.1117 136.692 13.1117 135.848 13.1117C134.424 13.1117 133.619 12.7402 133.186 11.8733C132.814 11.1922 132.504 10.1396 132.442 9.52038ZM112.257 9.70614L112.257 9.7064C111.885 11.0686 111.328 13.1118 111.08 14.2263C110.709 15.8362 110.771 16.2077 111.514 16.2077C112.009 16.2077 113.062 16.0838 113.805 15.8981C114.981 15.6504 115.167 15.3408 114.795 13.8547C114.61 12.926 114.114 11.0684 113.681 9.70614L112.938 7.22936L112.257 9.70614ZM92.1329 21.5947C90.5849 21.7804 90.4611 21.5947 90.523 19.2417C90.5849 16.9507 90.7087 16.765 92.1948 16.9507C93.0617 17.0746 94.0524 17.6318 94.4239 18.1891C94.9193 18.9941 94.9193 19.6133 94.4239 20.3563C94.0524 20.9755 92.9998 21.5328 92.1329 21.5947ZM8.10811 46.8578V50.8826C11.6375 50.8826 12.9378 50.3873 13.6809 49.6442C14.362 48.9631 14.9193 47.7866 14.9193 46.9817C14.9193 46.2386 14.5477 45.0003 13.9905 44.1953C13.3094 43.1427 12.5044 42.8331 10.5849 42.8331H8.10811V46.8578ZM32.2567 47.477C32.5663 46.1148 33.4332 44.5049 34.1762 43.8857C34.9193 43.3284 36.1576 42.8331 37.0245 42.8331C37.8295 42.8331 39.1917 43.5142 39.9967 44.3811C41.4827 45.8671 41.5446 46.3006 41.6066 52.5544C41.6066 58.3129 41.4208 59.4894 40.3682 60.9136C39.5013 62.0694 38.5106 62.6473 37.396 62.6473C36.4672 62.6473 35.0431 62.2139 34.3001 61.7185C33.4951 61.2232 32.6282 59.7371 32.2567 58.4368C31.9471 57.1984 31.6375 54.7216 31.6994 53.0498C31.6994 51.316 31.9471 48.8393 32.2567 47.477ZM131.576 43.3284C131.204 43.5761 130.585 44.3811 130.213 45.1241C129.78 45.929 129.656 47.0436 129.904 47.6009C130.09 48.2201 130.771 49.2108 131.266 49.83C131.885 50.4492 133.124 50.9445 134.3 50.8826H136.281V42.8331C133.186 42.8331 131.947 43.0807 131.576 43.3284Z" fill="#074784"/>
</svg>
