<svg width="179" height="109" viewBox="0 0 179 109" fill="none" xmlns="http://www.w3.org/2000/svg">
<path fill-rule="evenodd" clip-rule="evenodd" d="M26.66 0.467804C26.9142 0.467804 27.5072 0.80606 27.959 1.22888C28.4109 1.67989 29.0321 2.52553 29.3145 3.14566C29.5687 3.7658 29.8228 4.61144 29.8228 5.06244C29.8228 5.48526 29.6534 6.24634 29.4557 6.75372C29.2298 7.23292 28.185 8.47319 27.1119 9.45977C26.0388 10.4463 24.2597 11.8557 23.1866 12.5886C22.1135 13.3215 20.6733 14.1953 20.0238 14.5336C19.3461 14.8437 18.8095 15.2101 18.8095 15.3511C18.8377 15.4638 19.6849 16.1685 22.6218 18.3108L23.8926 17.6625C24.5986 17.3242 26.18 16.4222 27.4225 15.6893C28.665 14.9282 30.1617 13.8853 30.7547 13.3215C31.3195 12.7578 31.9408 11.9967 32.082 11.6021C32.2232 11.2074 32.3644 10.5873 32.3644 10.1927C32.3644 9.79803 32.5338 9.48796 32.7315 9.48796C32.9009 9.48796 33.5787 9.82621 34.1999 10.2772C34.8212 10.7 35.6119 11.4329 35.9508 11.8839C36.2614 12.3631 36.7132 13.2933 36.8827 13.998C37.1651 15.041 37.1368 15.5484 36.7697 16.9014C36.3744 18.3108 36.0073 18.8464 31.376 23.5538L34.0023 24.9632C35.4142 25.7524 36.685 26.4007 36.8262 26.4007C36.9391 26.4289 37.6169 25.7806 38.3794 24.9913C39.1136 24.2303 39.9043 23.1309 40.1302 22.5954C40.3561 22.0598 40.5538 21.2987 40.5538 20.9041C40.5538 20.5095 40.7232 20.1994 40.9209 20.1994C41.0903 20.1712 41.881 20.735 42.6152 21.3833C43.3777 22.0598 44.3096 23.2155 44.6767 24.0048C45.0721 24.7658 45.4392 26.1752 45.5521 27.1054C45.6369 28.0356 45.5521 29.3041 45.1003 31.0518L47.2465 33.0249C48.4043 34.0961 49.9292 35.8155 50.5787 36.8303C51.2565 37.8451 52.1319 39.6773 52.5555 40.9176C52.9791 42.2142 53.3744 44.131 53.4592 45.4276C53.5439 46.6679 53.4874 48.9793 53.2897 50.5578C53.092 52.531 52.8661 53.4612 52.6402 53.4612C52.4425 53.4612 51.8777 52.5874 51.3694 51.5444C50.8894 50.5015 49.8728 48.9793 49.1103 48.1337C48.3761 47.288 46.9923 46.076 46.0604 45.3994C45.1285 44.7511 42.6152 43.3135 36.6003 40.2129L34.0023 42.1296C32.5621 43.2008 31.0936 44.2437 30.7547 44.4692C30.1617 44.8357 30.3029 44.9766 34.2846 47.3162C36.572 48.6974 39.9325 50.6424 41.7681 51.6854C43.5754 52.7565 45.7498 54.1659 46.5688 54.8424C47.3595 55.5471 48.5737 56.7592 49.2515 57.5203C49.901 58.3095 50.8894 59.7753 51.3977 60.7901C51.9342 61.8048 52.5837 63.4397 52.8379 64.4545C53.092 65.4693 53.3744 67.5552 53.4592 69.1055C53.5439 70.6559 53.4591 73.5874 53.2615 75.5888C53.0073 78.2666 52.8096 79.2532 52.5555 79.2532C52.3578 79.2532 52.0189 78.7458 51.8495 78.1257C51.6518 77.5055 51.1435 76.2653 50.6917 75.3633C50.2399 74.4894 49.0821 72.9109 48.1219 71.8961C47.1335 70.8532 45.7781 69.6129 45.0721 69.1055C44.3661 68.5981 40.695 66.5122 36.8827 64.5109C33.0704 62.5095 28.8345 60.1981 27.4225 59.3807C26.0105 58.5632 23.5537 56.9847 21.9158 55.9136C20.2779 54.8142 18.6401 53.6867 17.5387 52.8411L14.9972 54.5605C13.5852 55.4907 12.145 56.5337 11.0437 57.4075L12.0321 58.2813C12.5686 58.7605 13.9241 59.8317 14.9972 60.6491C16.0703 61.4666 18.1882 62.876 19.6567 63.778C21.1251 64.6518 25.9541 67.2733 30.3876 69.6129C34.8212 71.9243 39.7066 74.6586 41.2598 75.6733C42.9259 76.7727 45.0721 78.5485 46.484 79.9579C47.8113 81.3109 49.3927 83.2559 50.0422 84.3552C50.6635 85.4264 51.4542 86.9485 51.7648 87.7096C52.1037 88.4989 52.612 90.1901 52.8944 91.515C53.2897 93.4318 53.4027 95.0385 53.3744 99.6895C53.3462 102.875 53.205 106.032 53.092 106.708C52.9508 107.385 52.7249 108.005 52.5555 108.061C52.3861 108.118 51.9342 107.3 51.5106 106.257C51.087 105.214 50.1269 103.326 49.3927 102.085C48.6585 100.845 47.3312 98.9566 46.484 97.8855C45.6369 96.8143 44.1684 95.2358 43.2365 94.3902C42.3046 93.5727 40.3279 92.0787 38.8594 91.0922C37.391 90.1056 32.1102 87.2304 27.1401 84.6653C22.17 82.1284 16.7198 79.1968 14.9972 78.1257C13.3028 77.0827 10.9307 75.5042 9.77292 74.6586C8.61511 73.7847 6.63836 72.0653 5.39583 70.7968C4.1533 69.5565 2.65661 67.6961 2.06359 66.7096C1.47056 65.6948 0.792816 64.1726 0.538662 63.327C0.284508 62.4814 0.0585938 60.8183 0.0585938 59.6626C0.0585938 58.3659 0.256269 56.9565 0.566902 55.9981C0.849295 55.1525 1.55528 53.574 2.09182 52.4746C2.76957 51.178 3.84266 49.7686 5.25463 48.3592C6.41244 47.2035 7.79617 45.8786 9.20813 44.7229L8.53039 43.8209C8.16328 43.3135 7.54201 42.2706 7.14666 41.4813C6.75131 40.7202 6.21477 39.3108 5.96061 38.3806C5.5935 37.1686 5.50878 36.1538 5.62174 34.7162C5.7347 33.2222 6.01709 32.2638 6.75131 30.7699C7.4573 29.3605 8.36095 28.2048 9.8294 26.7954C10.959 25.7242 12.1733 24.5967 13.1616 23.8638L12.0321 22.3981C11.439 21.5806 10.7613 20.3403 10.5636 19.6356C10.3659 18.9309 10.1965 17.6061 10.2247 16.6759C10.2247 15.5202 10.4507 14.5054 10.9307 13.4343C11.3261 12.5886 12.145 11.3766 12.7663 10.7846C13.3593 10.1645 14.6866 9.12151 15.7032 8.47319C16.7198 7.85305 19.0637 6.55641 20.9275 5.59802C23.0454 4.55506 24.655 3.51211 25.2481 2.89197C25.7564 2.32821 26.1517 1.56714 26.1517 1.1725C26.1517 0.693308 26.3212 0.467804 26.66 0.467804V0.467804ZM18.1882 31.9256C16.748 32.743 15.562 33.5323 15.562 33.7014C15.562 33.8424 16.4656 34.7444 17.5387 35.6746C18.6118 36.633 19.6002 37.3941 19.7414 37.3941C19.8544 37.3941 21.2381 36.6048 22.8477 35.6464L25.7846 33.8706L20.7863 30.4316L18.1882 31.9256ZM161.813 42.8907L163.451 46.978C164.355 49.233 165.202 51.3189 165.343 51.629C165.513 52.08 165.965 51.2344 169.269 42.8907L173.646 42.8061C176.018 42.778 178.023 42.8343 178.051 42.9471C178.079 43.088 175.99 47.6827 173.42 53.1793C170.822 58.676 168.252 63.8626 167.687 64.7082C167.122 65.5257 166.162 66.5686 165.541 67.0196C164.892 67.4706 163.734 67.9498 162.858 68.1189C161.757 68.3445 160.684 68.3163 159.328 68.1189C158.227 67.9498 157.126 67.7525 156.843 67.6961C156.42 67.5834 156.363 67.1888 156.363 61.7767L158.396 61.8894C160.119 61.974 160.514 61.8894 160.966 61.4666C161.446 60.9592 161.305 60.6491 157.069 52.1364C154.669 47.288 152.692 43.1726 152.692 43.0317C152.692 42.8343 154.274 42.778 161.813 42.8907ZM67.9742 42.7498H88.8713V61.6357H90.848V70.374H82.941V67.5552H71.9277V70.374H63.7383V61.6357L65.8562 61.6639L66.6187 59.3807C67.0423 58.1404 67.5223 56.0263 67.6635 54.6733C67.833 53.2921 67.9459 50.0786 67.9459 47.4854L67.9742 42.7498ZM75.8247 52.9538C75.7117 56.1954 75.5423 57.6612 75.1187 58.9579C74.8081 59.8881 74.4692 60.8465 74.3845 61.1283C74.2151 61.5793 74.4692 61.6357 77.2931 61.6357H80.3995V48.6692H75.9659L75.8247 52.9538ZM95.4228 42.6652L103.386 42.778C110.051 42.8907 111.604 42.9753 112.903 43.3981C113.92 43.7364 114.851 44.3283 115.614 45.0894C116.376 45.8223 116.913 46.6961 117.139 47.5135C117.393 48.4437 117.393 49.1484 117.167 50.1914C116.941 51.2062 116.489 52.0236 115.586 53.0948C114.767 54.025 114.456 54.5605 114.738 54.5605C114.964 54.5605 115.67 55.0397 116.292 55.6317C117.167 56.3928 117.562 57.0693 117.901 58.225C118.155 59.2397 118.268 60.2827 118.155 61.1847C118.042 62.0303 117.619 63.1297 117.139 63.9471C116.631 64.7082 115.783 65.5538 115.077 65.9767C114.428 66.3431 113.129 66.8505 112.197 67.1042C110.87 67.4424 108.865 67.527 95.3945 67.527L95.4228 42.6652ZM103.838 52.5874C107.848 52.4464 108.413 52.3337 108.893 51.8827C109.232 51.5726 109.486 50.9807 109.486 50.6142C109.486 50.2196 109.373 49.7404 109.26 49.5431C109.147 49.3458 108.498 49.0639 107.792 48.9229C107.086 48.782 105.928 48.6411 105.165 48.6411H103.838V52.5874ZM103.838 61.6075C108.695 61.4666 109.232 61.3538 109.74 60.9028C110.107 60.5646 110.333 60.0008 110.333 59.4934C110.333 59.0142 110.22 58.5069 110.107 58.3377C109.994 58.1686 109.627 57.8585 109.26 57.6894C108.921 57.5203 107.566 57.3793 106.238 57.3793H103.838V61.6075ZM132.642 42.7216H140.832V45.3994L143.288 45.5686C144.672 45.6813 146.451 46.0196 147.327 46.3296C148.174 46.6397 149.501 47.4572 150.235 48.1337C150.998 48.8102 151.901 49.9659 152.269 50.7552C152.636 51.5162 153.031 52.8411 153.116 53.7149C153.229 54.5887 153.172 55.9699 152.975 56.9565C152.805 57.8867 152.353 59.1552 151.986 59.7753C151.619 60.3954 150.97 61.2411 150.518 61.6639C150.094 62.0585 148.965 62.7632 148.033 63.1861C146.705 63.778 145.745 63.9753 140.832 64.2854V67.527H132.642V64.2854L129.903 64.1163C127.559 64.0035 126.825 63.8344 125.215 63.0733C124.057 62.5095 123.013 61.7485 122.476 61.1001C121.996 60.5364 121.346 59.3525 121.036 58.5069C120.556 57.2384 120.471 56.4773 120.556 54.4196C120.641 52.2491 120.782 51.6572 121.488 50.3605C121.968 49.5149 122.843 48.4156 123.464 47.9082C124.086 47.3726 125.3 46.6961 126.147 46.3578C127.023 46.0196 128.773 45.6813 132.642 45.3994V42.7216ZM129.903 51.8827C129.536 51.9672 129.056 52.3901 128.83 52.8693C128.604 53.3203 128.406 54.2223 128.406 54.8424C128.406 55.4625 128.604 56.3364 128.83 56.8156C129.056 57.2666 129.564 57.774 129.959 57.9431C130.355 58.084 131.117 58.225 131.654 58.225H132.642C132.642 52.982 132.614 51.4599 132.586 51.488C132.529 51.5162 132.049 51.5726 131.513 51.629C130.976 51.6854 130.242 51.7981 129.903 51.8827ZM140.775 55.0115L140.832 58.225C143.204 58.225 143.571 58.0558 144.249 57.3793C144.955 56.6464 145.068 56.3082 145.096 54.8988C145.096 53.7713 144.955 53.0948 144.587 52.6156C144.22 52.1364 143.684 51.8827 142.582 51.7417C141.764 51.629 141.001 51.6008 140.916 51.6854C140.803 51.7699 140.775 53.2639 140.775 55.0115ZM172.46 72.0371C172.629 72.0371 172.996 72.178 173.307 72.3753C173.73 72.6572 173.985 72.6572 174.578 72.319C175.142 71.9807 175.34 71.9525 175.566 72.2344C175.764 72.4881 175.679 72.77 175.284 73.1646C174.973 73.4747 174.38 73.7284 173.956 73.7002C173.533 73.7002 172.94 73.4747 172.657 73.221C172.375 72.9391 172.177 72.5727 172.177 72.3753C172.177 72.178 172.318 72.0371 172.46 72.0371ZM118.438 73.7284C118.946 73.7284 119.793 73.8975 120.302 74.1512C120.81 74.3767 121.431 74.9404 121.714 75.4196C121.968 75.8706 122.194 76.7727 122.194 77.3928C122.194 78.0129 121.968 78.8868 121.714 79.366C121.431 79.817 120.81 80.4089 120.302 80.6344C119.793 80.8599 118.974 81.0572 118.466 81.0572C117.958 81.0572 117.082 80.7754 116.546 80.4089C115.84 79.9579 115.444 79.3941 115.162 78.4921C114.823 77.421 114.823 77.0827 115.162 76.1243C115.416 75.4196 115.925 74.7713 116.518 74.3767C117.054 74.0102 117.93 73.7284 118.438 73.7284ZM117.365 77.3646C117.393 77.6747 117.534 78.2102 117.675 78.5203C117.845 78.8586 118.24 79.0841 118.664 79.0841C119.059 79.0841 119.426 78.8868 119.511 78.6613C119.596 78.4076 119.652 77.8156 119.652 77.3082C119.652 76.8008 119.511 76.2371 119.313 76.0398C119.116 75.8425 118.72 75.6733 118.466 75.7015C118.184 75.7015 117.845 75.927 117.675 76.2371C117.478 76.5472 117.365 77.0545 117.365 77.3646ZM126.514 73.7284C127.079 73.7284 127.954 73.8975 128.406 74.1512C128.886 74.3767 129.395 74.8277 129.536 75.1378C129.705 75.4478 129.818 75.9552 129.818 76.2653C129.818 76.7163 129.621 76.829 128.689 76.829C127.785 76.829 127.531 76.7163 127.418 76.2653C127.324 75.8894 127.041 75.7015 126.571 75.7015C126.091 75.7015 125.808 75.8707 125.695 76.3217C125.611 76.6881 125.582 77.3928 125.639 77.9566C125.724 78.8022 125.837 78.9431 126.514 78.9995C127.079 79.0559 127.305 78.9149 127.418 78.5203C127.531 78.0693 127.785 77.9566 128.689 77.9566C129.31 77.9566 129.875 78.0411 129.931 78.1539C129.988 78.2666 129.875 78.774 129.649 79.2814C129.423 79.7888 128.886 80.3807 128.406 80.6344C127.954 80.8599 127.107 81.0572 126.571 81.0572C126.034 81.0572 125.215 80.8599 124.735 80.6344C124.283 80.3807 123.69 79.817 123.464 79.366C123.239 78.8868 123.041 78.0129 123.041 77.3928C123.041 76.7727 123.239 75.8988 123.493 75.476C123.719 75.0532 124.255 74.4894 124.679 74.2076C125.102 73.9539 125.921 73.7284 126.514 73.7284ZM140.973 73.8129C142.074 73.9257 142.582 74.1512 143.232 74.8277C143.994 75.5888 144.079 75.8988 144.079 77.3928C144.079 78.9149 143.994 79.1404 143.147 79.9861C142.328 80.8317 142.074 80.9163 140.521 80.9163C138.94 80.9163 138.742 80.8317 137.979 79.9861C137.528 79.4787 137.076 78.6049 136.991 78.0129C136.878 77.3928 136.991 76.5753 137.217 75.9834C137.443 75.4196 138.064 74.6868 138.601 74.3203C139.391 73.7847 139.815 73.7002 140.973 73.8129ZM139.391 77.3646C139.42 77.6747 139.561 78.2102 139.702 78.5203C139.871 78.8586 140.267 79.0841 140.69 79.0841C141.086 79.0841 141.453 78.8868 141.538 78.6613C141.622 78.4076 141.679 77.8156 141.679 77.3082C141.679 76.8008 141.538 76.2371 141.34 76.0398C141.142 75.8425 140.747 75.6733 140.493 75.7015C140.21 75.7015 139.871 75.927 139.702 76.2371C139.504 76.5472 139.391 77.0545 139.391 77.3646ZM64.303 74.0102H70.2333V76.5472C70.2333 78.0411 70.3463 79.0841 70.5157 79.0841C70.6851 79.0841 70.7981 79.7606 70.7981 82.1848H69.6685C68.6519 82.1848 68.5389 82.1002 68.5389 81.48C68.5389 80.8035 68.4542 80.7754 67.127 80.7754C65.7997 80.7754 65.715 80.8035 65.715 81.48C65.715 82.1284 65.6303 82.1566 63.3147 82.0438L63.2582 80.5499C63.2017 79.3941 63.2582 79.0841 63.5971 79.0841C63.823 79.0841 64.0771 78.8022 64.1619 78.4358C64.2466 78.0975 64.303 76.9418 64.303 75.8988V74.0102ZM66.5622 78.3794C66.308 79.0559 66.3363 79.0841 67.127 79.0841H67.9742C67.9742 75.8988 67.9177 75.7015 67.4094 75.7015C66.9576 75.7015 66.8446 75.8988 66.8446 76.6881C66.8446 77.2237 66.7034 77.9847 66.5622 78.3794ZM73.4526 74.0102H76.0224L77.1519 77.1673C77.7732 78.9149 78.3098 80.4371 78.338 80.5499C78.3945 80.6908 77.8579 80.7754 77.1519 80.7754C76.2765 80.7754 75.8247 80.6626 75.74 80.3525C75.6553 80.0988 75.2317 79.9297 74.6104 79.9297C73.9327 79.9297 73.622 80.0707 73.622 80.3525C73.622 80.6626 73.3114 80.7754 72.4925 80.7754C71.7865 80.7754 71.3629 80.6626 71.3629 80.4371C71.3629 80.2398 71.8147 78.7176 72.4077 77.0545L73.4526 74.0102ZM79.8347 74.0102H86.0473V80.7754H83.5058V78.2384C83.5058 75.7015 83.5058 75.7015 82.7998 75.7015C82.3291 75.7015 82.1503 75.8143 82.2633 76.0398C82.3762 76.2371 82.348 77.1673 82.235 78.0975C82.0656 79.3096 81.8114 79.9579 81.3314 80.4089C80.8795 80.8599 80.3995 81.029 79.75 80.9727C78.9593 80.9163 78.8181 80.8035 78.7616 80.0707C78.6769 79.4223 78.7898 79.1686 79.2417 78.9995C79.7782 78.8022 79.8347 78.5767 79.8347 76.4062V74.0102ZM89.1537 74.0102V76.2653H90.2832C91.1586 76.2653 91.6105 76.4344 92.26 77.1109C92.7401 77.5901 93.1072 78.2384 93.1072 78.6613C93.1072 79.0277 92.7965 79.676 92.4012 80.0707C91.7517 80.719 91.5258 80.7754 86.7533 80.6344L86.6968 77.6747C86.6404 76.068 86.6686 74.574 86.7533 74.3767C86.838 74.1512 87.3181 74.0102 89.1537 74.0102ZM89.8596 79.0841C90.2832 79.0841 90.5656 78.9149 90.5656 78.6613C90.5656 78.4076 90.4244 78.2384 90.2832 78.2384C90.1138 78.2384 89.8314 78.1539 89.6055 78.0693C89.3796 77.9566 89.2101 78.0975 89.1819 78.4921C89.1537 78.9431 89.3231 79.0841 89.8596 79.0841ZM93.6719 74.0102H96.2135V75.1378C96.2135 76.1807 96.27 76.2653 97.0607 76.2653C97.8514 76.2653 97.9078 76.1807 97.9078 74.0102H100.449V80.7754H97.9078V79.4223C97.9078 78.1257 97.8796 78.0975 97.0607 78.0975C96.2417 78.0975 96.2135 78.1257 96.2135 80.7754H93.6719V74.0102ZM101.297 74.0102H107.227V75.7015H105.532C104.205 75.7015 103.838 75.7861 103.838 76.1243C103.838 76.4344 104.177 76.5472 105.25 76.5472C106.634 76.5472 106.662 76.5472 106.662 77.3928C106.662 78.2102 106.634 78.2384 105.25 78.2384C104.177 78.2384 103.838 78.323 103.838 78.6613C103.838 78.9713 104.205 79.0841 107.227 79.0841V80.7754H101.297V74.0102ZM108.074 74.0102H110.616C112.79 74.0102 113.242 74.0948 113.722 74.574C114.032 74.8841 114.287 75.3633 114.287 75.617C114.287 75.8988 114.117 76.378 113.92 76.6881C113.581 77.1673 113.581 77.3082 114.033 77.7311C114.4 78.0693 114.513 78.4639 114.4 78.9995C114.315 79.4223 113.976 80.0143 113.637 80.2962C113.129 80.6908 112.508 80.7754 108.074 80.7754V74.0102ZM111.322 79.0841C111.745 79.0841 111.999 78.9149 111.971 78.6894C111.943 78.4639 111.604 78.2384 111.237 78.1539C110.672 78.0411 110.531 78.1257 110.559 78.5485C110.587 78.9149 110.841 79.0841 111.322 79.0841ZM130.411 73.982L136.737 74.1512V74.8559C136.737 75.4478 136.596 75.5606 134.901 75.7015V80.7754H132.36V75.7015H131.371C130.468 75.7015 130.383 75.617 130.383 74.8277L130.411 73.982ZM144.813 74.0102H147.355V75.1378C147.355 76.1525 147.411 76.2653 148.061 76.2653C148.682 76.2653 148.767 76.1525 148.767 74.0102H151.308V80.7754H148.767V78.2384H147.411C146.423 78.2384 145.915 78.0693 145.435 77.5901C144.926 77.1109 144.785 76.6599 144.785 75.5042L144.813 74.0102ZM153.568 74.0102C154.697 74.0102 154.697 74.0102 154.697 75.1378C154.697 76.2371 154.725 76.2653 155.685 76.2653C156.646 76.2653 156.674 76.2371 156.674 74.0102H158.933V77.1109C158.933 78.8022 158.961 80.2962 159.018 80.4089C159.046 80.5217 158.538 80.6626 156.674 80.7754V78.0975H154.697V80.7754L152.297 80.6344L152.212 77.9566C152.184 76.4626 152.212 74.9686 152.297 74.6304C152.438 74.0948 152.636 74.0102 153.568 74.0102ZM160.063 74.0102H162.604V75.0532C162.604 76.0962 162.604 76.1243 163.96 76.2935C164.892 76.4344 165.456 76.6881 165.795 77.1391C166.078 77.5055 166.303 78.1821 166.303 78.6613C166.275 79.1123 165.993 79.7606 165.654 80.127C165.089 80.719 164.75 80.7754 160.063 80.7754V74.0102ZM163.225 78.9995C163.564 78.9713 163.875 78.8022 163.931 78.6613C163.988 78.4921 163.705 78.2948 163.282 78.1821C162.661 78.0411 162.519 78.1257 162.576 78.5485C162.604 78.9149 162.802 79.0559 163.225 78.9995ZM167.122 74.0102H169.382V80.7754H167.122V74.0102ZM170.511 74.0102H171.641C172.573 74.0102 172.799 74.0948 172.94 74.6304C173.053 74.9686 173.024 75.7861 172.742 77.5337L173.815 75.7579C174.86 74.0384 174.916 73.982 177.289 74.0102V80.7754H174.606L175.001 77.2519L173.956 78.9995C172.94 80.719 172.883 80.7754 170.511 80.7754V74.0102ZM170.935 81.9029C171.189 81.9029 171.556 82.072 171.782 82.3257C172.036 82.5512 172.573 82.7203 172.996 82.7203C173.42 82.7203 173.9 82.4948 174.041 82.2693C174.21 81.9874 174.521 81.8747 174.832 81.9874C175.086 82.1002 175.312 82.2693 175.34 82.3821C175.34 82.4948 175.086 82.9458 174.775 83.3687C174.295 84.017 173.985 84.1579 172.911 84.1579C172.036 84.1579 171.471 83.9888 171.076 83.5941C170.765 83.2841 170.511 82.7767 170.511 82.4666C170.511 82.1284 170.709 81.9029 170.935 81.9029ZM69.6968 84.7217C71.024 84.7217 71.3911 84.8062 71.3911 85.1445C71.3911 85.3982 71.7865 85.6237 72.4642 85.7083C73.029 85.821 73.8762 86.0747 74.2998 86.272C74.7234 86.4975 75.2599 87.1176 75.4858 87.6814C75.74 88.217 75.9094 88.9217 75.9094 89.2317C75.9094 89.5418 75.74 90.1901 75.4858 90.6975C75.2599 91.2049 74.6951 91.825 74.2151 92.1069C73.7632 92.3888 72.9443 92.6143 72.3795 92.6143C71.5323 92.6143 71.3911 92.6989 71.3911 93.319C71.3911 93.9955 71.3346 93.9955 69.7815 93.9391C68.3978 93.8828 68.1436 93.7982 68.0871 93.319C68.0024 92.868 67.6918 92.6989 66.6752 92.5297C65.8562 92.417 65.0655 92.0787 64.6702 91.6841C64.3313 91.3458 63.9359 90.6693 63.7947 90.2183C63.6535 89.7109 63.6535 88.9217 63.7947 88.3015C63.9359 87.7096 64.416 86.9485 64.8396 86.5821C65.2632 86.2438 66.1386 85.8492 66.8163 85.7364C67.607 85.6237 68.0024 85.3982 68.0024 85.1445C68.0024 84.8062 68.3978 84.7217 69.6968 84.7217ZM66.9293 89.4854C66.9858 89.9083 67.2399 90.2183 67.5223 90.2747C67.9177 90.3311 68.0024 90.1338 68.0024 89.2317C68.0024 88.3861 67.8894 88.1042 67.5788 88.1042C67.3529 88.1042 67.0705 88.2452 66.9858 88.4425C66.9293 88.6398 66.8728 89.119 66.9293 89.4854ZM71.7582 90.3593C71.9559 90.3593 72.2665 90.1619 72.4642 89.9364C72.6619 89.6828 72.7466 89.1754 72.6619 88.8089C72.5678 88.3391 72.3324 88.1042 71.9559 88.1042C71.5041 88.1042 71.3911 88.2734 71.3911 89.2317C71.3911 89.9364 71.5323 90.3593 71.7582 90.3593ZM76.7566 84.7217H84.3812V86.9767H82.1221C80.0606 86.9767 79.8629 87.0049 79.8629 87.5405C79.8629 88.0197 80.0606 88.1042 83.534 88.1042V90.3593H81.6985C80.0606 90.3593 79.8629 90.4156 79.8629 90.923C79.8629 91.4304 80.0606 91.4868 84.3812 91.4868V94.0237H76.7566V84.7217ZM87.0075 84.7217H94.5474V88.1042C94.5474 90.923 94.6321 91.4868 94.971 91.4868C95.3098 91.4868 95.3945 91.8532 95.3945 95.1512H93.8414C92.4859 95.1512 92.2882 95.0667 92.2882 94.5875C92.2882 94.0519 92.1188 94.0237 90.3115 94.0237C88.5324 94.0237 88.3347 94.0519 88.3347 94.5875C88.3347 95.0667 88.1653 95.1512 85.2284 95.1512V93.319C85.2284 91.8532 85.3413 91.4868 85.652 91.4868C85.9061 91.4868 86.2168 91.1203 86.3862 90.6975C86.5556 90.2747 86.7533 88.7526 86.838 87.315L87.0075 84.7217ZM89.6055 91.064C89.5208 91.374 89.7184 91.4868 90.4527 91.4868H91.441C91.441 87.0331 91.441 86.9767 90.7915 86.9767C90.1703 86.9767 90.0855 87.1176 89.9444 88.8089C89.8314 89.8237 89.6902 90.8385 89.6055 91.064ZM96.5241 84.7217H104.149V86.9767H101.89C99.8281 86.9767 99.6304 87.0331 99.6304 87.5405C99.6304 88.0479 99.8281 88.1042 103.584 88.1042V90.3593H101.607C99.8281 90.3593 99.6304 90.4156 99.6304 90.923C99.6304 91.4304 99.8564 91.4868 104.29 91.6277V93.8828L96.5241 94.0237V84.7217ZM105.335 84.6653L112.112 84.8626L112.931 85.7928C113.524 86.413 113.75 86.9767 113.75 87.6814C113.75 88.217 113.609 89.0062 113.411 89.4009C113.214 89.7955 112.733 90.3311 112.338 90.5566C111.971 90.8103 110.983 91.064 108.695 91.3458L108.526 93.8828L105.278 94.0237L105.335 84.6653ZM109.599 88.5834C110.277 88.527 110.531 88.3579 110.616 87.9633C110.672 87.6532 110.531 87.2868 110.333 87.174C110.135 87.0613 109.684 86.9767 109.317 86.9767C108.808 86.9767 108.695 87.1176 108.695 87.8223C108.695 88.5834 108.752 88.6398 109.599 88.5834ZM119.285 84.6935L120.895 89.1472C121.798 91.5995 122.533 93.6854 122.533 93.7982C122.533 93.911 121.827 94.0237 120.979 94.0237C119.596 94.0237 119.398 93.9391 119.257 93.3754C119.144 92.8398 118.918 92.7552 117.704 92.7552C116.461 92.7552 116.263 92.8116 116.15 93.3754C116.037 93.9391 115.868 94.0237 114.484 94.0237C113.609 94.0237 112.903 93.9109 112.875 93.77C112.846 93.6291 113.439 91.8814 114.174 89.8801C114.908 87.9069 115.642 85.9056 115.812 85.4827C116.066 84.778 116.179 84.7217 119.285 84.6935ZM117.308 89.3445C117.026 90.5566 117.054 90.613 117.647 90.6411C118.08 90.6411 118.287 90.472 118.268 90.1338C118.268 89.8801 118.099 89.2881 117.93 88.8371L117.591 88.0479L117.308 89.3445ZM124.792 84.7217H132.981V94.0237H129.592V86.9767H127.898V88.8935C127.898 89.9364 127.757 91.2613 127.616 91.8532C127.446 92.417 127.051 93.1499 126.684 93.4599C126.232 93.8828 125.667 94.0237 123.097 94.0237L123.154 92.8398C123.21 91.8814 123.351 91.6277 123.747 91.6277C124.001 91.6277 124.368 91.4304 124.509 91.2049C124.65 90.9794 124.763 89.4291 124.792 87.766V84.7217ZM134.421 84.6935L137.641 84.8626L137.782 87.8223H138.968C139.617 87.8223 140.606 88.0197 141.17 88.3015C141.876 88.668 142.272 89.119 142.554 89.9364C142.893 90.8948 142.893 91.1767 142.554 91.8814C142.328 92.3324 141.792 92.9526 141.34 93.2908C140.662 93.77 140.097 93.8828 134.393 94.0237L134.421 84.6935ZM138.629 91.4868C139.081 91.4868 139.533 91.3458 139.617 91.2049C139.674 91.0358 139.589 90.7257 139.391 90.472C139.194 90.2465 138.742 90.0492 138.403 90.0492C137.923 90.0492 137.782 90.2183 137.782 90.7821C137.782 91.374 137.895 91.4868 138.629 91.4868ZM143.684 84.7217H147.101V87.8223H149.642V84.7217H152.749V94.0237H149.642V90.0774H147.101V94.0237L143.853 93.8828L143.684 84.7217ZM154.132 84.7217H157.521V87.8223L158.877 87.7942C159.808 87.7942 160.486 87.9915 161.164 88.4425C161.7 88.7807 162.265 89.4573 162.406 89.9364C162.548 90.3875 162.604 91.1767 162.491 91.6841C162.378 92.2761 162.011 92.8116 161.418 93.2344C160.599 93.7982 160.063 93.8828 154.132 94.0237V84.7217ZM158.509 91.4868C159.3 91.4868 159.498 91.374 159.498 90.923C159.498 90.613 159.3 90.2747 159.074 90.2183C158.848 90.1338 158.396 90.0774 158.086 90.0774C157.662 90.0774 157.521 90.2465 157.521 90.7821C157.521 91.374 157.634 91.4868 158.509 91.4868ZM163.451 84.7217H166.84V94.0237L163.592 93.8828L163.451 84.7217ZM168.28 84.7217H171.387L171.358 89.3727L174.21 84.7217H177.317V94.0237H174.21L174.182 89.3727L171.245 93.9955L168.28 94.0237V84.7217ZM133.207 98.0264C133.941 98.1392 134.817 98.4492 135.156 98.6747C135.494 98.9002 135.974 99.3794 136.2 99.7177C136.426 100.056 136.709 100.761 137.076 102.198H135.438C133.941 102.198 133.8 102.114 133.461 101.409C133.179 100.789 132.925 100.648 132.134 100.648C131.371 100.648 131.061 100.789 130.778 101.353C130.609 101.719 130.44 102.565 130.44 103.185C130.411 103.805 130.609 104.594 130.835 104.932C131.174 105.412 131.513 105.553 132.19 105.496C132.868 105.44 133.207 105.243 133.461 104.651C133.772 103.946 133.969 103.889 135.24 103.889C136.313 103.889 136.68 104.002 136.822 104.369C136.906 104.651 136.85 105.186 136.68 105.581C136.511 105.947 136.003 106.624 135.579 107.018C135.156 107.441 134.195 107.949 133.461 108.146C132.36 108.456 131.88 108.456 130.778 108.146C130.016 107.949 129.028 107.413 128.519 106.877C128.011 106.398 127.446 105.553 127.277 105.017C127.107 104.453 127.023 103.298 127.079 102.452C127.164 101.296 127.39 100.62 127.954 99.8304C128.378 99.2667 129.028 98.6465 129.366 98.4774C129.705 98.2801 130.44 98.0546 130.948 97.97C131.484 97.8573 132.501 97.8855 133.207 98.0264ZM67.2964 98.111L68.7366 101.634L70.1486 98.111L71.8994 98.0264C72.9443 97.9982 73.6785 98.0828 73.6785 98.2519C73.6785 98.3928 72.7466 100.451 71.617 102.818C70.2051 105.75 69.2732 107.328 68.7084 107.751C68.2566 108.118 67.5788 108.4 67.2399 108.4C66.9011 108.4 66.3645 108.259 66.0539 108.118C65.6303 107.892 65.4891 107.554 65.4891 106.708C65.4891 105.694 65.5456 105.581 66.1951 105.581C66.5622 105.581 66.8728 105.412 66.8728 105.214C66.8728 105.017 66.1104 103.438 65.1785 101.691C64.2466 99.9432 63.5123 98.3928 63.5123 98.2237C63.5123 98.0546 64.2466 97.97 67.2964 98.111ZM78.0556 98.111L78.338 101.494H80.7383V97.97H84.1271V108.118H80.7383V104.03H78.338L78.0556 107.977L74.5257 108.118L74.4692 103.213C74.441 100.535 74.5257 98.2519 74.6669 98.1391C74.8081 98.0264 75.627 97.97 78.0556 98.111ZM85.8496 97.9418L89.0689 98.111V103.213L92.3165 97.97H95.4228V108.118H92.0341L92.1753 103.072L90.6786 105.383C89.8596 106.652 89.2101 107.779 89.2101 107.892C89.2101 108.005 88.4477 108.118 85.8214 108.118L85.8496 97.9418ZM97.1171 97.97H99.574C100.929 97.97 102.624 98.111 103.33 98.2519C104.008 98.3928 104.883 98.7875 105.222 99.1539C105.617 99.5204 105.871 100.14 105.871 100.648C105.871 101.099 105.617 101.747 105.335 102.057C104.798 102.593 104.798 102.621 105.476 103.241C105.928 103.692 106.154 104.2 106.154 104.932C106.154 105.581 105.928 106.314 105.589 106.765C105.25 107.216 104.544 107.667 103.951 107.808C103.358 107.977 101.579 108.09 97.1171 108.118V97.97ZM101.494 101.916C102.285 101.916 102.454 101.804 102.398 101.381C102.37 100.986 102.059 100.817 101.353 100.732C100.449 100.62 100.365 100.676 100.421 101.268C100.478 101.804 100.647 101.916 101.494 101.916ZM101.41 105.581C101.918 105.581 102.483 105.383 102.68 105.158C102.878 104.904 102.963 104.594 102.906 104.453C102.821 104.284 102.2 104.115 101.551 104.087C100.393 104.002 100.365 104.03 100.421 104.792C100.478 105.468 100.619 105.581 101.41 105.581ZM107.566 97.9418L115.614 98.111V100.648H113.27C111.124 100.648 110.926 100.676 110.926 101.212C110.926 101.719 111.096 101.747 114.908 101.634L114.767 104.312H112.846C111.067 104.312 110.954 104.341 110.954 104.932C110.954 105.553 111.039 105.581 115.755 105.581V108.118H107.566V97.9418ZM117.224 97.8855L120.358 97.9982C122.533 98.0828 123.775 98.2801 124.396 98.5902C124.905 98.872 125.526 99.464 125.752 99.915C125.978 100.394 126.175 101.155 126.175 101.606C126.175 102.085 126.006 102.79 125.78 103.241C125.582 103.664 124.933 104.228 124.368 104.51C123.803 104.763 122.702 104.989 120.528 104.989V108.09H117.139L117.224 97.8855ZM120.471 101.522C120.528 102.424 120.584 102.48 121.601 102.396C122.533 102.339 122.645 102.255 122.645 101.634C122.617 101.043 122.448 100.902 121.516 100.761L120.443 100.592L120.471 101.522ZM138.064 97.9137L141.255 98.0828V103.185L144.503 97.9418H147.609V108.09H144.22L144.362 103.072L142.893 105.355C142.074 106.624 141.425 107.779 141.425 107.892C141.425 108.005 140.634 108.09 138.008 108.09L138.064 97.9137ZM148.739 97.9418H157.803L157.832 100.902L155.008 100.62L154.98 108.09H151.591V100.62H148.908L148.739 97.9418ZM167.151 97.9418L167.009 100.62L164.75 100.648C162.887 100.676 162.463 100.789 162.406 101.155C162.35 101.522 162.689 101.634 166.445 101.747V104.284L164.468 104.312C162.661 104.34 162.463 104.397 162.406 104.961C162.35 105.524 162.463 105.553 167.433 105.553V108.09H158.961L158.905 103.213C158.877 100.535 158.961 98.2519 159.102 98.1391C159.215 98.0264 161.079 97.9418 167.151 97.9418ZM177.317 97.9418L177.176 100.62H174.493V108.09L170.963 107.949L170.681 100.62H169.41C168.139 100.62 168.139 100.62 168.054 99.6331C167.998 99.0975 168.026 98.5056 168.111 98.3083C168.224 98.0264 169.438 97.9418 177.317 97.9418Z" fill="#005BAA"/>
</svg>
