<svg width="121" height="89" viewBox="0 0 121 89" fill="none" xmlns="http://www.w3.org/2000/svg">
<path d="M89.0446 1.90984C90.7192 1.41972 93.4965 0.88875 95.1711 0.684532C96.8457 0.480314 99.9907 0.357784 102.115 0.480314C104.238 0.562001 108.119 1.09297 110.692 1.62393C113.265 2.1549 116.573 3.05346 120.698 4.52383L120.78 13.8362C120.862 18.9416 120.821 23.1076 120.698 23.1076C120.576 23.1076 119.432 22.4133 118.125 21.5147C116.859 20.657 114.858 19.4726 113.755 18.9008C112.611 18.3698 110.447 17.5121 108.854 17.022C107.261 16.5318 104.279 16.0009 102.115 15.8783C99.2555 15.715 97.3358 15.8375 94.7627 16.3685C92.843 16.736 90.2699 17.5121 89.0446 18.0839C87.8193 18.6149 85.6954 19.881 84.3476 20.8612C82.9997 21.8415 81.2435 23.3119 80.3858 24.2104C79.5689 25.0681 78.1802 26.8244 75.5662 30.4595L59.1471 30.6637L59.3922 29.4384C59.5556 28.7441 60.3316 26.7427 61.1893 24.9456C62.047 23.1485 63.5582 20.4937 64.5385 19.0233C65.5187 17.5529 67.7243 14.9798 69.3988 13.2643C71.1143 11.5489 74.1775 9.05746 76.1789 7.75047C78.1802 6.44347 81.2435 4.76889 82.9181 4.07455C84.5926 3.33936 87.37 2.35912 89.0446 1.90984Z" fill="#3F9F3B"/>
<path d="M59.8006 60.8879C59.2696 59.5401 58.9837 58.3148 59.1063 58.1106C59.2288 57.9472 62.9456 57.8247 75.362 57.8247L77.445 60.9696C78.5886 62.7259 80.4266 64.9314 81.5294 65.8708C82.6322 66.7694 84.6335 68.1989 85.9813 69.0158C87.3292 69.8327 89.8615 70.9763 91.5769 71.5073C93.3332 72.0791 96.2739 72.6509 101.502 73.0185L110.406 78.614C115.307 81.6773 119.31 84.2913 119.269 84.4547C119.269 84.6589 118.207 85.149 116.9 85.6391C115.634 86.1292 112.816 86.8644 110.692 87.3545C107.71 87.9672 105.341 88.1714 100.481 88.1714C95.6612 88.1714 93.2106 87.9672 90.2699 87.3545C88.146 86.9053 84.9194 85.925 83.1223 85.2307C81.3252 84.4955 78.4661 83.066 76.7915 82.004C75.1169 80.9421 72.2987 78.7366 70.5016 77.0211C68.7453 75.3465 66.4173 72.7734 65.3553 71.303C64.2934 69.8327 62.823 67.4637 62.0879 65.9934C61.3527 64.523 60.3316 62.2358 59.8006 60.8879Z" fill="#3F9F3B"/>
<path d="M0.822754 88.4572V44.3462V0.235168H27.3711C50.611 0.235168 53.9194 0.316856 53.7968 0.847822C53.756 1.17457 51.142 4.56458 42.2789 15.3473H15.5264V36.1775H37.1735V51.698H15.5264V73.3451H42.2789L48.8139 80.4927C52.4081 84.4137 55.3897 87.8037 55.4714 88.0488C55.5123 88.3347 46.8126 88.4572 0.822754 88.4572Z" fill="#013F70"/>
<path d="M58.8206 51.698V43.9378V36.1775H75.9749V51.698H58.8206Z" fill="#013F70"/>
</svg>
