<svg width="319" height="115" viewBox="0 0 319 115" fill="none" xmlns="http://www.w3.org/2000/svg">
<path d="M92.6369 0.692383V92.8057C92.6369 100.322 89.103 105.279 79.2272 105.279H58.5954C53.6193 105.279 48.4518 107.243 46.8441 114.175C45.2364 107.243 40.0689 105.279 35.0928 105.279H14.4609C4.58523 105.279 1.05127 100.322 1.05127 92.8057V0.692383H92.6369Z" fill="#D6D6D6" stroke="black" stroke-width="1.50015"/>
<path d="M30.392 17.9511C29.8631 18.6671 29.7584 20.5657 32.3193 20.5325C34.8803 20.4992 37.2327 20.5193 39.7203 21.0719C42.2078 21.6244 42.7269 21.9965 42.7269 21.9965L41.4163 23.7303C41.4163 23.7303 39.1421 22.5745 36.174 22.6515C33.2059 22.7286 30.7595 23.3287 29.0814 22.7671C27.4516 22.2216 26.7711 20.605 27.6166 19.107C28.4647 17.6044 30.392 17.9511 30.392 17.9511Z" fill="black"/>
<path d="M32.3191 9.99483C34.5922 9.96526 36.9391 9.87656 39.1531 10.2034C41.5882 10.5629 42.534 11.0736 42.534 11.0736L41.9943 12.345C41.9943 12.345 39.4682 11.2634 36.1578 11.239C32.8474 11.2145 31.4054 11.7035 29.9297 11.2098C28.454 10.716 28.0354 9.57509 28.4254 8.70288C28.8153 7.83068 29.5437 7.95287 29.5437 7.95287C29.2827 8.88207 30.0459 10.0244 32.3191 9.99483Z" fill="#D3230E"/>
<path d="M33.8982 23.5458C33.6763 22.1156 34.3109 21.47 34.3109 21.47C34.9277 22.1635 35.0819 23.0881 35.0819 23.0881C35.0819 23.0881 36.3539 24.0128 38.3198 24.0899C40.2857 24.1669 41.9817 23.589 42.1744 22.0094C42.3672 20.4297 41.3264 19.351 39.4376 18.9657C37.5488 18.5804 35.0048 19.1583 35.0048 19.1583C34.4651 19.9289 33.6556 21.7011 33.6556 21.7011C33.0774 20.815 33.1545 19.1583 33.1545 19.1583C32.4607 19.2739 31.7283 19.1583 31.8054 18.5804C31.8825 18.0025 32.2679 17.9254 32.2679 17.9254C32.1523 17.0393 32.4221 16.7311 32.4221 16.7311C32.4221 16.7311 31.7668 16.6926 31.6126 16.2688C31.4585 15.845 31.7668 15.6908 31.5741 15.3056C31.3814 14.9203 31.497 14.5735 31.497 14.5735C31.497 14.5735 31.073 14.4965 30.8417 14.1112C30.6104 13.7259 30.3792 11.9537 30.3792 11.9537L40.3628 11.4528C40.941 11.029 41.5577 10.7593 43.9476 10.4896C46.3375 10.2199 48.5218 10.1044 48.5218 10.1044C48.5989 9.25675 47.2973 9.15914 47.2498 7.63859C47.2022 6.11804 48.9844 4.74902 51.2586 4.74902C53.5329 4.74902 55.4602 6.36718 55.4602 6.36718C55.4602 6.36718 55.4988 6.59835 54.6507 6.71394C53.8027 6.82952 53.6871 7.0992 53.6871 7.0992C54.6122 6.94509 54.882 7.33037 54.882 7.33037L53.5714 8.33209C54.034 8.2165 54.5351 8.37062 54.5351 8.37062C54.1111 9.37233 52.6848 10.5667 52.6848 10.5667C53.9569 10.4896 54.7278 10.9134 54.7278 10.9134C54.7278 10.9134 54.9977 8.40914 55.8457 6.9451C56.6937 5.48105 58.4283 4.78755 60.2785 5.28841C62.1288 5.78927 64.4416 7.3689 65.6365 8.29356C66.8315 9.21822 67.294 10.1429 67.294 10.1429C65.598 10.1814 64.0947 10.7208 64.0947 10.7208C65.0969 10.9905 65.6365 11.9152 65.6365 11.9152C64.6343 11.6069 62.3601 11.7225 62.3601 11.7225C63.2466 11.9152 64.0947 12.7242 64.0947 12.7242C64.0947 12.7242 63.4394 12.6086 62.2444 12.8398C61.0495 13.071 61.2037 13.6104 61.2037 13.6104C61.2037 13.6104 61.6662 13.8415 62.283 14.6891C62.8997 15.5367 64.5187 17.7328 65.8293 18.0796C67.1399 18.4263 67.3326 18.6575 67.3326 18.6575C66.7544 18.7345 66.3689 18.9272 66.3689 18.9272C67.217 19.8518 68.4504 20.2756 68.4504 20.2756C67.7566 20.8535 66.1376 21.0847 66.1376 21.0847C67.1399 21.9708 70.108 23.3193 70.108 23.3193C69.4141 23.9743 68.1806 24.1284 68.1806 24.1284C69.761 25.4383 72.4593 26.3244 72.4593 26.3244C71.2644 26.8638 68.9901 26.9409 68.9901 26.9409C69.9152 28.2894 71.4185 29.1755 72.9219 29.946C74.4252 30.7166 76.0827 30.9478 76.0827 30.9478C75.3118 31.5257 72.9219 31.8339 72.9219 31.8339C73.8084 32.5659 76.1212 32.7585 76.1212 32.7585C75.4274 33.7988 73.6285 34.1327 73.6285 34.1327C74.9006 34.9803 76.7894 35.25 76.7894 35.25C76.1341 35.9435 75.0548 36.1361 75.0548 36.1361C75.8643 36.4829 77.1749 36.5214 77.1749 36.5214C76.5581 37.1764 75.6715 37.369 75.6715 37.369C76.2497 37.6002 77.0592 37.6002 77.0592 37.6002C76.6737 38.101 76.0955 38.3322 76.0955 38.3322C76.6737 39.3724 78.8324 43.6875 79.796 46.6927C80.7597 49.6978 82.5714 55.2843 83.1881 57.3263C83.8049 59.3682 84.8071 61.2946 84.8071 61.2946C83.5736 61.1405 82.1088 60.1003 82.1088 60.1003C82.1088 60.1003 81.9546 61.2176 82.6485 62.3734C83.3423 63.5292 83.882 64.4539 83.882 64.4539C82.5714 64.1842 80.8368 62.6816 80.8368 62.6816C80.991 64.2998 82.3016 66.2261 82.3016 66.2261C81.415 65.9564 79.8346 64.9162 79.8346 64.9162C80.3742 66.5344 81.3425 68.3522 81.3425 68.3522C80.7156 68.0797 78.9712 66.9083 78.9712 66.9083C79.1075 68.0252 80.3614 69.4882 80.3614 69.4882C79.2821 69.3726 78.5497 68.5635 78.5497 68.5635C78.5497 68.5635 77.8454 71.6101 77.0227 74.8574C76.4344 77.1793 75.4274 79.5053 75.4274 79.5053C75.8514 80.1217 76.738 80.507 76.738 80.507C76.0827 80.6996 74.695 80.7767 74.695 80.7767C75.543 81.3932 77.2006 81.3161 77.2006 81.3161C76.6609 81.9711 74.8492 82.7416 74.8492 82.7416C75.7743 83.0884 77.3162 83.1269 77.3162 83.1269C76.6609 83.936 74.5023 84.4754 74.5023 84.4754C75.5816 84.7066 76.5838 84.6295 76.5838 84.6295C75.9285 85.4386 74.1939 85.9394 74.1939 85.9394C75.0034 86.1705 76.1598 86.2476 76.1983 86.2476C75.0805 87.0182 72.8448 86.5944 72.8448 86.5944C71.4571 87.7502 69.0672 89.4454 65.2896 91.4874C61.512 93.5293 58.6596 94.1458 58.621 94.1843C57.8501 94.6081 56.7708 94.9548 56.7708 94.9548C57.7345 96.7271 57.4646 98.615 57.4646 98.615C56.9635 97.7288 56.501 96.9968 56.501 96.9968C56.8479 98.692 56.4624 100.85 56.4624 100.85C55.9613 99.424 54.8049 98.7691 54.8049 98.7691C55.3831 100.195 55.0362 101.466 55.0362 101.466C54.1496 99.9634 52.5692 98.9617 52.5692 98.9617C53.263 100.31 53.0703 102.275 53.0703 102.275C51.8754 100.426 49.8709 99.1544 49.8709 99.1544C50.5262 100.156 50.5262 101.851 50.5262 101.851C49.4469 100.156 47.5967 99.18 47.5967 99.18C46.4017 99.9121 45.8235 99.3727 45.8235 99.3727C44.0955 100.573 42.7156 99.3267 41.4035 102.185C41.1337 100.413 42.5214 98.9489 42.5214 98.9489C40.941 99.4883 39.2834 101.299 39.2834 101.299C39.322 99.3341 40.7482 97.6775 40.7482 97.6775C39.0136 97.8316 37.6259 99.6039 37.6259 99.5268C37.6259 97.1381 39.322 95.8281 39.322 95.8281C37.8572 96.1364 36.7008 97.9472 36.7008 97.9472C36.8935 96.1749 37.6865 94.5055 37.6865 94.5055C37.1686 94.8052 36.3509 95.677 36.3509 95.677C36.5962 94.4783 37.6592 93.3068 37.6592 93.3068C37.6592 93.3068 36.8415 92.7075 35.9148 92.1898C34.988 91.6722 33.5528 90.6141 31.4328 88.8803C29.3127 87.1466 27.1348 85.3165 27.1348 85.3165C27.1348 85.3165 26.865 85.3358 25.8435 85.2973C24.822 85.2588 23.6849 84.9698 23.6849 84.9698C24.8991 84.8349 25.4195 84.4304 25.4195 84.4304C25.4195 84.4304 25.1689 84.0259 23.6463 83.5635C22.1237 83.1012 21.5455 82.3691 21.5455 82.3691C22.3936 82.5426 23.203 82.4847 23.203 82.4847C23.203 82.4847 22.8176 82.2728 22.1623 81.6564C21.507 81.0399 20.6782 79.8841 20.6782 79.8841C20.6782 79.8841 21.3143 80.3465 22.0081 80.5198C22.7019 80.6932 23.3572 80.7125 23.3572 80.7125C23.3572 80.7125 22.8176 80.4042 22.1237 79.73C21.4299 79.0558 20.6011 77.7266 20.6011 77.7266C20.6011 77.7266 21.0637 78.2467 21.7575 78.3623C22.4514 78.4779 22.9525 78.3238 22.9525 78.3238C21.7575 77.6303 20.2928 75.858 20.2928 75.858C20.5626 76.0121 21.6419 76.1277 21.6419 76.1277C20.871 75.3572 20.4855 74.6637 20.0229 72.6217C19.5604 70.5798 19.5604 68.4993 19.5604 68.4993C19.5604 68.4993 18.1707 66.7085 17.135 65.6188C16.0992 64.5291 15.336 63.1124 15.336 63.1124C15.336 63.1124 15.2815 63.0034 14.6273 63.1669C13.9732 63.3303 13.5916 63.2214 13.5916 63.2214L14.7091 61.5051C14.7091 61.5051 14.4365 61.5595 13.6188 62.0499C12.8011 62.5403 11.9835 62.3769 11.9835 62.3769C11.9835 62.3769 13.1827 61.5051 13.8096 60.7695C14.4365 60.0339 14.8999 59.4618 14.8999 59.4618C14.8999 59.4618 14.5456 59.3529 13.6461 59.6253C12.7466 59.8977 11.8472 59.5163 11.8472 59.5163C11.8472 59.5163 13.2645 59.026 13.9459 58.2087C14.6273 57.3914 14.9272 56.3834 14.9272 56.3834C13.8369 56.9827 13.0737 56.3289 13.0737 56.3289C13.7824 55.9202 14.4638 55.2664 15.336 54.2856C16.2082 53.3049 16.7534 52.1879 16.7534 52.1879C16.0174 52.4059 14.9544 52.4331 14.9544 52.4331C17.5165 51.2617 18.7431 49.4909 19.8879 48.047C21.0327 46.6031 22.8316 44.1785 24.0309 42.7618C25.2302 41.3452 28.61 38.1305 30.5997 36.4414C32.5895 34.7524 35.1516 33.0633 37.6865 31.7829C40.2213 30.5024 42.5381 29.7396 42.5381 29.7396C42.2383 28.9223 41.6659 28.2412 40.6029 27.5874C39.5399 26.9336 38.2452 26.7701 38.2452 26.7701C38.0953 27.0426 38.1362 27.424 38.1362 27.424C37.7955 27.3286 37.6047 26.9881 37.6047 26.9881L37.5502 27.5874C37.4275 27.3695 37.1958 26.9745 37.1958 26.9745C37.1686 27.1107 37.0732 27.2469 37.0732 27.2469C36.9369 27.0289 36.7734 26.7974 36.7734 26.7974L36.5144 26.7429C36.5008 26.9608 36.3924 27.1335 36.3924 27.1335C36.007 26.4786 35.4288 26.0933 35.4288 26.0933L34.7606 26.4786C34.5294 25.9777 34.6064 25.2072 34.6064 25.2072C34.2981 24.7833 33.6249 23.7816 33.6249 23.7816L33.8982 23.5458Z" fill="black"/>
<path d="M59.0942 8.84539C58.7028 8.85092 58.3129 8.92578 57.9654 9.08924C56.5753 9.74308 56.6568 11.2962 56.6568 11.2962C57.8288 11.8138 59.1645 11.9772 59.1645 11.9772C59.1645 11.9772 59.3283 11.6775 60.146 10.8602C60.9637 10.0429 61.5356 10.1517 61.5356 10.1517C61.4538 9.43659 60.2684 8.82879 59.0942 8.84539ZM34.382 11.753L34.1554 11.7643C34.3861 12.5567 34.1976 13.6937 34.1976 13.6937C34.1976 13.6937 34.443 13.1215 34.4702 12.3042C34.4798 12.0185 34.4386 11.8523 34.382 11.753ZM31.935 12.0862C31.935 12.0862 31.4719 12.0587 30.9541 12.2222C30.9541 12.2222 31.172 12.6312 31.5808 12.6857C31.9897 12.7402 32.1531 12.7127 32.1531 12.7127L31.935 12.0862ZM32.5573 14.4758C32.2338 14.4497 31.9625 14.7831 31.9625 14.7831C32.5349 14.8649 33.08 14.6741 32.6984 14.5106C32.6507 14.4902 32.6035 14.4795 32.5573 14.4758ZM41.7117 18.8375C41.7117 18.8375 43.8702 20.1855 44.0244 21.9963C44.1786 23.8071 42.714 24.7708 42.714 24.7708C42.714 24.7708 44.2943 24.6547 44.7568 22.8054C45.2194 20.9561 42.9067 19.0687 41.7117 18.8375ZM34.097 18.9937C33.9633 18.9911 33.7861 19.008 33.5613 19.042C33.5613 19.042 33.425 20.4862 33.7248 21.0855C33.7248 21.0855 33.8888 20.1867 34.2431 19.6146C34.5089 19.1855 34.4982 19.0014 34.097 18.9937ZM34.3247 21.821C34.3247 21.821 34.0829 22.2927 34.1065 22.9043C34.1302 23.5158 34.2046 23.5936 34.2977 23.6465C34.3907 23.6993 34.6791 23.6737 34.7609 23.483C34.8426 23.2922 34.4337 22.5565 34.3247 21.821ZM64.9939 26.7356C65.5721 27.8144 66.266 28.1222 66.266 28.1222C63.9532 27.9681 61.4479 27.0435 61.4479 27.0435C61.949 27.9296 63.2979 28.7004 63.2979 28.7004C62.0644 28.7775 59.3663 28.2768 59.3663 28.2768C60.1372 29.5096 61.7559 30.1646 61.7559 30.1646C60.3682 30.1646 57.0919 29.7792 57.0919 29.7792C57.7086 30.5883 58.9419 31.1658 58.9419 31.1658C57.8626 31.6282 56.2824 31.0119 56.2824 31.0119C56.2824 31.0119 57.2463 32.2831 60.0987 31.4355C59.482 31.32 58.1324 30.0871 58.1324 30.0871C58.1324 30.0871 59.1736 30.3957 60.9082 30.5113C62.6428 30.6269 63.9916 30.2028 63.9916 30.2028C62.1413 30.0102 60.5226 28.8931 60.5226 28.8931C62.1801 29.5866 65.572 29.5865 65.6105 29.5865C64.5312 29.3553 63.5677 28.1992 63.5677 28.1992C65.7649 28.7771 67.4223 28.4307 67.4223 28.4307C66.6514 28.161 65.9191 27.3901 65.9191 27.3901L66.6898 27.1592C66.6898 27.1592 65.0709 26.7356 64.9939 26.7356ZM43.7933 30.8192C43.7933 30.8192 45.9132 32.5916 46.9154 33.6318C47.9177 34.6721 48.3416 34.7876 48.3416 34.7876C48.3416 34.7876 48.6886 34.0554 48.2646 33.3234C48.2646 33.3234 50.5388 33.9785 51.3097 34.7876C51.3097 34.7876 51.5794 34.3253 51.1169 33.7088C50.6543 33.0924 50.616 32.5531 50.616 32.5531L53.3913 33.7858C53.3913 33.7858 53.2372 33.1696 52.5048 32.7458C51.7724 32.322 51.2327 31.3586 51.2327 31.3586C51.2327 31.3586 51.3099 32.1679 51.9651 32.7458C51.9651 32.7458 50.4617 32.0135 49.8835 31.4355C49.9461 32.2467 50.5502 32.6502 50.385 33.6318C49.3941 32.4925 48.15 32.2973 46.9925 31.5131C47.1372 32.4666 47.9488 32.7379 48.0335 33.9403C48.0335 33.9403 45.3352 31.4741 43.7933 30.8192ZM69.8946 31.5013C67.8776 31.4468 62.1753 32.341 56.3751 34.0077C50.575 35.6744 47.0537 37.3856 47.0537 37.3856C47.0537 37.3856 44.546 37.1678 42.0929 35.7512C39.6398 34.3345 37.5232 32.2834 37.5232 32.2834C37.5232 32.2834 38.6585 35.4788 39.9123 37.9306C41.1661 40.3825 41.4387 40.1104 41.9838 41.4181L54.1974 41.4563C55.0151 39.5493 58.7966 37.1199 62.3945 35.1039C65.9924 33.0879 69.8946 31.5013 69.8946 31.5013ZM64.534 48.0469C64.534 48.0469 64.4793 52.1336 63.7706 55.4573C63.062 58.781 61.3721 64.0115 59.6822 65.5916C57.9923 67.1717 58.4286 67.553 58.4286 67.553C58.5377 67.4986 60.7725 67.0624 61.8082 64.5016C62.844 61.9407 64.316 57.4189 64.6431 53.6049C64.9702 49.7908 64.534 48.0469 64.534 48.0469ZM29.4796 49.0173C29.4796 49.0173 28.4387 51.6373 29.0169 54.7966C29.5951 57.9558 31.5228 62.4635 32.4865 64.0431C33.4501 65.6227 34.4905 66.894 34.4905 66.894L33.6428 64.7364C33.6428 64.7364 32.9101 64.043 31.7922 62.2322C30.6744 60.4214 29.7495 55.7979 29.4026 54.1027C29.0556 52.4075 29.2097 50.2501 29.4796 49.0173ZM19.5601 68.4992C19.5601 68.4992 19.5683 68.8645 19.5943 69.356C20.3241 70.1216 23.6805 73.6245 25.471 75.1387C27.4754 76.8339 31.0215 79.3386 31.0215 79.3386C31.0215 79.3386 31.3682 79.3383 33.4112 79.7235C35.4541 80.1087 39.1546 79.9162 39.1546 79.9162C39.1546 79.9162 39.232 79.0686 40.1956 79.3768C41.1593 79.685 42.3159 80.8023 44.089 82.3434C45.8622 83.8845 47.9048 85.8882 47.9048 85.8882C44.7054 86.3891 41.6219 89.0471 39.9258 90.5882C38.2642 92.098 38.191 92.7075 38.191 92.7075C40.3111 90.4729 42.8554 88.8547 44.4359 87.853C46.0163 86.8513 46.7097 87.1209 46.7097 87.1209C47.5963 86.0807 48.5603 86.1961 48.5603 86.1961C48.5603 86.1961 49.1767 85.2331 50.2175 83.3452C51.2582 81.4574 52.7617 79.4156 52.7617 79.4156C52.7617 79.4156 55.596 80.7278 59.3916 80.1859C63.1871 79.6439 64.9038 78.4521 67.7562 76.7569C70.6087 75.0616 74.0779 72.7501 75.774 71.4787C77.1573 70.4418 77.9823 69.8399 78.3036 69.6061C78.3949 69.2173 78.5493 68.5633 78.5493 68.5633C78.5493 68.5633 78.1641 68.8587 77.2389 69.7448C76.3138 70.631 71.8811 73.5978 68.4505 75.7169C65.1944 77.728 62.5146 78.7933 59.4691 79.4926C56.4237 80.1918 53.687 79.2998 53.687 79.2998C53.687 79.2998 53.687 78.876 53.1473 79.0301C52.6077 79.1842 51.875 79.8778 50.4873 81.9198C49.0996 83.9618 47.9818 85.6955 47.9818 85.6955C47.9818 85.6955 46.7098 83.9233 45.0137 82.3822C43.3177 80.8411 41.3134 79.4156 40.2726 79.0689C39.2319 78.7222 38.8077 79.3386 38.8077 79.3386C38.8077 79.3386 37.8057 79.4925 35.9554 79.2229C34.1052 78.9532 30.8995 78.5773 30.8995 78.5773C30.8995 78.5773 29.155 77.3243 26.3203 74.9269C23.4857 72.5295 19.5601 68.4992 19.5601 68.4992ZM51.8864 70.6056C51.8864 70.6056 50.6148 70.8754 49.6126 71.3377C48.6104 71.8 47.454 72.2238 47.454 72.2238C48.4032 72.5058 49.427 72.48 50.0128 72.4317C50.6002 71.3902 51.8864 70.6056 51.8864 70.6056ZM41.8017 70.7596C41.8017 70.7596 42.6215 71.3748 42.9659 72.2288C43.4305 72.3504 44.4232 72.5329 45.4634 72.2238C45.4634 72.2238 44.307 71.8 43.3048 71.3377C42.3026 70.8754 41.8017 70.7596 41.8017 70.7596ZM43.0131 72.3597C43.0647 72.5139 43.101 72.6744 43.112 72.8401C43.1287 73.0901 43.1054 73.411 43.0491 73.7734C43.5439 73.9347 44.7872 74.2567 46.1959 73.9571C46.1959 73.9571 44.1439 73.0712 43.0131 72.3597ZM49.8622 72.7418C48.6051 73.364 46.5675 73.9571 46.5675 73.9571C48.1398 74.2914 49.4163 74.0012 49.743 73.915C49.7211 73.703 49.7148 73.498 49.7278 73.3025C49.7406 73.1114 49.7898 72.9238 49.8622 72.7418ZM43.0333 73.8773C42.9516 74.358 42.8082 74.9076 42.6151 75.4747C43.5268 75.487 45.0391 75.4758 46.0031 75.2674C46.0031 75.2674 44.1836 74.7618 43.0333 73.8773ZM49.7526 73.988C48.6273 74.9084 46.9143 75.2674 46.9143 75.2674C47.8338 75.4661 49.2408 75.4849 50.1652 75.4758C49.9472 74.9596 49.8092 74.4572 49.7526 73.988ZM42.5409 75.6764C42.3889 76.0981 42.215 76.5234 42.0085 76.9344C42.3836 76.9971 43.1771 77.0765 44.2689 76.8855C45.8108 76.6158 45.8879 76.3461 45.8879 76.3461C45.8879 76.3461 43.8532 76.0271 42.5409 75.6764ZM50.2664 75.7051C48.953 76.0442 47.0296 76.3461 47.0296 76.3461C47.0296 76.3461 47.1067 76.6158 48.6485 76.8855C49.7539 77.0789 50.6226 77.0536 51.0365 77.0243C50.7266 76.5856 50.469 76.1421 50.2664 75.7051ZM41.8444 77.2496C41.6448 77.614 41.4247 77.96 41.185 78.2722C41.185 78.2722 43.2667 78.5037 44.5387 77.4249C44.5387 77.4249 43.0459 77.4872 41.8444 77.2496ZM51.2782 77.3519C50.0524 77.5907 48.3787 77.4249 48.3787 77.4249C49.6507 78.5037 52.1563 78.3497 52.1563 78.3497C51.8327 78.0263 51.5403 77.6915 51.2782 77.3519ZM37.7672 93.5936C37.3046 93.9981 36.9959 94.6336 36.9959 94.6336L38.0179 93.9593L37.7672 93.5936ZM38.4418 94.5375C38.4418 94.5375 37.5553 95.077 37.3433 96.6759C37.3433 96.6759 38.191 95.4235 39.0005 95.1538C39.0005 95.1538 38.6538 94.8842 38.4418 94.5375ZM56.7709 94.9549C56.7709 94.9549 55.5119 95.568 54.2036 96.0039C52.8953 96.4398 51.0691 97.0934 51.0691 97.0934C51.0691 97.0934 52.2956 96.9575 54.2581 96.3309C55.6348 95.8914 56.526 95.516 56.953 95.3246C56.8975 95.2012 56.8377 95.0779 56.7709 94.9549ZM56.989 96.0466L56.5651 96.4124L57.2397 97.453C57.2204 96.7017 56.989 96.0466 56.989 96.0466ZM39.6172 96.0978C39.6172 96.0978 38.4608 97.1378 38.2681 98.2744C39.0775 97.1764 40.3688 96.7338 40.3688 96.7338L39.6172 96.0978ZM55.8906 97.1445C55.7749 97.4913 55.293 97.9924 55.293 97.9924C55.293 97.9924 55.2933 98.1465 55.6016 98.5317C55.91 98.917 56.1604 99.5526 56.1604 99.5526C56.1604 99.5526 56.2759 98.9745 56.1795 98.3003C56.0831 97.626 55.8906 97.1445 55.8906 97.1445ZM41.5257 97.9856C40.7933 98.3131 40.1956 99.6038 40.1956 99.6038C40.7931 98.9103 42.0074 98.4671 42.0074 98.4671L41.5257 97.9856ZM54.3677 98.5508C54.0401 98.6857 53.4042 98.7818 53.4042 98.7818C53.6355 98.9744 54.5223 100.188 54.5223 100.188C54.5994 99.2249 54.3677 98.5508 54.3677 98.5508ZM52.0551 98.9363C51.766 99.0711 51.0146 99.1481 51.0146 99.1481C51.5542 99.5719 52.6335 100.978 52.6335 100.978C52.6143 100.169 52.0551 98.9363 52.0551 98.9363ZM49.1061 98.9936C49.1061 98.9936 48.4894 99.0322 48.4315 99.0515L49.5108 99.9763C49.5108 99.9763 49.5108 99.3018 49.1061 98.9936ZM43.0097 99.1992C43.0097 99.1992 42.0264 99.9313 41.9107 100.74C41.9107 100.74 42.8169 99.7577 43.7613 99.6229L43.0097 99.1992Z" fill="#FEFEFE"/>
<path d="M60.0596 41.043V64.0206C60.0596 66.2391 58.6917 68.2099 56.4077 68.3914C54.1237 68.5728 52.181 68.6157 50.8895 68.7183C49.5981 68.8209 47.635 69.3501 46.844 71.2497C46.053 69.3501 44.0899 68.8209 42.7985 68.7183C41.507 68.6157 39.5643 68.5728 37.2803 68.3914C34.9963 68.2099 33.6284 66.2391 33.6284 64.0206V41.043H60.0596Z" fill="#F2E847"/>
<path d="M44.047 41.0428V54.3549L33.6328 64.1448C33.6832 66.3119 35.0389 68.2133 37.28 68.3913L46.8437 59.4004L56.4073 68.3913C58.6484 68.2133 60.0041 66.3119 60.0545 64.1448L49.6403 54.3549V41.0428H44.047Z" fill="#2E48A5" stroke="black"/>
<path d="M45.4542 64.8431C45.4542 64.8431 45.8898 64.5352 46.0829 64.1515C46.2761 63.7677 46.6084 63.6301 46.6084 63.6301C46.6084 63.6301 46.7126 64.234 47.2528 64.5158C47.2528 64.5158 46.9338 64.711 46.8136 65.0243C46.6934 65.3377 45.4542 64.8431 45.4542 64.8431ZM48.9026 65.3185C48.9026 65.3185 49.1526 64.9644 49.4968 64.9703C49.8409 64.9763 49.7514 65.1755 49.4769 65.2854C49.2025 65.3954 48.9026 65.3185 48.9026 65.3185ZM51.97 64.6117C51.97 64.6117 51.6711 65.309 51.6445 66.0111C51.618 66.7131 51.9529 67.2494 51.9529 67.2494C51.9529 67.2494 51.6078 67.3008 51.2095 67.1075C50.8113 66.9143 50.3174 66.4469 50.1505 66.143C49.9837 65.839 50.1773 65.4266 50.1773 65.4266C50.1773 65.4266 51.1085 64.6684 51.97 64.6117ZM49.1295 66.2974C49.1295 66.2974 49.5436 66.4049 49.7129 66.5655C49.5183 66.9358 49.1798 67.0916 49.0625 67.6726C49.0625 67.6726 48.7904 67.6536 48.4381 67.289C48.0859 66.9245 47.873 66.7918 47.873 66.7918L49.1295 66.2974ZM47.0077 67.0636C47.0077 67.0636 46.9399 67.6646 46.7608 68.0629C46.7608 68.0629 46.1361 67.6937 45.9313 67.1023L47.0077 67.0636Z" fill="#D3230E" stroke="black" stroke-width="0.5"/>
<path d="M41.1047 65.6302C41.4784 65.6001 42.0061 65.1186 43.084 64.9547C44.162 64.7908 45.4021 64.6298 46.5755 64.8123C47.7488 64.9948 47.7467 65.1164 49.2854 65.285C50.8241 65.4535 50.965 65.5168 50.9576 65.9425C50.9503 66.3682 50.1643 66.0707 49.3881 66.3818C48.6119 66.6928 48.3846 66.9322 46.8388 67.1691C45.293 67.406 43.9333 67.4433 43.1858 67.2681C42.4383 67.093 42.2719 66.9218 41.8007 66.7719C41.3296 66.6219 41.0875 66.5645 40.8017 66.5022C40.5159 66.44 40.48 66.2601 40.5919 66.1975C40.7309 66.1197 40.7138 66.3916 41.0953 66.3555L40.978 66.1882C41.1766 66.144 41.2124 66.1561 41.3573 66.1725C41.0885 65.8308 40.8482 65.9175 40.5124 66.0018C40.4745 65.7069 40.7309 65.6604 41.1047 65.6302Z" fill="#D3230E" stroke="black" stroke-width="0.5"/>
<path d="M41.3574 66.1726C41.4513 66.2976 41.5124 66.3849 41.6961 66.4495C41.4147 66.3328 41.0955 66.3556 41.0955 66.3556M43.088 66.6818C43.088 66.6818 43.6995 66.5099 44.2542 66.6917M43.0764 66.7627C43.0764 66.7627 43.5935 66.7717 43.9664 66.9099M46.1816 67.2524C46.1816 67.2524 46.4483 67.6625 46.8297 67.8921M46.4664 67.2066C46.4664 67.2066 46.6642 67.4939 46.9158 67.6098M46.7611 67.1711C46.7611 67.1711 46.8501 67.3045 46.9609 67.3469M48.2169 66.8617C48.584 67.0655 48.6776 67.3436 49.108 67.526M49.1615 67.3647C48.8599 67.205 48.7361 67.0023 48.4618 66.7747M48.7169 66.6879C48.9236 66.8878 48.9989 67.058 49.2659 67.1942M49.35 67.0232C49.1741 66.8822 49.1184 66.7385 48.9317 66.5801M49.1566 66.4825C49.2871 66.6195 49.3617 66.7258 49.4948 66.8635M49.5887 66.7131C49.5887 66.7131 49.4525 66.5722 49.3066 66.4108M50.3816 65.4392C50.3816 65.4392 51.2649 64.8056 51.9134 64.8371M50.5939 65.4834C50.5939 65.4834 51.2592 65.1299 51.7863 65.1492M50.8454 65.5993C50.8454 65.5993 51.366 65.4055 51.7001 65.4417M50.9436 65.7835C50.9436 65.7835 51.3803 65.7505 51.6635 65.7959M50.9578 65.9426C50.9578 65.9426 51.4058 66.0348 51.6556 66.252M50.8873 66.1069C50.8873 66.1069 51.329 66.368 51.7008 66.5671M50.6628 66.1842C50.6628 66.1842 51.1526 66.5982 51.7768 66.8624M50.4191 66.2002C50.4191 66.2002 50.9041 66.8879 51.8642 67.087M45.8503 64.7423C46.2934 64.5231 46.2752 64.1794 46.6531 63.854M46.3025 64.7705C46.5213 64.5428 46.6066 64.3206 46.7713 64.0588M46.5756 64.8124C46.5756 64.8124 46.7728 64.5556 46.9997 64.3365M43.0569 66.5986C43.5708 66.247 43.7223 66.6255 44.3222 66.4198C44.2802 66.8692 44.0189 66.8166 43.6786 67.1399C43.6786 67.1399 43.4099 66.9202 43.0524 66.8566C43.0524 66.8566 43.112 66.7286 43.0569 66.5986Z" stroke="black" stroke-width="0.5"/>
<path d="M42.8839 66.3835C42.8388 66.5802 42.6361 66.7426 42.4202 66.7959C42.5279 66.7165 42.606 66.5975 42.628 66.451C42.6634 66.2156 42.5663 65.9253 42.2552 65.6956C42.5046 65.9653 42.588 66.2328 42.5568 66.4408C42.5257 66.6482 42.3823 66.7961 42.1887 66.8183C42.0702 66.8148 41.9432 66.79 41.8134 66.7387L41.7876 66.8052C41.9257 66.8597 42.0623 66.8869 42.1909 66.8903C42.5393 66.8999 42.8563 66.7102 42.9509 66.4071C43.0456 66.104 42.9616 65.9816 42.7551 65.818C42.9364 65.9975 42.929 66.1868 42.8839 66.3835ZM49.8349 65.9404C49.5409 65.9489 48.7795 66.013 48.7795 66.013C48.7795 66.013 49.4422 66.1033 49.8349 65.9404ZM41.8795 66.2605C41.9078 66.3205 41.8778 66.3883 41.8461 66.4105C41.8146 66.4327 41.7708 66.4425 41.7094 66.4171L41.6813 66.4835C41.7606 66.5163 41.8356 66.5055 41.8873 66.4691C41.939 66.4326 41.9927 66.3262 41.9251 66.209C41.8575 66.0918 41.7662 66.0681 41.6443 66.1229C41.8383 66.1191 41.8511 66.2005 41.8795 66.2605Z" fill="black"/>
<path d="M41.6994 65.8258C41.6991 65.8413 41.6958 65.8566 41.6896 65.8709C41.6834 65.8851 41.6745 65.898 41.6633 65.9088C41.6521 65.9196 41.6389 65.9281 41.6245 65.9338C41.61 65.9395 41.5946 65.9423 41.579 65.942C41.5635 65.9417 41.5482 65.9384 41.5339 65.9322C41.5197 65.926 41.5068 65.9171 41.496 65.9059C41.4852 65.8947 41.4767 65.8816 41.471 65.8671C41.4653 65.8527 41.4625 65.8372 41.4628 65.8217C41.4631 65.8062 41.4664 65.7908 41.4726 65.7766C41.4788 65.7624 41.4877 65.7495 41.4989 65.7387C41.5101 65.7279 41.5233 65.7194 41.5377 65.7137C41.5522 65.708 41.5676 65.7052 41.5831 65.7055C41.5987 65.7058 41.614 65.7091 41.6283 65.7153C41.6425 65.7215 41.6554 65.7304 41.6662 65.7416C41.677 65.7528 41.6855 65.7659 41.6912 65.7804C41.6969 65.7948 41.6997 65.8103 41.6994 65.8258Z" fill="black"/>
<path d="M42.7548 65.3494C42.7545 65.3675 42.7402 65.3846 42.7151 65.3969C42.69 65.4093 42.6562 65.4158 42.621 65.4152C42.5858 65.4146 42.5522 65.4069 42.5276 65.3937C42.5029 65.3805 42.4892 65.3629 42.4895 65.3449C42.4899 65.3268 42.5041 65.3097 42.5292 65.2974C42.5543 65.2851 42.5882 65.2785 42.6234 65.2791C42.6585 65.2797 42.6921 65.2874 42.7168 65.3006C42.7414 65.3138 42.7551 65.3314 42.7548 65.3494Z" fill="black"/>
<path d="M43.1025 65.1404C43.1021 65.1585 43.0879 65.1755 43.0628 65.1879C43.0377 65.2002 43.0038 65.2068 42.9686 65.2062C42.9335 65.2056 42.8999 65.1978 42.8752 65.1846C42.8506 65.1714 42.8369 65.1539 42.8372 65.1358C42.8375 65.1178 42.8518 65.1007 42.8769 65.0884C42.902 65.076 42.9358 65.0694 42.971 65.07C43.0062 65.0706 43.0398 65.0784 43.0644 65.0916C43.0891 65.1048 43.1028 65.1224 43.1025 65.1404Z" fill="black"/>
<path d="M43.4877 65.2618C43.4874 65.2798 43.4731 65.2969 43.448 65.3092C43.4229 65.3216 43.3891 65.3282 43.3539 65.3276C43.3187 65.327 43.2851 65.3192 43.2605 65.306C43.2358 65.2928 43.2221 65.2752 43.2224 65.2572C43.2228 65.2391 43.237 65.2221 43.2621 65.2097C43.2872 65.1974 43.3211 65.1908 43.3563 65.1914C43.3914 65.192 43.4251 65.1998 43.4497 65.213C43.4744 65.2262 43.488 65.2437 43.4877 65.2618Z" fill="black"/>
<path d="M43.8901 65.2114C43.8897 65.2295 43.8755 65.2465 43.8504 65.2589C43.8253 65.2712 43.7914 65.2778 43.7562 65.2772C43.7211 65.2766 43.6875 65.2688 43.6628 65.2556C43.6382 65.2424 43.6245 65.2249 43.6248 65.2068C43.6251 65.1888 43.6394 65.1717 43.6645 65.1593C43.6896 65.147 43.7234 65.1404 43.7586 65.141C43.7938 65.1416 43.8274 65.1494 43.852 65.1626C43.8767 65.1758 43.8904 65.1933 43.8901 65.2114Z" fill="black"/>
<path d="M44.037 65.0276C44.0367 65.0456 44.0224 65.0627 43.9973 65.0751C43.9722 65.0874 43.9384 65.094 43.9032 65.0934C43.868 65.0928 43.8344 65.085 43.8098 65.0718C43.7851 65.0586 43.7715 65.0411 43.7718 65.023C43.7721 65.0049 43.7864 64.9879 43.8115 64.9755C43.8366 64.9632 43.8704 64.9566 43.9056 64.9572C43.9408 64.9578 43.9744 64.9656 43.999 64.9788C44.0237 64.992 44.0373 65.0095 44.037 65.0276Z" fill="black"/>
<path d="M44.4076 65.1344C44.4073 65.1524 44.393 65.1695 44.3679 65.1818C44.3429 65.1942 44.309 65.2007 44.2738 65.2001C44.2386 65.1995 44.205 65.1918 44.1804 65.1786C44.1557 65.1654 44.1421 65.1478 44.1424 65.1298C44.1427 65.1117 44.157 65.0947 44.1821 65.0823C44.2072 65.07 44.241 65.0634 44.2762 65.064C44.3114 65.0646 44.345 65.0724 44.3696 65.0856C44.3943 65.0987 44.408 65.1163 44.4076 65.1344Z" fill="black"/>
<path d="M44.7265 64.9678C44.7262 64.9859 44.7119 65.003 44.6868 65.0153C44.6617 65.0277 44.6278 65.0343 44.5927 65.0336C44.5575 65.033 44.5239 65.0253 44.4992 65.0121C44.4746 64.9989 44.4609 64.9813 44.4612 64.9633C44.4615 64.9452 44.4758 64.9281 44.5009 64.9158C44.526 64.9035 44.5599 64.8969 44.595 64.8975C44.6302 64.8981 44.6638 64.9059 44.6885 64.919C44.7131 64.9322 44.7268 64.9498 44.7265 64.9678Z" fill="black"/>
<path d="M44.9794 65.2733C44.9791 65.2914 44.9648 65.3084 44.9397 65.3208C44.9146 65.3331 44.8808 65.3397 44.8456 65.3391C44.8104 65.3385 44.7768 65.3307 44.7522 65.3175C44.7275 65.3043 44.7138 65.2868 44.7141 65.2687C44.7145 65.2507 44.7287 65.2336 44.7538 65.2213C44.7789 65.2089 44.8128 65.2023 44.848 65.2029C44.8831 65.2035 44.9167 65.2113 44.9414 65.2245C44.9661 65.2377 44.9797 65.2552 44.9794 65.2733Z" fill="black"/>
<path d="M45.4975 65.1532C45.4972 65.1713 45.4829 65.1884 45.4578 65.2007C45.4327 65.213 45.3988 65.2196 45.3637 65.219C45.3285 65.2184 45.2949 65.2107 45.2702 65.1975C45.2456 65.1843 45.2319 65.1667 45.2322 65.1487C45.2325 65.1306 45.2468 65.1135 45.2719 65.1012C45.297 65.0889 45.3309 65.0823 45.366 65.0829C45.4012 65.0835 45.4348 65.0912 45.4595 65.1044C45.4841 65.1176 45.4978 65.1352 45.4975 65.1532Z" fill="black"/>
<path d="M45.2865 64.9202C45.2862 64.9383 45.2719 64.9554 45.2469 64.9677C45.2218 64.98 45.1879 64.9866 45.1527 64.986C45.1176 64.9854 45.0839 64.9777 45.0593 64.9645C45.0346 64.9513 45.021 64.9337 45.0213 64.9156C45.0216 64.8976 45.0359 64.8805 45.061 64.8682C45.0861 64.8558 45.1199 64.8492 45.1551 64.8499C45.1903 64.8505 45.2239 64.8582 45.2485 64.8714C45.2732 64.8846 45.2869 64.9022 45.2865 64.9202Z" fill="black"/>
<path d="M45.8569 65.1308C45.8565 65.1488 45.8423 65.1659 45.8172 65.1783C45.7921 65.1906 45.7582 65.1972 45.723 65.1966C45.6879 65.196 45.6543 65.1882 45.6296 65.175C45.605 65.1618 45.5913 65.1443 45.5916 65.1262C45.5919 65.1081 45.6062 65.0911 45.6313 65.0787C45.6564 65.0664 45.6902 65.0598 45.7254 65.0604C45.7606 65.061 45.7942 65.0688 45.8188 65.082C45.8435 65.0952 45.8572 65.1127 45.8569 65.1308Z" fill="black"/>
<path d="M46.3295 65.1677C46.3292 65.1857 46.3149 65.2028 46.2898 65.2151C46.2647 65.2275 46.2309 65.2341 46.1957 65.2334C46.1605 65.2328 46.1269 65.2251 46.1023 65.2119C46.0776 65.1987 46.0639 65.1811 46.0642 65.1631C46.0646 65.145 46.0788 65.1279 46.1039 65.1156C46.129 65.1033 46.1629 65.0967 46.1981 65.0973C46.2332 65.0979 46.2668 65.1056 46.2915 65.1188C46.3162 65.132 46.3298 65.1496 46.3295 65.1677Z" fill="black"/>
<path d="M46.0756 64.9052C46.0753 64.9233 46.061 64.9403 46.0359 64.9527C46.0108 64.965 45.977 64.9716 45.9418 64.971C45.9066 64.9704 45.873 64.9626 45.8484 64.9494C45.8237 64.9362 45.81 64.9187 45.8103 64.9006C45.8107 64.8826 45.8249 64.8655 45.85 64.8532C45.8751 64.8408 45.909 64.8342 45.9442 64.8348C45.9793 64.8354 46.0129 64.8432 46.0376 64.8564C46.0622 64.8696 46.0759 64.8872 46.0756 64.9052Z" fill="black"/>
<path d="M46.7748 65.1324C46.7745 65.1504 46.7602 65.1675 46.7351 65.1798C46.71 65.1922 46.6762 65.1988 46.641 65.1982C46.6058 65.1976 46.5722 65.1898 46.5476 65.1766C46.5229 65.1634 46.5092 65.1458 46.5096 65.1278C46.5099 65.1097 46.5242 65.0927 46.5493 65.0803C46.5743 65.068 46.6082 65.0614 46.6434 65.062C46.6786 65.0626 46.7122 65.0704 46.7368 65.0836C46.7615 65.0968 46.7751 65.1143 46.7748 65.1324Z" fill="black"/>
<path d="M47.1918 65.0679C47.1915 65.086 47.1772 65.103 47.1521 65.1154C47.127 65.1277 47.0932 65.1343 47.058 65.1337C47.0228 65.1331 46.9892 65.1253 46.9646 65.1121C46.9399 65.0989 46.9262 65.0814 46.9265 65.0633C46.9269 65.0453 46.9411 65.0282 46.9662 65.0159C46.9913 65.0035 47.0252 64.997 47.0604 64.9976C47.0955 64.9982 47.1292 65.0059 47.1538 65.0191C47.1785 65.0323 47.1921 65.0499 47.1918 65.0679Z" fill="black"/>
<path d="M47.7177 65.3351C47.7174 65.3531 47.7031 65.3702 47.678 65.3825C47.6529 65.3949 47.6191 65.4015 47.5839 65.4008C47.5487 65.4002 47.5151 65.3925 47.4904 65.3793C47.4658 65.3661 47.4521 65.3485 47.4524 65.3305C47.4527 65.3124 47.467 65.2954 47.4921 65.283C47.5172 65.2707 47.5511 65.2641 47.5863 65.2647C47.6214 65.2653 47.655 65.2731 47.6797 65.2863C47.7043 65.2995 47.718 65.317 47.7177 65.3351Z" fill="black"/>
<path d="M48.2914 65.3307C48.2911 65.3487 48.2768 65.3658 48.2517 65.3781C48.2266 65.3905 48.1928 65.397 48.1576 65.3964C48.1224 65.3958 48.0888 65.3881 48.0642 65.3749C48.0395 65.3617 48.0258 65.3441 48.0262 65.3261C48.0265 65.308 48.0408 65.2909 48.0658 65.2786C48.0909 65.2663 48.1248 65.2597 48.16 65.2603C48.1952 65.2609 48.2288 65.2686 48.2534 65.2818C48.2781 65.295 48.2917 65.3126 48.2914 65.3307Z" fill="black"/>
<path d="M49.3359 65.4921C49.3355 65.5102 49.3213 65.5272 49.2962 65.5396C49.2711 65.5519 49.2372 65.5585 49.202 65.5579C49.1669 65.5573 49.1333 65.5495 49.1086 65.5363C49.084 65.5231 49.0703 65.5056 49.0706 65.4875C49.0709 65.4695 49.0852 65.4524 49.1103 65.4401C49.1354 65.4277 49.1692 65.4211 49.2044 65.4218C49.2396 65.4224 49.2732 65.4301 49.2978 65.4433C49.3225 65.4565 49.3362 65.4741 49.3359 65.4921Z" fill="black"/>
<path d="M49.8227 65.5436C49.8224 65.5616 49.8081 65.5787 49.783 65.591C49.7579 65.6034 49.724 65.61 49.6889 65.6093C49.6537 65.6087 49.6201 65.601 49.5954 65.5878C49.5708 65.5746 49.5571 65.557 49.5574 65.539C49.5577 65.5209 49.572 65.5039 49.5971 65.4915C49.6222 65.4792 49.6561 65.4726 49.6912 65.4732C49.7264 65.4738 49.76 65.4816 49.7847 65.4948C49.8093 65.508 49.823 65.5255 49.8227 65.5436Z" fill="black"/>
<path d="M48.7792 65.3391C48.7789 65.3572 48.7646 65.3742 48.7395 65.3866C48.7144 65.3989 48.6806 65.4055 48.6454 65.4049C48.6102 65.4043 48.5766 65.3965 48.552 65.3833C48.5273 65.3701 48.5136 65.3526 48.514 65.3345C48.5143 65.3165 48.5285 65.2994 48.5536 65.2871C48.5787 65.2747 48.6126 65.2681 48.6478 65.2687C48.6829 65.2693 48.7166 65.2771 48.7412 65.2903C48.7659 65.3035 48.7795 65.321 48.7792 65.3391Z" fill="black"/>
<path d="M47.6362 65.0756C47.6358 65.0936 47.6216 65.1107 47.5965 65.1231C47.5714 65.1354 47.5375 65.142 47.5023 65.1414C47.4672 65.1408 47.4336 65.133 47.4089 65.1198C47.3843 65.1066 47.3706 65.0891 47.3709 65.071C47.3712 65.0529 47.3855 65.0359 47.4106 65.0235C47.4357 65.0112 47.4695 65.0046 47.5047 65.0052C47.5399 65.0058 47.5735 65.0136 47.5981 65.0268C47.6228 65.04 47.6365 65.0575 47.6362 65.0756Z" fill="black"/>
<path d="M46.5351 64.8701C46.5348 64.8882 46.5205 64.9053 46.4954 64.9176C46.4703 64.9299 46.4364 64.9365 46.4013 64.9359C46.3661 64.9353 46.3325 64.9276 46.3078 64.9144C46.2832 64.9012 46.2695 64.8836 46.2698 64.8656C46.2701 64.8475 46.2844 64.8304 46.3095 64.8181C46.3346 64.8058 46.3685 64.7992 46.4036 64.7998C46.4388 64.8004 46.4724 64.8081 46.4971 64.8213C46.5217 64.8345 46.5354 64.8521 46.5351 64.8701Z" fill="black"/>
<path d="M33.6284 41.043V64.0206C33.6284 66.2391 34.9963 68.2099 37.2803 68.3914C39.5643 68.5728 41.507 68.6157 42.7985 68.7183C44.0899 68.8209 46.053 69.3501 46.844 71.2497C47.635 69.3501 49.5981 68.8209 50.8895 68.7183C52.1809 68.6157 54.1237 68.5728 56.4077 68.3914C58.6917 68.2099 60.0596 66.2391 60.0596 64.0206V41.043H33.6284Z" stroke="black" stroke-width="1.5"/>
<path d="M45.1166 13.8027C44.8925 13.8104 44.68 13.9086 44.5241 14.0763C44.3682 14.2441 44.2811 14.4683 44.2813 14.7017C44.2813 14.9401 44.3723 15.1688 44.5343 15.3374C44.6964 15.506 44.9161 15.6007 45.1453 15.6007C45.3744 15.6007 45.5942 15.506 45.7562 15.3374C45.9182 15.1688 46.0093 14.9401 46.0093 14.7017C46.0093 14.4633 45.9182 14.2346 45.7562 14.066C45.5942 13.8974 45.3744 13.8027 45.1453 13.8027C45.1357 13.8025 45.1261 13.8025 45.1166 13.8027ZM44.8653 14.4561C44.8679 14.4561 44.8706 14.4561 44.8732 14.4561C44.9793 14.4563 45.0811 14.5002 45.1562 14.5784C45.2312 14.6566 45.2734 14.7625 45.2734 14.873C45.2734 14.9836 45.2312 15.0895 45.1562 15.1677C45.0811 15.2459 44.9793 15.2898 44.8732 15.2899C44.8205 15.29 44.7684 15.2792 44.7198 15.2583C44.6712 15.2373 44.627 15.2066 44.5898 15.1679C44.5526 15.1292 44.523 15.0832 44.5029 15.0326C44.4827 14.982 44.4724 14.9278 44.4724 14.873C44.4724 14.7638 44.5135 14.659 44.587 14.581C44.6605 14.5031 44.7604 14.4582 44.8653 14.4561Z" fill="#D3230E"/>
<path d="M44.3276 13.6935C44.3276 13.6935 43.2494 14.4697 43.9188 15.546C44.5457 16.554 46.2083 16.0636 46.5354 15.1646L47.7074 15.1373L46.9443 14.8922L47.6802 14.5652L46.5354 14.3745C46.5354 14.3745 47.0805 14.0204 47.026 14.0204H46.2356C46.2356 14.0204 46.0448 13.8024 45.8267 13.7752C45.8267 13.7752 46.5082 14.6197 46.1538 15.2463C45.7995 15.8729 44.7365 15.9819 44.3276 15.437C43.8956 14.8612 44.1641 14.2111 44.1641 14.2111L44.2731 14.4835L44.8455 14.4563C44.8455 14.4563 44.6547 14.2928 44.4639 14.2111C44.2731 14.1293 44.2186 14.0476 44.3276 13.6935Z" fill="white"/>
<path d="M112.257 38.6924H124.317V52.6924H122.357V40.4324H114.237V52.6924H112.257V38.6924ZM134.383 41.9924C137.483 41.9924 139.743 44.1524 139.743 47.3924C139.743 50.6524 137.483 52.8124 134.383 52.8124C132.883 52.8124 131.563 52.2324 130.683 51.0924V56.5724H128.763V42.0924H130.603V43.7724C131.463 42.5924 132.823 41.9924 134.383 41.9924ZM134.223 51.1324C136.263 51.1324 137.803 49.6524 137.803 47.3924C137.803 45.1524 136.263 43.6724 134.223 43.6724C132.203 43.6724 130.663 45.1524 130.663 47.3924C130.663 49.6524 132.203 51.1324 134.223 51.1324ZM146.615 41.9924C149.515 41.9924 151.155 43.3924 151.155 46.2924V52.6924H149.335V51.2924C148.695 52.2524 147.515 52.8124 145.855 52.8124C143.455 52.8124 141.935 51.5324 141.935 49.6924C141.935 47.9924 143.035 46.5924 146.195 46.5924H149.235V46.2124C149.235 44.5924 148.295 43.6524 146.395 43.6524C145.135 43.6524 143.855 44.0924 143.035 44.7924L142.235 43.3524C143.335 42.4724 144.915 41.9924 146.615 41.9924ZM146.175 51.3324C147.615 51.3324 148.755 50.6724 149.235 49.4524V47.9724H146.275C144.375 47.9724 143.835 48.7124 143.835 49.6124C143.835 50.6724 144.715 51.3324 146.175 51.3324ZM162.232 47.1924C163.632 47.5524 164.292 48.4324 164.292 49.7724C164.292 51.6124 162.932 52.6924 160.112 52.6924H155.012V42.0924H159.932C162.432 42.0924 163.932 43.0724 163.932 44.8124C163.932 45.9524 163.292 46.7724 162.232 47.1924ZM156.892 43.5724V46.6524H159.772C161.232 46.6524 162.012 46.1124 162.012 45.0924C162.012 44.0724 161.232 43.5724 159.772 43.5724H156.892ZM159.972 51.2124C161.552 51.2124 162.372 50.7324 162.372 49.6524C162.372 48.5524 161.672 48.0324 160.092 48.0324H156.892V51.2124H159.972ZM167.697 52.6924V42.0924H169.617V49.8124L176.117 42.0924H177.857V52.6924H175.937V44.9724L169.457 52.6924H167.697ZM189.884 42.0924V43.7724H186.004V52.6924H184.084V43.7724H180.204V42.0924H189.884ZM201.359 47.4524C201.359 47.6124 201.339 47.8524 201.319 48.0324H192.719C192.959 49.8924 194.459 51.1324 196.559 51.1324C197.799 51.1324 198.839 50.7124 199.619 49.8524L200.679 51.0924C199.719 52.2124 198.259 52.8124 196.499 52.8124C193.079 52.8124 190.799 50.5524 190.799 47.3924C190.799 44.2524 193.059 41.9924 196.119 41.9924C199.179 41.9924 201.359 44.1924 201.359 47.4524ZM196.119 43.6124C194.279 43.6124 192.919 44.8524 192.719 46.6524H199.519C199.319 44.8724 197.979 43.6124 196.119 43.6124ZM205.521 42.0924H213.661V52.6924H211.741V43.7724H207.181L207.061 46.1324C206.881 49.8724 206.381 52.8524 203.981 52.8524C203.621 52.8524 203.241 52.7924 202.801 52.6724L202.921 51.0524C203.101 51.0924 203.261 51.1124 203.401 51.1124C205.121 51.1124 205.201 48.5124 205.341 46.0124L205.521 42.0924ZM222.674 45.6924C225.374 45.7124 226.814 46.9724 226.814 49.1524C226.814 51.4524 225.214 52.7324 222.374 52.7124L217.774 52.6924V42.0924H219.694V45.6724L222.674 45.6924ZM222.214 51.2524C223.954 51.2724 224.854 50.5524 224.854 49.1324C224.854 47.7324 223.974 47.1324 222.214 47.1124L219.694 47.0724V51.2324L222.214 51.2524ZM234.298 52.8124C231.038 52.8124 228.698 50.5524 228.698 47.3924C228.698 44.2324 231.038 41.9924 234.298 41.9924C236.198 41.9924 237.778 42.7724 238.618 44.2524L237.158 45.1924C236.478 44.1524 235.438 43.6724 234.278 43.6724C232.198 43.6724 230.638 45.1324 230.638 47.3924C230.638 49.6924 232.198 51.1324 234.278 51.1324C235.438 51.1324 236.478 50.6524 237.158 49.6124L238.618 50.5324C237.778 52.0124 236.198 52.8124 234.298 52.8124ZM249.267 42.0924V43.7724H245.387V52.6924H243.467V43.7724H239.587V42.0924H249.267ZM258.85 47.1924C260.25 47.5524 260.91 48.4324 260.91 49.7724C260.91 51.6124 259.55 52.6924 256.73 52.6924H251.63V42.0924H256.55C259.05 42.0924 260.55 43.0724 260.55 44.8124C260.55 45.9524 259.91 46.7724 258.85 47.1924ZM253.51 43.5724V46.6524H256.39C257.85 46.6524 258.63 46.1124 258.63 45.0924C258.63 44.0724 257.85 43.5724 256.39 43.5724H253.51ZM256.59 51.2124C258.17 51.2124 258.99 50.7324 258.99 49.6524C258.99 48.5524 258.29 48.0324 256.71 48.0324H253.51V51.2124H256.59ZM268.855 52.8124C265.675 52.8124 263.335 50.5524 263.335 47.3924C263.335 44.2324 265.675 41.9924 268.855 41.9924C272.035 41.9924 274.355 44.2324 274.355 47.3924C274.355 50.5524 272.035 52.8124 268.855 52.8124ZM268.855 51.1324C270.895 51.1324 272.415 49.6524 272.415 47.3924C272.415 45.1324 270.895 43.6724 268.855 43.6724C266.815 43.6724 265.275 45.1324 265.275 47.3924C265.275 49.6524 266.815 51.1324 268.855 51.1324ZM110.757 60.6924H113.057L116.717 65.8124L120.377 60.6924H122.717L117.977 67.4124L123.097 74.6924H120.737L116.717 69.1124L112.717 74.6924H110.417L115.517 67.4924L110.757 60.6924ZM129.144 63.9924C132.044 63.9924 133.684 65.3924 133.684 68.2924V74.6924H131.864V73.2924C131.224 74.2524 130.044 74.8124 128.384 74.8124C125.984 74.8124 124.464 73.5324 124.464 71.6924C124.464 69.9924 125.564 68.5924 128.724 68.5924H131.764V68.2124C131.764 66.5924 130.824 65.6524 128.924 65.6524C127.664 65.6524 126.384 66.0924 125.564 66.7924L124.764 65.3524C125.864 64.4724 127.444 63.9924 129.144 63.9924ZM128.704 73.3324C130.144 73.3324 131.284 72.6724 131.764 71.4524V69.9724H128.804C126.904 69.9724 126.364 70.7124 126.364 71.6124C126.364 72.6724 127.244 73.3324 128.704 73.3324ZM142.942 64.4524C145.942 64.4524 148.042 66.5724 148.042 69.6124C148.042 72.7324 145.802 74.8524 142.562 74.8524C138.942 74.8524 136.922 72.2524 136.922 67.7924C136.922 63.4124 138.702 61.0324 142.362 60.2324L147.202 59.1524L147.482 60.9124L143.022 61.8724C140.262 62.4724 138.962 63.8324 138.762 66.5924C139.662 65.2324 141.162 64.4524 142.942 64.4524ZM142.602 73.2524C144.662 73.2524 146.082 71.7724 146.082 69.6724C146.082 67.5724 144.682 66.1724 142.602 66.1724C140.522 66.1724 139.102 67.5724 139.102 69.6724C139.102 71.7724 140.562 73.2524 142.602 73.2524ZM154.866 63.9924C157.766 63.9924 159.406 65.3924 159.406 68.2924V74.6924H157.586V73.2924C156.946 74.2524 155.766 74.8124 154.106 74.8124C151.706 74.8124 150.186 73.5324 150.186 71.6924C150.186 69.9924 151.286 68.5924 154.446 68.5924H157.486V68.2124C157.486 66.5924 156.546 65.6524 154.646 65.6524C153.386 65.6524 152.106 66.0924 151.286 66.7924L150.486 65.3524C151.586 64.4724 153.166 63.9924 154.866 63.9924ZM154.426 73.3324C155.866 73.3324 157.006 72.6724 157.486 71.4524V69.9724H154.526C152.626 69.9724 152.086 70.7124 152.086 71.6124C152.086 72.6724 152.966 73.3324 154.426 73.3324ZM168.884 63.9924C171.984 63.9924 174.244 66.1524 174.244 69.3924C174.244 72.6524 171.984 74.8124 168.884 74.8124C167.384 74.8124 166.064 74.2324 165.184 73.0924V78.5724H163.264V64.0924H165.104V65.7724C165.964 64.5924 167.324 63.9924 168.884 63.9924ZM168.724 73.1324C170.764 73.1324 172.304 71.6524 172.304 69.3924C172.304 67.1524 170.764 65.6724 168.724 65.6724C166.704 65.6724 165.164 67.1524 165.164 69.3924C165.164 71.6524 166.704 73.1324 168.724 73.1324ZM181.973 74.8124C178.793 74.8124 176.453 72.5524 176.453 69.3924C176.453 66.2324 178.793 63.9924 181.973 63.9924C185.153 63.9924 187.473 66.2324 187.473 69.3924C187.473 72.5524 185.153 74.8124 181.973 74.8124ZM181.973 73.1324C184.013 73.1324 185.533 71.6524 185.533 69.3924C185.533 67.1324 184.013 65.6724 181.973 65.6724C179.933 65.6724 178.393 67.1324 178.393 69.3924C178.393 71.6524 179.933 73.1324 181.973 73.1324ZM197.866 69.1924C199.266 69.5524 199.926 70.4324 199.926 71.7724C199.926 73.6124 198.566 74.6924 195.746 74.6924H190.646V64.0924H195.566C198.066 64.0924 199.566 65.0724 199.566 66.8124C199.566 67.9524 198.926 68.7724 197.866 69.1924ZM192.526 65.5724V68.6524H195.406C196.866 68.6524 197.646 68.1124 197.646 67.0924C197.646 66.0724 196.866 65.5724 195.406 65.5724H192.526ZM195.606 73.2124C197.186 73.2124 198.006 72.7324 198.006 71.6524C198.006 70.5524 197.306 70.0324 195.726 70.0324H192.526V73.2124H195.606ZM207.951 74.8124C204.691 74.8124 202.351 72.5524 202.351 69.3924C202.351 66.2324 204.691 63.9924 207.951 63.9924C209.851 63.9924 211.431 64.7724 212.271 66.2524L210.811 67.1924C210.131 66.1524 209.091 65.6724 207.931 65.6724C205.851 65.6724 204.291 67.1324 204.291 69.3924C204.291 71.6924 205.851 73.1324 207.931 73.1324C209.091 73.1324 210.131 72.6524 210.811 71.6124L212.271 72.5324C211.431 74.0124 209.851 74.8124 207.951 74.8124ZM222.837 74.6924L219.277 70.2124H217.077V74.6924H215.157V64.0924H217.077V68.5724H219.317L222.757 64.0924H224.817L220.797 69.1924L225.097 74.6924H222.837ZM231.698 74.8124C228.518 74.8124 226.178 72.5524 226.178 69.3924C226.178 66.2324 228.518 63.9924 231.698 63.9924C234.878 63.9924 237.198 66.2324 237.198 69.3924C237.198 72.5524 234.878 74.8124 231.698 74.8124ZM231.698 73.1324C233.738 73.1324 235.258 71.6524 235.258 69.3924C235.258 67.1324 233.738 65.6724 231.698 65.6724C229.658 65.6724 228.118 67.1324 228.118 69.3924C228.118 71.6524 229.658 73.1324 231.698 73.1324ZM248.171 64.0924V65.7724H242.291V74.6924H240.371V64.0924H248.171ZM254.608 74.8124C251.428 74.8124 249.088 72.5524 249.088 69.3924C249.088 66.2324 251.428 63.9924 254.608 63.9924C257.788 63.9924 260.108 66.2324 260.108 69.3924C260.108 72.5524 257.788 74.8124 254.608 74.8124ZM254.608 73.1324C256.648 73.1324 258.168 71.6524 258.168 69.3924C258.168 67.1324 256.648 65.6724 254.608 65.6724C252.568 65.6724 251.028 67.1324 251.028 69.3924C251.028 71.6524 252.568 73.1324 254.608 73.1324ZM276.731 74.6924L273.171 70.2124H270.971V74.6924H269.051V64.0924H270.971V68.5724H273.211L276.651 64.0924H278.711L274.691 69.1924L278.991 74.6924H276.731ZM287.024 63.9924C290.124 63.9924 292.384 66.1524 292.384 69.3924C292.384 72.6524 290.124 74.8124 287.024 74.8124C285.524 74.8124 284.204 74.2324 283.324 73.0924V78.5724H281.404V64.0924H283.244V65.7724C284.104 64.5924 285.464 63.9924 287.024 63.9924ZM286.864 73.1324C288.904 73.1324 290.444 71.6524 290.444 69.3924C290.444 67.1524 288.904 65.6724 286.864 65.6724C284.844 65.6724 283.304 67.1524 283.304 69.3924C283.304 71.6524 284.844 73.1324 286.864 73.1324ZM299.256 63.9924C302.156 63.9924 303.796 65.3924 303.796 68.2924V74.6924H301.976V73.2924C301.336 74.2524 300.156 74.8124 298.496 74.8124C296.096 74.8124 294.576 73.5324 294.576 71.6924C294.576 69.9924 295.676 68.5924 298.836 68.5924H301.876V68.2124C301.876 66.5924 300.936 65.6524 299.036 65.6524C297.776 65.6524 296.496 66.0924 295.676 66.7924L294.876 65.3524C295.976 64.4724 297.556 63.9924 299.256 63.9924ZM298.816 73.3324C300.256 73.3324 301.396 72.6724 301.876 71.4524V69.9724H298.916C297.016 69.9724 296.476 70.7124 296.476 71.6124C296.476 72.6724 297.356 73.3324 298.816 73.3324ZM311.514 64.0924H316.154V74.6924H314.434V71.3324H311.354H311.134L308.814 74.6924H306.754L309.334 71.0724C307.754 70.5924 306.854 69.4924 306.854 67.8124C306.854 65.3524 308.674 64.0924 311.514 64.0924ZM308.814 67.8724C308.814 69.2924 309.714 69.9524 311.494 69.9524H314.434V65.7724H311.574C309.814 65.7724 308.814 66.3924 308.814 67.8724Z" fill="black"/>
</svg>
