<svg width="158" height="173" viewBox="0 0 158 173" fill="none" xmlns="http://www.w3.org/2000/svg">
<g clip-path="url(#clip0_41_621)">
<mask id="mask0_41_621" style="mask-type:luminance" maskUnits="userSpaceOnUse" x="1" y="1" width="157" height="169">
<path d="M158 1.38464H1.39014V169.634H158V1.38464Z" fill="white"/>
</mask>
<g mask="url(#mask0_41_621)">
<path d="M94.869 82.966C94.8298 82.9269 93.8878 81.9483 92.2591 81.9483C91.3955 81.9483 90.5123 82.2221 89.6291 82.7313C89.4718 82.8095 89.3738 82.9855 89.413 83.1619C89.413 83.201 90.0609 87.5851 89.5703 89.4644C89.1973 90.8736 88 92.5374 85.8214 92.5374C85.3504 92.5374 84.8794 92.4588 84.3692 92.3219H84.3496L85.9983 91.2064C86.116 91.1278 86.1944 90.9909 86.1944 90.8345C86.1944 90.6776 86.116 90.5603 85.9983 90.4625L82.7205 88.2116C83.7609 87.4286 84.4084 86.8807 84.4869 86.8024C84.5853 86.7242 84.6441 86.6065 84.6441 86.4891C84.6441 86.3718 84.6049 86.2541 84.5065 86.1563L83.9178 85.5692C83.8394 85.491 83.7217 85.4323 83.6037 85.4323C83.5056 85.4323 83.4076 85.4715 83.3291 85.5301C83.2899 85.5497 82.4263 86.215 81.1114 87.1153L79.7964 86.215L84.9383 82.6922L85.3308 83.7099C85.3897 83.8663 85.5469 83.9837 85.7234 83.9837C85.7234 83.9837 85.7234 83.9837 85.743 83.9837C85.8999 83.9837 86.0571 83.8859 86.1356 83.749L88.5887 79.2472C88.6675 79.0904 88.6479 78.9144 88.5691 78.7775C88.4906 78.6598 88.3533 78.5815 88.1965 78.5815C88.1769 78.5815 88.1569 78.5815 88.1373 78.5815L83.0738 79.345C82.8973 79.3646 82.7597 79.4819 82.7009 79.6583C82.6617 79.8147 82.7009 79.9907 82.8385 80.1085L83.6625 80.8324L77.8139 84.8449L71.985 80.8324L72.8093 80.1085C72.927 79.9907 72.9862 79.8147 72.9274 79.6583C72.8878 79.4819 72.7505 79.3646 72.574 79.345L67.5102 78.5815C67.4906 78.5815 67.471 78.5815 67.4514 78.5815C67.2945 78.5815 67.1572 78.6402 67.0784 78.7775C66.9804 78.9144 66.9804 79.0904 67.0588 79.2472L69.4927 83.749C69.5711 83.8859 69.728 83.9837 69.8852 83.9837C69.9048 83.9837 69.9048 83.9837 69.9048 83.9837C70.0813 83.9837 70.2186 83.8663 70.2974 83.7099L70.7096 82.6922L75.8515 86.215L74.5365 87.1153C73.2215 86.215 72.3579 85.5497 72.3383 85.5301C72.2599 85.4715 72.1618 85.4323 72.0638 85.4323C71.9457 85.4323 71.8281 85.4715 71.7497 85.5692L71.161 86.1563C71.0822 86.2345 71.0233 86.3523 71.0233 86.4891C71.0233 86.6065 71.0822 86.7242 71.1806 86.8024C71.2786 86.8807 71.9261 87.4286 72.9666 88.2116L69.6887 90.4625C69.5711 90.5407 69.4927 90.6776 69.4927 90.8345C69.4927 90.9909 69.5711 91.1082 69.6887 91.2064L71.3375 92.3219C71.3375 92.3219 71.3375 92.3219 71.3179 92.3219C70.8076 92.4588 70.3366 92.5374 69.8656 92.5374C67.6871 92.5374 66.4701 90.8736 66.0972 89.4644C65.6066 87.5851 66.2544 83.201 66.2544 83.1619C66.274 82.9855 66.1952 82.8095 66.0383 82.7313C65.1355 82.2221 64.2524 81.9483 63.4084 81.9483C61.76 81.9483 60.8177 82.9073 60.7784 82.966C60.7 83.0246 60.6608 83.1423 60.6608 83.2206C60.6412 83.4944 60.1309 89.8164 63.075 93.0267C64.1543 94.2008 65.5869 94.8078 67.2945 94.8078C67.589 94.8078 67.9224 94.8078 68.2365 94.7491C69.9048 94.5532 71.5336 94.103 73.1235 93.5551L75.8515 95.3949L69.8264 99.466C69.7084 99.5638 69.6299 99.6815 69.6299 99.838C69.6299 99.9749 69.6888 100.112 69.8264 100.21L75.8711 104.379L70.7096 107.941L70.317 106.943C70.2582 106.786 70.1009 106.688 69.9244 106.669C69.9244 106.669 69.9244 106.669 69.9048 106.669C69.7476 106.669 69.5907 106.767 69.5123 106.904L67.0784 111.406C67 111.543 67.0196 111.738 67.098 111.856C67.1768 111.973 67.3141 112.051 67.471 112.051C67.4906 112.051 67.5102 112.051 67.5298 112.051L72.5936 111.308C72.7701 111.288 72.9074 111.151 72.947 110.995C73.0058 110.818 72.947 110.642 72.8289 110.525L71.985 109.781L77.8335 105.749L83.6821 109.781L82.8385 110.525C82.7009 110.642 82.6617 110.818 82.7009 110.995C82.7401 111.151 82.8973 111.268 83.0738 111.308L88.1373 112.051C88.1569 112.051 88.1769 112.051 88.1965 112.051C88.3337 112.051 88.471 111.993 88.5691 111.856C88.6675 111.719 88.6675 111.543 88.5887 111.406L86.1356 106.904C86.0571 106.767 85.9195 106.669 85.743 106.669H85.7234C85.5273 106.669 85.3897 106.786 85.3308 106.943L84.9383 107.941L79.7768 104.379L85.8214 100.21C85.9395 100.132 86.0179 99.9944 86.0179 99.838C86.0179 99.6815 85.9395 99.5638 85.8214 99.466L79.7964 95.3949L82.5244 93.5551C84.0943 94.1226 85.7234 94.5532 87.3917 94.7491C87.7255 94.7883 88.0392 94.8078 88.3337 94.8078C90.0609 94.8078 91.4739 94.2008 92.5532 93.0267C95.4973 89.8164 94.9871 83.4944 94.9674 83.2206C94.9674 83.1423 94.9282 83.0442 94.869 82.966ZM77.7943 87.6245L79.0897 88.5053C78.6775 88.7596 78.2457 89.0337 77.7943 89.3075C77.3429 89.0337 76.9111 88.7791 76.4989 88.5053L77.7943 87.6245ZM73.0842 90.854L74.8702 89.6208C75.2236 89.8363 75.5765 90.071 75.9691 90.3256C75.2628 90.6972 74.5561 91.0496 73.8498 91.3824L73.0842 90.854ZM82.4067 99.838L77.7943 103.009L73.2019 99.838L77.7943 96.7259L82.4067 99.838ZM77.7943 94.0444L75.5765 92.5374C76.3617 92.1654 77.088 91.7935 77.7943 91.402C78.501 91.7935 79.2469 92.1654 80.0317 92.5374L77.7943 94.0444ZM81.7589 91.3824C81.0525 91.0691 80.3262 90.7167 79.6195 90.3256C80.0121 90.0906 80.3654 89.8559 80.7188 89.6208L82.5244 90.854L81.7589 91.3824Z" fill="#706F6F"/>
<path d="M96.4204 86.6836C96.5962 86.3312 96.6744 85.6655 96.6744 85.6655L96.4204 85.5873V86.6836Z" fill="#706F6F"/>
<path d="M154.412 71.0056C152.528 69.8706 149.408 69.4791 146.228 69.7728C151.194 68.0503 154.589 64.3707 154.766 61.0822C152.175 60.3387 149.486 60.7298 147.151 61.2586C149.564 59.4579 153.529 56.1694 153.038 51.3348C150.703 50.7673 146.425 52.392 144.639 53.1945C150.369 49.9842 152.43 42.3899 149.388 38.0841C147.582 39.1409 139.398 47.4791 138.064 48.4381C142.303 43.6035 144.285 40.139 145.423 36.8901C146.778 33.3474 146.876 27.1623 142.48 25.0875C140.399 29.8242 133.138 41.9789 129.095 47.0289C128.644 46.6374 128.29 46.109 127.721 46.0109C126.76 49.0839 123.894 53.175 121.284 55.1321C121.146 54.8775 120.891 54.1731 120.44 53.4096C117.673 57.5395 110.49 63.1962 108.174 66.6802C106.368 69.264 106.368 71.5931 108.881 74.0004C109.901 75.0181 111.824 76.7992 110.156 79.3047C107.88 82.6124 103.307 83.0039 100.834 81.0468C100.834 80.4597 100.814 79.8918 100.795 79.3634C103.719 78.2284 104.406 74.255 102.247 71.7886C101.776 72.689 100.991 73.3547 100.049 73.6871C99.7937 72.6499 99.5776 72.1606 99.558 72.1019L99.4404 71.8669H99.1854C99.1658 71.8669 98.2038 71.8082 96.7712 71.6517C98.4003 71.1233 99.4404 69.616 99.205 67.6002C96.6927 69.7533 94.1808 67.6979 93.6114 67.1304C92.0415 65.2906 91.5901 63.2157 92.218 60.0449C92.7482 57.2852 95.6135 52.9008 97.4975 51.4916C97.7724 51.7458 98.2038 52.2746 99.1262 52.196C99.6564 52.02 100.54 51.5698 101.207 51.3152C103.11 50.7477 104.955 51.1783 106.133 51.9418C108.291 53.2532 108.095 54.7015 108.037 55.7583C111.314 53.9185 110.176 50.8455 105.878 49.7104C108.822 49.7104 111.236 52.392 111.863 52.7248C113.493 53.9185 115.828 53.6447 117.182 52.9986C119.793 51.7654 120.322 48.6924 119.616 48.0662C119.361 49.1625 118.517 50.1411 117.005 50.3171C114.768 50.5717 112.609 49.6127 110.902 48.8492C109.45 48.2422 107.114 47.792 105.524 47.8902C108.468 46.2655 113.041 46.4415 114.67 48.947C115.651 48.164 116.26 47.4596 116.534 45.8349C117.378 41.4505 113.944 39.1996 110.274 39.1996C110.372 38.1428 109.626 37.6144 108.645 37.9664C108.645 37.5164 108.527 37.1641 108.272 36.9879C108.351 36.9879 108.468 36.9488 108.547 36.9488C112.236 36.6943 115.73 35.5591 117.614 33.5822C120.911 30.0591 115.651 25.5964 117.536 22.132C119.341 22.9149 120.675 23.9327 123.168 24.2851C123.423 24.8135 123.659 25.8704 123.737 26.4381C124.542 30.3527 120.675 30.9986 121.677 35.1676C122.108 37.0662 123.541 37.7122 124.012 39.963C124.012 39.963 124.188 41.5287 122.815 42.8991C125.994 42.9774 127.662 40.2959 126.681 37.8099C126.249 36.7922 125.15 35.8331 125.15 34.6391C126.779 36.7922 128.231 36.7139 130.743 35.9114C131.882 35.5591 131.98 37.1445 131.274 38.4169C133 37.3989 133.432 35.7352 133.432 34.9915C133.432 33.2299 132.058 32.4079 130.743 32.7601C129.998 32.8384 128.506 33.8562 128.408 32.4079C128.094 29.9025 132.058 30.0004 131.254 25.9683C130.822 23.9523 128.565 22.8366 125.052 22.406C124.699 22.0537 123.816 21.2121 123.344 20.5074C121.421 17.3171 119.42 16.4754 118.222 17.1213C116.809 17.8259 116.083 18.4327 114.925 19.0591C114.003 19.5484 113.022 19.8028 112.413 20.5074C110.882 22.406 112.334 25.342 113.12 27.1427C113.649 28.1996 114.925 30.6071 114.356 32.4079C113.728 34.5609 110.176 35.9114 108.017 36.3616C107.88 36.3616 107.781 36.4007 107.644 36.4007V35.5591C108.272 34.463 108.802 33.1516 109.234 31.9577C110.686 28.0822 108.527 26.5164 105.328 25.7726C104.916 25.5181 104.484 25.4203 103.954 25.5964H103.856L103.778 26.2424L103.346 26.1054L103.444 25.3224H103.248C103.621 25.068 103.778 24.6178 103.778 24.1872C103.778 23.7174 103.601 23.3456 103.424 23.0911H103.856L103.679 22.9149C103.601 22.7388 103.425 22.5626 103.15 22.2886C103.071 22.2103 102.973 22.0341 102.973 21.9363C103.052 22.0146 103.15 22.1124 103.326 22.1907C103.503 22.3669 103.758 22.5431 103.856 22.7192L104.111 22.8954V19.3526L103.856 19.5679C103.778 19.6462 103.503 19.8224 103.326 20.0181C103.15 20.1943 103.071 20.1943 102.973 20.2726C102.973 20.1943 103.052 20.0964 103.15 19.9203C103.425 19.7441 103.601 19.4897 103.679 19.3526L103.856 19.0786H100.245L100.422 19.3526C100.598 19.4701 100.814 19.7441 100.991 19.9203C101.069 20.0964 101.168 20.1943 101.246 20.2726C101.148 20.1943 100.991 20.1943 100.893 20.0181C100.579 19.842 100.422 19.6658 100.245 19.5679L100.108 19.3526V22.9541L100.284 22.7779C100.461 22.6018 100.638 22.4256 100.932 22.2494C101.03 22.1712 101.187 22.0733 101.285 21.995C101.187 22.0733 101.109 22.2494 101.03 22.3473C100.853 22.6214 100.618 22.7779 100.461 22.9736L100.284 23.1498H100.853C100.54 23.4043 100.461 23.7761 100.461 24.2459C100.461 24.6765 100.638 25.1267 100.932 25.3811H100.853L100.932 26.1641L100.461 26.3011L100.363 25.6551H100.284C99.7545 25.479 99.3227 25.5769 98.9694 25.8313C95.7115 26.5751 93.5526 28.1605 95.0052 32.0164C95.4562 33.2103 95.9864 34.5217 96.6339 35.6178V36.1854C93.3761 35.1285 87.5079 31.5662 85.938 29.4132C85.7611 29.1979 85.6239 29.0217 85.5454 28.8847H85.5258L85.5846 26.5555C86.7228 24.6569 87.7436 22.3277 88.5284 20.1943C90.5892 14.616 87.5471 12.2868 82.7194 11.3277C82.2288 10.9754 81.6201 10.7993 80.8157 11.0733L80.6389 11.9541L79.6184 11.8758L79.6969 10.7405C79.5596 10.7797 79.3827 10.7797 79.2062 10.7797C79.8933 10.4274 80.3839 9.58573 80.3839 8.72453C80.3839 8.09819 80.0698 7.35441 79.54 7.00209H80.3839C79.8933 6.57147 79.1082 5.65156 78.9513 5.02523C79.5596 5.20138 80.482 6.02344 80.9138 6.47361V1.91311C80.482 2.26543 79.5596 3.14621 78.9513 3.22451C79.1082 2.71561 79.8933 1.83482 80.3839 1.38464H75.8111C76.1641 1.83482 77.0473 2.71561 77.1261 3.22451C76.5959 3.14621 75.7127 2.26543 75.2221 1.91311V6.47361C75.7127 6.02344 76.5763 5.20138 77.1261 5.02523C77.0473 5.63197 76.1641 6.55191 75.8111 7.00209H76.5959C76.0661 7.35441 75.8111 8.09819 75.8111 8.72453C75.8111 9.58573 76.2429 10.4469 76.9492 10.7797C76.7728 10.7797 76.5959 10.7797 76.3214 10.7014L76.4194 11.8366L75.3989 11.9149L75.3009 11.0341C74.5158 10.7797 73.9075 10.9559 73.3773 11.2886C68.5887 12.2672 65.5466 14.5769 67.6075 20.1551C68.3138 22.2886 69.3347 24.6374 70.5512 26.5164V28.9239C70.4728 29.0021 70.3747 29.1783 70.1979 29.3544C68.6672 31.5075 62.7598 35.0698 59.5019 36.1267V35.5591C60.1498 34.463 60.6993 33.1516 61.1311 31.9577C62.5833 28.0822 60.4244 26.5164 57.1665 25.7726C56.7936 25.5181 56.3814 25.4203 55.8515 25.5964H55.7731L55.6751 26.2424L55.2433 26.1054L55.3217 25.3224H55.2433C55.4982 25.068 55.6751 24.6178 55.6751 24.1872C55.6751 23.7174 55.5966 23.3456 55.3217 23.0911H55.8515L55.6751 22.9149C55.4982 22.7388 55.3217 22.5626 55.1452 22.2886C55.0664 22.2103 54.9291 22.0341 54.8311 21.9363C54.9291 22.0146 55.1452 22.1124 55.2237 22.1907C55.4786 22.3669 55.6554 22.5431 55.8515 22.7192L56.0284 22.8954V19.3526L55.8515 19.5679C55.6751 19.6462 55.4982 19.8224 55.2237 20.0181C55.1452 20.1943 54.9291 20.1943 54.8311 20.2726C54.9291 20.1943 55.0468 20.0964 55.1452 19.9203C55.3217 19.7441 55.4982 19.4897 55.6751 19.3526L55.8515 19.0786H52.2403L52.4172 19.3526C52.4957 19.4701 52.731 19.7441 52.9078 19.9203C53.0843 20.0964 53.1628 20.1943 53.1628 20.2726C53.1039 20.1747 53.0059 20.1747 52.849 19.9986C52.6329 19.8224 52.3584 19.6462 52.2796 19.5484L52.005 19.3331V22.9345L52.2796 22.7584C52.3584 22.5822 52.6329 22.406 52.849 22.2299C53.0255 22.1516 53.1039 22.0537 53.1824 21.9754C53.1824 22.0537 53.1039 22.2299 52.9274 22.3277C52.7506 22.6018 52.5153 22.7584 52.4368 22.9541L52.26 23.1302H52.731C52.5153 23.3847 52.3188 23.7566 52.3188 24.2263C52.3188 24.6569 52.4957 25.1071 52.9078 25.3616H52.731L52.8294 26.1445L52.3388 26.2815L52.26 25.6356H52.1619C51.6321 25.4594 51.2003 25.5573 50.8469 25.8117C47.5891 26.5555 45.4302 28.1409 46.8828 31.9968C47.3342 33.1908 47.864 34.5021 48.5115 35.5982V36.4399C48.3742 36.4399 48.2566 36.4007 48.1582 36.4007C45.9996 35.9506 42.3884 34.6 41.7801 32.447C41.2107 30.6463 42.4864 28.2388 43.0163 27.1819C43.8603 25.3811 45.2733 22.4452 43.7818 20.5466C43.1143 19.842 42.1527 19.5875 41.2107 19.0982C40.0726 18.4914 39.3659 17.8651 37.9136 17.1605C36.7558 16.5146 34.7932 17.3366 32.7913 20.5466C32.3596 21.2512 31.4372 22.0733 31.0643 22.4452C27.5905 22.8758 25.3532 23.9719 24.8626 26.0075C24.0579 30.0395 28.0223 29.9612 27.7672 32.447C27.669 33.8954 26.1382 32.8776 25.4317 32.7993C24.0579 32.447 22.7037 33.2691 22.7037 35.0306C22.7037 35.7744 23.1943 37.4381 24.8626 38.456C24.156 37.1836 24.2345 35.5982 25.4317 35.9506C27.9438 36.7531 29.3372 36.8314 30.9858 34.6783C30.9858 35.8527 29.926 36.8313 29.455 37.849C28.4737 40.3545 30.1026 43.0165 33.3212 42.9383C31.8689 41.5682 32.1633 40.0021 32.1633 40.0021C32.6147 37.7513 34.0278 37.1054 34.4988 35.2068C35.4801 31.0377 31.5942 30.3918 32.4381 26.4772C32.5166 25.9096 32.6932 24.8527 32.968 24.3242C35.4801 23.9719 36.8539 22.9736 38.6007 22.1712C40.4063 25.6356 35.2053 30.0982 38.5219 33.6214C40.4259 35.5982 43.9387 36.7335 47.5891 36.9879C47.6675 36.9879 47.7856 37.0271 47.8836 37.0466C47.6283 37.2228 47.4911 37.5555 47.4911 38.0059C46.5294 37.6535 45.7835 38.1819 45.9212 39.2387C42.1331 39.2387 38.7968 41.4896 39.6212 45.874C39.8761 47.4987 40.5044 48.2031 41.5248 48.9861C43.1143 46.481 47.6871 46.3046 50.6704 47.9293C49.0413 47.8315 46.7059 48.2817 45.2733 48.8883C43.5853 49.6322 41.4464 50.6108 39.209 50.3562C37.6586 50.1802 36.8735 49.2212 36.5595 48.1053C35.853 48.7319 36.3829 51.7849 39.0129 53.0377C40.3275 53.6838 42.6629 53.9576 44.292 52.7639C44.9199 52.4115 47.3342 49.7496 50.2975 49.7496C46.0192 50.8846 44.8219 53.9576 48.1778 55.7974C48.0405 54.7406 47.8836 53.2923 50.0226 51.9809C51.2199 51.237 53.1039 50.7868 54.9684 51.3543C55.6162 51.6089 56.4994 52.0591 57.0293 52.2351C57.9517 52.3137 58.3834 51.7849 58.658 51.5307C60.5616 52.9399 63.3288 57.3243 63.9375 60.0841C64.6046 63.2548 64.114 65.3102 62.5245 67.1695C61.9946 67.7371 59.4431 69.7924 56.9508 67.6393C56.7151 69.6551 57.7552 71.1429 59.3843 71.6908C57.932 71.8473 56.9508 71.906 56.9312 71.906H56.6759L56.5779 72.141C56.5582 72.1801 56.3422 72.689 56.0676 73.7067C55.1648 73.3547 54.3797 72.7085 53.9087 71.8082C51.7497 74.2746 52.4172 78.2284 55.3217 79.3634C55.3021 79.9114 55.2825 80.4793 55.2825 81.0859C52.7902 83.0039 48.2762 82.5929 46.0388 79.3047C44.3116 76.7992 46.2937 74.9985 47.2753 74.0004C49.7873 71.5931 49.7873 69.264 47.9621 66.6802C45.6266 63.2157 38.4631 57.5395 35.696 53.4096C35.2446 54.1535 34.9894 54.858 34.8913 55.1321C32.3007 53.175 29.3961 49.0839 28.4344 46.0109C27.9045 46.0895 27.512 46.6374 27.0606 47.0289C23.057 41.9789 15.7562 29.8242 13.6955 25.0875C9.33855 27.1623 9.41707 33.3474 10.7516 36.8901C11.9292 40.139 13.9114 43.6035 18.0917 48.4381C16.7768 47.4596 8.59278 39.1409 6.78723 38.0841C3.76486 42.3899 5.82556 49.9842 11.5366 53.1945C9.78995 52.392 5.47229 50.7673 3.13683 51.3348C2.70506 56.1694 6.61059 59.4579 9.02457 61.2586C6.66946 60.7298 3.98075 60.3387 1.39014 61.0822C1.56677 64.3707 5.00128 68.0699 9.82921 69.7728C6.74797 69.4595 3.62748 69.8706 1.72378 71.0056C2.07704 74.431 5.96294 77.3867 10.6142 78.0911C7.49374 78.4435 4.72652 79.8136 3.27421 81.6925C4.98163 83.9238 7.49374 85.6463 11.3208 85.5681C10.4376 85.8814 9.41707 86.488 8.55353 87.3101C8.4554 87.2319 8.27877 87.1341 8.12178 87.1341C7.92553 87.2123 7.86662 87.4861 7.92553 87.6625C7.92553 87.6625 7.92553 87.6625 7.92553 87.7994C7.55264 88.054 7.35636 88.3669 7.3171 88.6802C6.96387 89.1891 6.59098 89.7761 6.3947 90.3049C6.49282 90.344 6.57133 90.4418 6.64985 90.4809C6.6302 90.7551 6.70871 91.0875 6.92461 91.4204C6.74797 91.5968 6.66946 91.851 6.57133 92.1252L4.33399 91.2248C4.21625 93.2602 4.66765 94.924 5.68818 95.9613C6.49282 96.8812 7.41526 96.7443 7.1405 97.0575L9.5741 98.545C10.0058 99.4649 10.889 99.4649 11.4974 99.2106C11.4974 99.2106 11.4974 99.2889 11.4974 99.3867C11.4974 100.346 12.1647 101.129 13.0282 101.442C12.8516 102.244 13.2049 102.753 14.3039 103.125L23.4495 125.243C23.0962 126.299 23.4495 127.219 24.2541 127.572C24.0579 127.826 23.9009 128.1 23.9009 128.629C24.2541 128.374 24.784 128.277 25.0392 129.02C25.2158 129.548 24.2541 131.251 25.7064 132.406C25.5102 133.424 26.0597 134.461 27.0999 134.911C27.0999 135.44 27.5905 137.143 27.669 137.75C27.0214 138.67 25.5102 140.079 25.7064 141.625C25.8831 142.721 26.3148 143.074 27.198 143.347C26.8447 145.325 27.9438 146.205 29.612 146.303C29.612 147.751 30.9662 148.26 31.8493 148.358C32.6932 148.985 33.0465 149.239 34.0081 149.729C33.125 150.766 33.753 152.136 35.3623 152.586C35.5389 153.193 35.9903 153.721 36.8931 153.937C37.423 154.817 38.3846 154.817 38.9537 154.563C39.307 154.387 39.9353 153.369 39.3855 152.488C39.7388 152.058 39.5623 151.216 39.307 150.688C39.8369 149.729 39.3855 148.534 38.6596 148.182C38.7576 147.654 38.4827 146.812 38.3062 146.303C39.582 145.501 41.1715 144.502 41.7405 144.15C44.8611 141.919 48.3938 139.922 52.3976 139.668C53.4181 139.57 55.3021 139.492 56.3618 139.57C57.9909 139.746 60.2283 140.235 61.5432 139.218C61.955 138.963 62.2103 138.513 62.1319 138.082C61.9554 137.065 60.8561 136.184 60.5028 135.283C60.4047 135.01 60.2479 134.599 60.071 134.227C61.2095 134.422 62.2692 134.266 62.917 133.952C63.6234 133.698 65.3309 132.426 65.2525 130.527C63.8787 131.173 60.5812 132.054 60.2283 128.727C59.8749 125.791 62.4656 123.285 66.5279 124.381C69.2951 125.086 73.3381 130.958 69.6484 133.522C67.8428 134.755 65.0756 135.93 65.429 139.139C66.6067 137.691 68.1962 136.986 70.2571 137.162C67.2346 139.394 64.8991 139.668 61.7197 141.371C58.9525 142.995 56.8916 145.677 54.7134 145.755C53.0451 145.833 52.1227 143.856 53.7518 142.33C52.1227 141.977 49.9637 143.25 49.3555 144.953C48.5703 147.282 49.179 148.946 50.6312 149.885C48.6688 150.942 47.1965 152.997 47.9032 155.933C48.5703 158.341 50.9846 158.341 50.0622 161.414C51.4164 161.061 52.2992 160.141 52.6917 158.83C52.8686 157.91 53.0451 156.951 53.4965 156.501C53.3004 158.341 54.3601 161.061 56.8916 162.294C58.5992 163.136 61.2879 163.468 63.3488 161.335C64.1924 163.743 67.0385 165.818 70.0018 165.719C71.356 165.719 72.6906 165.132 73.6914 164.545C74.3981 166.326 76.2037 168.147 77.9893 169.008C79.8341 168.147 81.6397 166.326 82.3856 164.545C83.3669 165.152 84.7211 165.719 86.036 165.719C88.8817 165.798 91.8846 163.743 92.689 161.335C94.7499 163.468 97.4387 163.136 99.1462 162.294C101.658 161.061 102.718 158.341 102.541 156.501C103.012 156.951 103.189 157.91 103.385 158.83C103.739 160.141 104.602 161.061 105.976 161.414C105.053 158.341 107.526 158.341 108.135 155.933C108.841 152.997 107.389 150.922 105.446 149.885C106.859 148.965 107.526 147.301 106.682 144.953C106.074 143.25 103.915 141.977 102.286 142.33C103.915 143.856 103.032 145.833 101.324 145.755C99.1658 145.677 97.1049 142.976 94.3181 141.371C91.1583 139.648 88.8229 139.394 85.7807 137.162C87.8416 136.986 89.4704 137.691 90.6089 139.139C90.9622 135.93 88.195 134.755 86.3894 133.522C82.739 130.958 86.7427 125.086 89.5688 124.381C93.5722 123.285 96.2217 125.791 95.8096 128.727C95.3778 132.074 92.1592 131.193 90.7069 130.527C90.7069 132.406 92.4145 133.679 93.1208 133.952C93.9451 134.344 95.4762 134.559 96.83 133.972C96.7908 134.305 96.732 134.657 96.732 134.755C96.4574 137.613 94.9264 137.867 95.4562 139.042C96.2021 139.922 101.128 139.746 102.463 140.02C104.798 140.333 106.78 141.194 109.018 141.645C111.53 142.173 114.199 142.173 116.456 143.093C117.908 143.719 119.537 144.894 120.95 145.598C123.109 145.951 122.756 146.832 124.13 146.832C125.366 146.832 125.837 145.775 127.427 145.344C128.526 145.089 129.762 145.52 130.861 145.168C131.666 144.992 132.019 144.17 132.765 143.719C133.648 143.191 134.884 143.191 135.709 142.428C136.141 142.036 136.239 141.293 136.16 140.764L136.18 140.881C137.868 139.707 139.143 137.984 139.85 136.008C140.282 135.93 140.635 135.538 140.635 135.088C140.635 135.01 140.635 134.911 140.635 134.911C141.067 134.559 141.341 134.031 141.341 133.502C141.341 132.837 141.086 132.309 140.635 131.878C140.635 131.878 140.635 131.78 140.635 131.702C140.635 131.349 140.458 131.095 140.282 130.86C139.575 127.043 136.67 123.97 132.922 123.011C132.922 122.914 132.922 122.914 132.922 122.835H132.843C132.843 122.659 132.765 122.561 132.628 122.561C132.098 122.033 131.47 121.211 131.391 120.682C132 120.858 133.02 121.817 133.55 122.209V117.159C133.02 117.551 132.019 118.51 131.391 118.686C131.47 118.059 132.431 116.963 132.922 116.532H127.78C128.251 116.963 129.232 118.059 129.311 118.686C128.702 118.51 127.682 117.551 127.172 117.159V122.209C127.702 121.817 128.702 120.858 129.311 120.682C129.232 121.308 128.251 122.404 127.78 122.835L127.957 122.914C124.13 123.794 121.048 126.965 120.342 130.86C120.087 131.075 119.91 131.349 119.91 131.702C119.91 131.78 119.91 131.878 119.91 131.878C119.459 132.309 119.203 132.837 119.203 133.502C119.203 134.011 119.459 134.559 119.91 134.911C119.91 134.911 119.91 134.99 119.91 135.088C119.91 135.655 120.264 135.93 120.695 136.008C120.872 136.497 121.088 136.986 121.323 137.417C121.323 137.378 121.323 137.378 121.382 137.319C121.068 138.767 119.302 139.648 118.909 139.648C115.769 140.098 112.295 138.767 109.135 137.593C107.742 137.065 105.838 136.458 104.916 135.088C104.347 134.09 104.092 133.463 104.386 132.582C104.739 133.013 105.309 133.502 106.113 133.933C106.192 133.502 106.192 133.013 106.368 132.661C107.173 133.855 108.449 134.461 109.979 134.383C109.057 133.6 108.625 131.526 109.057 129.725C110.333 131.878 115.18 132.309 116.063 128.453C114.258 129.294 113.1 128.374 112.766 127.396C112.236 125.849 114.003 122.111 112.413 119.234C111.138 117.081 109.685 115.769 106.309 115.241C106.565 114.83 106.663 114.478 106.741 113.871C103.621 115.006 100.932 114.125 99.6564 111.639C100.284 111.894 101.187 111.992 102.07 111.992C99.3031 109.741 99.4796 103.38 101.462 100.091C101.717 99.9151 101.815 99.739 102.07 99.6608C102.679 100.894 104.484 100.894 105.407 101.892C105.76 101.54 105.936 101.442 106.29 101.148C106.29 101.148 106.368 106.374 106.722 108.527C107.075 110.935 109.41 110.68 110.608 111.737C112.021 110.191 114.572 110.269 114.179 107.607C113.826 104.945 113.296 102.518 113.218 100.718C114.003 102.342 115.553 108.449 116.162 110.191C117.163 112.775 119.674 111.992 121.088 113.009C122.01 111.209 124.345 110.68 123.423 107.96C123.168 107.255 119.341 99.2302 118.772 97.6837C120.126 99.6608 123.835 106.726 124.974 108.703C126.249 110.758 128.585 109.76 130.253 110.269C130.567 108.782 132.824 107.059 131.175 104.475C129.115 101.05 124.267 95.0805 124.012 94.2388C124.974 95.1587 132.49 104.475 133.079 104.984C134.826 106.511 137.377 105.337 138.888 105.337C138.888 103.634 140.242 101.696 138.28 99.7195C136.474 97.997 132.333 95.0609 131.45 94.0628C134.217 95.9613 137.475 98.9756 139.418 99.4649C142.853 100.346 144.089 98.9756 145.365 98.4472C144.305 95.3351 145.718 93.8868 138.456 90.8529C144.737 93.0842 147.524 91.9879 149.761 90.2263C148.878 87.995 146.64 86.116 144.815 85.4899C148.662 85.5681 151.213 83.8652 152.882 81.6143C151.468 79.7354 148.662 78.3653 145.443 78.0129C150.193 77.3671 153.98 74.431 154.412 71.0056ZM8.73016 94.0041C8.65165 94.0041 8.65165 94.0823 8.55353 94.1801C8.02365 94.1019 8.02365 93.4757 8.12178 92.9473C8.37689 92.9473 8.55353 92.8687 8.73016 92.6927L8.80868 92.7905L8.55353 92.9668C8.65165 93.2993 8.65165 93.6517 8.73016 94.0041ZM10.4572 97.6837L9.5937 97.1749C9.94698 96.7638 10.2806 96.7638 10.6339 96.9989C10.6339 97.2531 10.6339 97.5077 10.4572 97.6837ZM13.0478 92.2034C12.9301 92.2034 12.8123 92.2034 12.6946 92.2034C12.6749 92.1838 12.6553 92.1447 12.6357 92.1252C12.7927 92.0861 12.9694 92.0861 13.1067 92.0466C13.1067 92.0861 13.0675 92.1447 13.0478 92.2034ZM62.9563 156.324C60.7973 156.324 59.2666 154.974 60.3655 153.075C60.9346 153.937 62.0731 154.328 63.0543 154.426C62.9563 155.326 62.9563 155.581 62.9563 156.324ZM95.7899 153.075C96.8892 154.974 95.3582 156.324 93.1996 156.324C93.1996 155.581 93.1996 155.326 93.0227 154.426C94.0236 154.348 95.2013 153.976 95.7899 153.075ZM62.8778 36.8901C67.8036 35.8331 72.8278 33.0733 75.0848 30.7441C76.9492 30.8616 79.3631 30.8811 81.1883 30.7637C83.4061 33.1125 88.3519 35.8135 93.2976 36.8705C90.4324 36.8705 85.4278 36.616 84.7995 35.9114C84.9764 37.7121 88.8033 39.7475 91.3152 40.2959C89.2351 40.5501 87.3118 40.2959 85.6827 39.552C86.5659 40.8243 87.5863 41.7833 89.2547 42.3508C87.5079 44.5039 83.8967 45.8935 80.3251 45.5607C81.2079 46.6179 82.837 47.2832 84.2501 47.0876C81.0314 52.196 78.6568 57.4417 78.0877 63.5095H78.0681V63.529C77.5379 57.4417 75.1633 52.196 71.9642 47.0876C73.4165 47.2636 75.0064 46.6179 75.8307 45.5607C72.2196 45.9131 68.7456 44.5039 66.94 42.3508C68.628 41.7833 69.6288 40.8243 70.512 39.552C68.9225 40.2959 66.94 40.5501 64.8795 40.2959C67.3914 39.728 71.2579 37.7121 71.4344 35.9114C70.7477 36.6356 65.7431 36.8901 62.8778 36.8901ZM17.7188 90.892C17.2674 91.0875 16.7178 91.3226 16.3057 91.4986C16.3057 91.4595 16.3057 91.4204 16.3057 91.3813C16.7375 91.2053 17.287 91.0484 17.7188 90.892ZM49.3947 113.89C49.4927 114.497 49.5716 114.849 49.8265 115.26C46.4314 115.789 44.9987 117.1 43.7622 119.253C42.035 122.15 43.8406 125.888 43.35 127.415C42.9967 128.374 41.8782 129.314 40.0726 128.472C40.9558 132.348 45.7835 131.897 47.0593 129.744C47.4911 131.545 47.0593 133.62 46.1761 134.403C47.6871 134.481 48.9629 133.874 49.748 132.68C49.9245 133.033 49.9245 133.522 50.003 133.952C50.8469 133.522 51.3768 133.033 51.7301 132.602C51.8678 133.033 52.0246 134.05 51.8282 134.872C51.1807 135.303 50.4544 135.714 49.3163 136.301C47.5107 137.182 44.2136 138.454 42.3296 138.709C40.7789 138.963 38.0901 138.082 37.4034 135.93C36.7754 133.874 35.0679 133.209 33.7137 134.481C33.3605 134.227 32.3988 134.031 31.9867 134.677C31.9867 134.677 31.5549 133.698 31.025 133.228C31.3783 132.171 31.1035 130.899 30.1419 130.468C30.0634 128.394 28.7877 128.394 28.3363 127.689C28.0812 127.258 28.0812 126.711 28.6896 126.632C28.4345 126.241 27.8849 126.163 27.8064 126.163C27.9831 125.282 27.7083 124.185 26.5307 123.833L16.0898 102.342C16.7571 101.638 16.4038 100.62 15.6581 100.267C15.6581 100.267 15.6581 100.189 15.6581 100.091C15.7169 99.9151 15.7366 99.7977 15.7562 99.6608C16.0309 99.6213 16.3842 99.5431 16.6786 99.4649C18.7393 98.9756 21.9579 95.9613 24.7448 94.0628C23.7635 95.0805 19.7206 98.0166 17.915 99.7195C16.2272 101.383 16.9337 103.047 17.2085 104.554L17.601 105.395C19.1318 105.494 21.428 106.413 23.1355 105.004C23.6654 104.475 31.2017 95.1587 32.2026 94.2583C31.8101 95.1 27.0606 101.07 24.9018 104.495C23.3121 107.079 25.6476 108.782 25.9223 110.289C27.6298 109.76 29.9652 110.778 31.2017 108.723C32.3988 106.746 36.0492 99.6804 37.4034 97.7033C36.8735 99.2498 33.0072 107.275 32.7325 107.979C31.8101 110.7 34.1455 111.228 35.0679 113.029C36.481 112.011 39.0129 112.814 39.9941 110.21C40.6024 108.468 42.1527 102.362 42.9575 100.737C42.8594 102.538 42.3296 104.965 41.9762 107.627C41.6229 110.308 44.1352 110.21 45.4501 111.757C46.7255 110.7 49.061 110.954 49.4143 108.547C49.7677 106.394 49.8461 101.168 49.8461 101.168C50.1994 101.481 50.3759 101.559 50.7685 101.912C51.6321 100.894 53.4573 100.894 54.0656 99.6804C54.3405 99.7586 54.4189 99.9346 54.6938 100.111C56.6759 103.399 56.8328 109.76 54.0656 112.011C54.8703 112.011 55.8712 111.913 56.4798 111.659C55.2629 114.145 52.5349 115.025 49.3947 113.89ZM68.9029 143.954C67.2738 146.186 65.998 147.81 64.9383 150.59C63.0347 150.413 63.4077 148.084 64.0159 146.91C65.2917 144.581 70.4728 141.547 73.0831 138.513C71.925 140.451 70.3159 142.212 68.9029 143.954ZM74.5354 148.084C73.4757 152.195 72.7298 158.262 73.0831 160.983C69.4327 159.084 71.4932 151.764 72.9063 148.613C74.8691 144.228 76.2429 138.865 76.6943 135.44C77.8324 138.043 75.3009 145.305 74.5354 148.084ZM83.0727 160.983C83.4257 158.262 82.7194 152.195 81.6201 148.084C80.8549 145.305 78.3427 138.043 79.4615 135.44C79.8933 138.865 81.2671 144.209 83.2492 148.613C84.6622 151.764 86.7228 159.084 83.0727 160.983ZM92.1395 146.89C92.7678 148.084 93.1208 150.394 91.2171 150.57C90.1575 147.791 88.8817 146.186 87.3118 143.935C85.8399 142.212 84.2304 140.431 83.0727 138.493C85.6631 141.547 90.8638 144.561 92.1395 146.89ZM91.6881 115.476C86.9192 124.714 78.1858 132.23 78.0877 132.132C77.9893 132.25 69.2559 124.714 64.4869 115.476C59.718 106.257 56.6563 91.7532 56.4994 84.8242C56.3225 77.8955 57.6964 74.9399 57.6964 74.9399C57.6964 74.9399 63.6626 74.607 68.4319 72.9632C72.4745 71.5735 76.8708 68.0308 78.1073 66.9931C79.3435 68.0308 83.7398 71.554 87.8024 72.9632C92.5517 74.627 98.5179 74.9399 98.5179 74.9399C98.5179 74.9399 99.8721 77.9151 99.6957 84.8242C99.4992 91.7532 96.4378 106.257 91.6881 115.476Z" fill="#706F6F"/>
</g>
</g>
<defs>
<clipPath id="clip0_41_621">
<rect width="158" height="173" fill="white"/>
</clipPath>
</defs>
</svg>
