<svg width="141" height="93" viewBox="0 0 141 93" fill="none" xmlns="http://www.w3.org/2000/svg">
<path d="M67.0511 1.3992C67.0165 1.08782 67.1895 0.672638 67.4664 0.430452C67.7778 0.188265 69.1273 0.015274 74.0407 0.015274L74.4214 1.50299C74.629 2.29875 75.1826 3.54428 75.6324 4.27084C76.0823 4.96281 76.9819 5.93155 77.5702 6.38133C78.193 6.8311 79.2657 7.48847 79.9231 7.83445C80.7535 8.24963 81.8954 8.45722 83.5563 8.45722C85.2518 8.45722 86.4629 8.24963 87.5356 7.76525C88.4006 7.35008 89.5771 6.55432 91.1688 4.92821L96.1861 7.79985L95.9439 9.01079C95.7709 9.66815 95.7017 10.8445 95.7017 11.6056C95.7363 12.3668 95.9439 13.6469 96.1515 14.4773C96.3937 15.446 97.1549 16.5878 98.3314 17.8679C99.6463 19.2518 100.684 19.9784 102.068 20.4974C103.453 21.0163 104.491 21.1547 105.875 21.0163C106.913 20.9125 108.02 20.7395 108.297 20.6012C108.677 20.4628 109.231 21.1547 112.034 26.1369L110.857 27.6246C110.2 28.4203 109.542 29.6659 109.335 30.3924C109.162 31.0844 108.989 32.0877 108.989 33.5755H124.906C133.66 33.5755 140.823 33.6101 140.823 33.6446C140.823 33.7138 138.989 37.3121 136.74 41.706C134.491 46.1 131.342 52.1892 126.809 60.908H117.743C108.885 60.908 108.643 60.9426 108.643 61.5999C108.643 61.9805 108.954 62.8801 109.3 63.6066C109.646 64.2986 110.373 65.3019 110.857 65.8555C111.342 66.3745 111.757 66.8934 111.757 67.0664C111.757 67.2048 111.169 68.2774 109.162 71.5642L106.394 71.3912C103.972 71.2182 103.383 71.2874 101.757 72.014C100.65 72.4983 99.3003 73.5017 98.4006 74.505C97.3279 75.6468 96.7051 76.7193 96.3245 78.1378C95.9439 79.418 95.84 80.7327 95.9439 81.8398C96.0823 82.8086 96.2553 83.8119 96.3591 84.0887C96.4744 84.4347 96.0477 84.9191 95.0788 85.5418C94.2484 86.0262 93.0027 86.7874 90.9958 87.8945L89.4387 86.6836C88.5736 86.0262 87.2933 85.3343 86.6013 85.1267C85.8747 84.9537 84.4214 84.7807 83.3833 84.7807C82.1376 84.7807 80.892 85.0575 79.7501 85.5764C78.7466 86.0608 77.3971 87.0988 76.5321 88.1021C75.7363 89.0362 74.8366 90.4202 74.1446 92.5653L70.9958 92.669C68.6774 92.7036 67.7778 92.6344 67.674 92.3231C67.6048 92.0809 67.2587 91.1121 66.9127 90.1434C66.5321 89.0708 65.7016 87.8253 64.6982 86.8566C63.5909 85.7494 62.5183 85.1267 61.065 84.6423C59.6117 84.1925 58.4006 84.0541 57.0857 84.1579C56.0477 84.2617 54.5598 84.6769 53.7985 85.0575C53.0373 85.438 52.0338 86.1646 51.5494 86.649C51.065 87.1679 50.5459 87.5485 50.3383 87.5485C50.1307 87.5485 49.058 86.995 45.8401 85.0921V81.736C45.8401 78.9682 45.7016 78.1378 45.1134 76.9961C44.6982 76.2349 43.6947 74.9894 42.8643 74.1936C42.0338 73.4325 40.6497 72.5329 39.7847 72.187C38.6428 71.7372 37.6048 71.5988 35.9785 71.7372C34.7328 71.8064 33.5217 71.9448 33.2795 72.014C33.0027 72.0832 32.2068 71.0798 31.238 69.3845C30.1999 67.5854 29.7501 66.4783 29.9577 66.2361C30.1307 66.0285 30.6843 65.2327 31.2034 64.5062C31.7224 63.7796 32.276 62.6379 32.6913 60.908L14.7674 60.735L0.822754 33.7484L33.3833 33.4025L33.2449 32.0185C33.1757 31.2574 32.8989 30.1156 32.6567 29.5275C32.3798 28.9047 31.6186 27.7976 29.7847 25.7909L31.3072 23.1268C32.7951 20.5666 32.8989 20.4628 33.7293 20.7741C34.2138 20.9471 35.2864 21.1201 36.1515 21.1201C37.0165 21.1201 38.539 20.8087 39.5425 20.4282C40.6151 20.013 41.8954 19.1826 42.7605 18.2831C43.5563 17.4527 44.5598 16.1034 44.975 15.2384C45.6324 13.9237 45.7363 13.2318 45.494 7.90365L46.7051 7.07329C47.3625 6.62352 48.539 5.89696 50.6843 4.75522L52.0684 5.82776C52.8297 6.45052 54.2138 7.17709 55.1826 7.45387C56.1169 7.73066 57.5356 7.97284 58.2968 7.97284C59.058 7.93824 60.3037 7.73066 61.065 7.45387C61.8262 7.17709 63.0373 6.51972 63.7639 6.00075C64.5252 5.44718 65.5632 4.34004 66.1169 3.47509C66.6705 2.61013 67.0857 1.67598 67.0511 1.3992Z" fill="#2B2B29"/>
<path d="M59.2312 17.4527C60.4422 16.9683 62.6568 16.2764 64.1793 15.9304C66.3938 15.3768 67.9163 15.273 71.6187 15.3768C75.4249 15.4806 76.8782 15.6882 79.4042 16.4148C81.0997 16.9338 83.6948 17.9717 85.1135 18.7675C86.5322 19.5286 88.5737 20.8087 89.6118 21.6391C90.6499 22.4349 92.4146 24.0956 93.5564 25.3065C94.6637 26.5174 96.3246 28.7663 97.2589 30.2886C98.1931 31.8109 98.8505 33.1603 98.7813 33.2987C98.6775 33.4717 86.0824 33.5754 70.7537 33.5754C52.4146 33.5754 42.899 33.4717 42.899 33.2295C42.899 33.0565 43.3142 32.1569 43.8332 31.2574C44.3177 30.3232 45.1481 29.0431 45.6326 28.3857C46.117 27.6938 47.0858 26.4828 47.7433 25.6525C48.4007 24.8567 49.9578 23.369 51.2035 22.3657C52.4492 21.3623 54.2831 20.0476 55.2865 19.4594C56.2554 18.8366 58.0547 17.9371 59.2312 17.4527Z" fill="#FEFEFE"/>
<path d="M15.1827 50.7707C13.6256 47.6915 11.5149 43.5743 10.4768 41.6368L8.57373 38.0732H70.7191C104.906 38.0732 132.864 38.177 132.83 38.3154C132.83 38.4884 130.754 42.571 123.695 56.2372L17.9855 56.4102L15.1827 50.7707Z" fill="#FEFEFE"/>
<path d="M45.5979 64.1948C44.6983 62.8801 43.937 61.5999 43.937 61.3577C43.937 61.0118 49.5772 60.908 70.9267 60.908C85.771 60.908 97.9163 61.0464 97.9509 61.1848C97.9509 61.3231 97.3627 62.2919 96.6706 63.3298C95.9786 64.4024 94.7329 66.0285 93.937 66.9626C93.1412 67.9314 91.5149 69.4883 90.2692 70.4571C89.0582 71.4258 87.0512 72.8097 85.8056 73.5363C84.5599 74.2628 82.2415 75.2662 80.6152 75.8198C78.989 76.3387 76.3592 76.9961 74.7329 77.2037C73.1066 77.4459 70.5807 77.5497 69.0236 77.4113C67.5011 77.3075 65.2519 76.9961 64.0063 76.6847C62.7606 76.4079 60.7537 75.7852 59.508 75.3008C58.2623 74.7818 56.2554 73.8131 55.0097 73.0519C53.764 72.3254 51.5495 70.5954 50.027 69.1769C48.5391 67.793 46.5322 65.5441 45.5979 64.1948Z" fill="#FEFEFE"/>
<path d="M74.3868 44.0587C74.7674 43.4359 75.5979 42.6056 76.2207 42.225H76.1861C76.9127 41.7752 77.9508 41.533 78.9543 41.533C79.8885 41.533 81.1342 41.7752 81.7224 42.052C82.3453 42.3288 83.1411 43.0207 83.4525 43.6089C83.7986 44.1625 84.0408 44.716 83.9716 44.7852C83.937 44.8544 83.3487 45.062 82.6913 45.2696C81.6186 45.5464 81.3764 45.5118 80.6844 44.7852C80.2691 44.3355 79.6117 43.9549 79.2311 43.9549C78.8505 43.9549 78.2276 44.2663 77.847 44.6469C77.328 45.1658 77.155 45.7886 77.155 47.1725C77.155 48.1413 77.328 49.2484 77.5702 49.5944C77.847 49.975 78.4352 50.2517 79.0581 50.2517C79.7847 50.2517 80.3037 49.975 80.7882 49.3176C81.3764 48.5564 81.6532 48.418 82.5875 48.591C83.2103 48.6948 83.7986 49.0408 83.9024 49.3176C84.0062 49.5944 83.7986 50.3209 83.4525 50.8745C83.1411 51.4627 82.3453 52.1546 81.7224 52.4314C81.1342 52.7082 79.9577 52.9504 79.1273 52.9504C78.3314 52.9504 77.1204 52.6736 76.4629 52.3276C75.8055 52.0163 74.9058 51.1859 74.456 50.5285C73.8678 49.5944 73.6948 48.8332 73.6948 47.2417C73.6948 45.7886 73.9024 44.8198 74.3868 44.0587Z" fill="#727271"/>
<path d="M86.3937 44.3701C86.9127 43.5397 87.8124 42.571 88.4006 42.1904C89.2311 41.6368 89.9231 41.4984 91.6186 41.6022C93.1065 41.6714 94.0408 41.9136 94.7328 42.4326C95.2518 42.8132 95.9785 43.6781 96.2899 44.3355C96.6359 44.9928 96.9128 46.273 96.9128 47.2417C96.9128 48.2105 96.6359 49.4906 96.2899 50.148C95.9785 50.8053 95.2518 51.6703 94.7328 52.0508C94.11 52.5006 93.0373 52.812 91.9647 52.9158C90.6498 53.0196 89.7155 52.8466 88.5044 52.293C87.3972 51.8087 86.7051 51.2205 86.3245 50.4593C86.0131 49.8366 85.7017 48.5218 85.5979 47.5877C85.4595 46.1346 85.5979 45.6156 86.3937 44.3701Z" fill="#727271"/>
<path d="M98.5736 47.3109C98.539 44.3701 98.6429 41.879 98.8159 41.7752C98.9889 41.6368 99.7847 41.533 102.172 41.533L102.207 43.5051C102.276 45.1312 102.38 45.5118 102.864 45.581C103.245 45.6502 103.556 45.408 103.695 44.9236C103.833 44.4739 104.248 43.7473 104.664 43.3321C105.044 42.8823 105.805 42.2942 106.325 42.0174C106.878 41.7406 108.055 41.533 109.023 41.533C109.958 41.533 111.273 41.7752 111.861 42.0866C112.484 42.398 113.314 43.0553 113.695 43.5397C114.248 44.3009 114.387 45.0274 114.387 47.3109C114.387 49.975 114.318 50.1826 113.349 51.2205C112.795 51.8087 111.757 52.4314 111.1 52.6736C110.442 52.8812 109.093 52.9504 108.158 52.8466C107.19 52.7428 106.048 52.3622 105.563 52.0163C105.079 51.6357 104.387 50.7015 104.006 49.9058C103.591 49.0408 103.072 48.4872 102.691 48.4526C102.207 48.4526 102.103 48.764 102.103 52.6044H98.6429L98.5736 47.3109Z" fill="#727271"/>
<path d="M117.051 42.7094C117.501 42.2942 118.089 41.879 118.366 41.7752C118.643 41.6714 119.646 41.5676 120.615 41.5676C121.792 41.533 122.726 41.7752 123.453 42.225C124.11 42.6402 124.698 43.3321 124.837 43.8857C124.975 44.4739 124.837 45.1658 124.491 45.7886C123.937 46.6881 123.937 46.7573 124.664 47.3801C125.217 47.8299 125.459 48.418 125.459 49.2484C125.459 49.975 125.183 50.7707 124.767 51.2205C124.387 51.6357 123.66 52.1892 123.107 52.466C122.587 52.7428 121.549 52.9504 120.788 52.9504C120.027 52.9504 118.85 52.7082 118.193 52.4314C117.536 52.1546 116.74 51.4973 116.463 50.9783C116.186 50.4247 116.048 49.9058 116.186 49.7674C116.29 49.5944 116.947 49.4906 117.639 49.4906C118.366 49.456 119.093 49.6982 119.404 50.0096C119.681 50.3209 120.304 50.5285 120.754 50.4593C121.203 50.3901 121.757 50.0788 121.965 49.7328C122.276 49.2138 122.172 48.9716 121.48 48.418C120.996 48.0375 120.338 47.7261 119.992 47.7607C119.6 47.7607 119.404 47.507 119.404 46.9995C119.404 46.446 119.716 46.0654 120.442 45.7886C121.203 45.4426 121.446 45.1312 121.376 44.5777C121.342 44.0933 121.03 43.7473 120.615 43.6781C120.235 43.6089 119.681 43.8165 119.404 44.1279C119.023 44.5431 118.539 44.6469 117.57 44.5085C116.878 44.4047 116.29 44.0933 116.29 43.8857C116.29 43.6435 116.636 43.0899 117.051 42.7094Z" fill="#727271"/>
<path d="M20.6844 50.3555C20.6152 51.4973 20.5806 50.7361 20.5806 48.6256C20.5806 46.5152 20.6152 45.6156 20.6844 46.5497C20.7536 47.4839 20.7536 49.2138 20.6844 50.3555Z" fill="#727271"/>
<path d="M33.0719 45.927C32.3107 45.9962 31.1342 45.9962 30.4768 45.927C29.8193 45.8578 30.4422 45.7886 31.8608 45.7886C33.2795 45.7886 33.8332 45.8578 33.0719 45.927Z" fill="#727271"/>
<path d="M63.5907 19.2172L65.2862 18.8366C66.1858 18.629 67.2239 18.4214 67.5699 18.3868C67.9851 18.3522 68.2619 18.802 68.608 19.9438C68.8156 20.8433 69.2654 21.6737 69.5422 21.8121C69.819 21.9504 70.6149 22.0196 71.2723 21.9504C71.9298 21.8813 72.5872 21.6391 72.7256 21.3969C72.864 21.1547 73.0716 20.3589 73.1754 19.667C73.3484 18.3868 73.383 18.3522 74.6633 18.5598C75.3554 18.6636 76.4626 18.8712 77.0855 19.0788C78.0543 19.3556 78.1581 19.494 77.9851 20.3589C77.8813 20.8779 77.7083 21.5007 77.6391 21.7429C77.5699 21.9504 77.7775 22.4694 78.1235 22.85C78.435 23.2306 79.2308 23.715 79.8536 23.8879C80.8917 24.1993 81.0301 24.1647 81.999 22.85C82.9332 21.6045 83.1062 21.5007 83.8329 21.8813C84.2481 22.0888 85.1132 22.677 86.8433 24.0609L86.1512 25.2027C85.7706 25.7908 85.4592 26.5866 85.4592 26.9326C85.4592 27.244 85.909 27.9705 87.5699 29.5966L89.0232 28.8009C89.819 28.3857 90.5457 28.0397 90.6495 28.0397C90.7533 28.0397 91.3069 28.6971 91.9298 29.4928C92.5526 30.3232 92.9678 31.0844 92.8294 31.2573C92.7256 31.3957 90.3035 31.4995 87.4661 31.4995C84.6633 31.4995 82.345 31.3957 82.345 31.2573C82.345 31.0844 81.5145 30.5308 80.5111 29.9426C79.5422 29.3544 77.7083 28.5933 76.4626 28.1781C75.0093 27.6937 73.1754 27.417 71.2723 27.3824C69.5422 27.3478 67.5007 27.5553 66.255 27.8667C65.1132 28.1781 63.1754 28.9047 61.999 29.5274C60.7879 30.1502 59.6114 30.8422 59.4038 31.0844C59.0924 31.3957 57.6391 31.5341 53.9021 31.4995C49.1962 31.4995 48.781 31.4649 48.9886 30.9114C49.0924 30.5654 49.5076 29.7696 49.9228 29.1815C50.3381 28.5587 50.8571 28.0397 51.0301 28.0397C51.2377 28.0397 51.8606 28.3511 52.4142 28.7317C53.0024 29.1123 53.6945 29.4236 53.9713 29.4236C54.2481 29.4236 54.9055 28.9739 55.4592 28.3857C55.9782 27.8321 56.3934 27.1748 56.3934 27.0018C56.3934 26.8288 56.0128 26.0676 54.6979 24.0609L55.9782 23.0922C56.6702 22.5386 57.5699 21.9158 57.9505 21.7429C58.5388 21.4315 58.781 21.5353 59.4038 22.3656C59.8536 22.9192 60.1997 23.4728 60.1997 23.6458C60.1997 23.7841 60.5111 23.9571 60.8917 24.0609C61.2723 24.1647 62.1374 23.9225 62.7948 23.542C64.0059 22.85 64.0059 22.8154 63.5907 19.2172Z" fill="#2B2B29"/>
<path d="M13.8329 44.3008L13.7983 42.9515L13.7637 41.6022L18.3657 41.533C20.9263 41.533 23.2792 41.5676 23.6253 41.6714C24.0405 41.8098 24.2135 42.225 24.2135 44.3008H22.4834C20.9609 44.3008 20.7187 44.4046 20.5457 45.062C20.4419 45.5118 20.4073 47.3801 20.5803 52.6044H17.2931V44.3008H13.8329Z" fill="#2B2B29"/>
<path d="M25.5284 47.2763C25.4592 42.8823 25.563 41.9136 25.9436 41.7406C26.2204 41.6714 28.2619 41.6022 34.4211 41.706L34.5941 43.9549H29.0578L29.127 44.9236C29.2308 45.8232 29.2654 45.8578 34.2481 46.0307V48.1066H29.0578V50.1825L34.7671 50.3555L34.9401 52.6044H25.5976L25.5284 47.2763Z" fill="#2B2B29"/>
<path d="M37.9159 44.5776C37.0509 43.2629 36.428 42.052 36.5318 41.879C36.6356 41.6714 37.4315 41.533 38.2619 41.6022C39.646 41.706 39.8536 41.8098 40.5457 43.1937C40.9955 43.9895 41.4799 44.6122 41.6875 44.543C41.8606 44.4738 42.345 43.8165 42.7256 43.0899C43.383 41.8098 43.5561 41.706 45.0786 41.6368C45.9782 41.5676 46.7741 41.6368 46.8433 41.8098C46.9471 41.9482 46.3242 43.1937 43.9367 47.0687L45.0439 48.9024C45.6668 49.8711 46.428 51.0821 46.7741 51.5664C47.1201 52.0508 47.4315 52.5006 47.3969 52.6044C47.3969 52.7082 46.5664 52.7428 45.5976 52.7428C43.8329 52.7082 43.7291 52.639 42.7948 51.1859C42.2758 50.3555 41.7221 49.629 41.5837 49.5598C41.4453 49.5252 40.9609 50.1825 40.4765 51.0475C39.6114 52.6044 39.5768 52.6044 37.7775 52.6044C36.8087 52.6044 35.9782 52.5352 35.9782 52.4314C35.9782 52.3276 36.7741 51.0475 39.5076 46.8957L37.9159 44.5776Z" fill="#2B2B29"/>
<path d="M48.781 52.6044L48.7464 47.1033L48.6772 41.6368L50.1997 41.6714C51.6875 41.706 51.7221 41.7406 51.826 42.9169C51.8606 43.5742 51.999 44.4737 52.0682 44.9235L52.0682 44.9236C52.2066 45.581 52.4488 45.6848 55.7014 45.6848V44.1278C55.7014 43.2629 55.7706 42.3287 55.8744 42.052C55.9782 41.706 56.5318 41.533 59.1616 41.533V52.6044L57.6045 52.7082C56.6356 52.7428 55.9782 52.6044 55.8744 52.3622C55.7706 52.12 55.7014 51.1513 55.7014 48.4526L52.0682 48.6256L51.8606 52.7774L48.781 52.6044Z" fill="#2B2B29"/>
<path d="M61.9644 43.5397C62.2412 43.0899 63.037 42.4671 63.6945 42.1212C64.3865 41.7752 65.6668 41.4984 66.7048 41.4984C67.7083 41.4984 68.954 41.7406 69.473 41.9828C69.992 42.2596 70.8225 42.9169 71.3069 43.4013C72.0682 44.2316 72.172 44.6122 72.172 50.2171L70.8571 51.3935C69.992 52.1892 69.0924 52.639 68.0889 52.812C67.2931 52.9158 66.0474 52.9158 65.3208 52.812C64.5941 52.6736 63.5907 52.2238 63.0716 51.774C62.5526 51.3243 61.9298 50.5285 61.6529 49.9749C61.3761 49.3522 61.2377 48.072 61.3069 46.6535C61.3761 45.3734 61.6529 43.9895 61.9644 43.5397Z" fill="#2B2B29"/>
<path d="M50.6149 64.2294C50.3727 64.0218 50.1651 63.6412 50.1651 63.399C50.1997 63.1222 50.6495 62.9492 51.4107 62.9492C52.1374 62.9492 52.6218 63.1222 52.6218 63.399C52.6218 63.6412 52.2758 64.0218 51.826 64.2294C51.2377 64.5407 50.9609 64.5407 50.6149 64.2294Z" fill="#2B2B29"/>
<path d="M55.6322 64.437C55.1132 63.918 54.7671 63.3644 54.9055 63.226C55.0439 63.0876 56.5664 62.9492 58.2965 62.9838C60.8225 62.9838 61.826 63.1568 63.5215 63.8142C64.6633 64.264 66.7395 64.8521 68.1927 65.0943C70.2343 65.4403 71.3415 65.4403 73.5561 65.0943C75.0786 64.8867 77.1547 64.2986 78.2273 63.8142C79.8536 63.0876 80.6149 62.9492 83.4869 62.9492C85.9436 62.9492 86.8779 63.0876 86.8779 63.399C86.8779 63.6412 86.5664 64.091 86.1858 64.437C85.8052 64.7829 85.4938 65.3019 85.4938 65.6479C85.4938 65.9939 85.8398 66.755 86.255 67.4124C86.7741 68.139 86.9125 68.6579 86.7048 68.8309C86.4972 69.0039 85.6322 69.5921 83.2446 71.2528L80.8225 68.4503L79.3346 69.0731C78.5042 69.4191 77.7775 69.8689 77.7083 70.0419C77.6391 70.2494 77.7083 71.0106 77.8813 71.7718C78.0543 72.5329 78.0889 73.2595 77.9851 73.3287C77.8813 73.4325 76.9125 73.6747 75.8398 73.9168C74.7671 74.1244 73.7637 74.2282 73.6253 74.159C73.4869 74.0898 73.21 73.2595 72.691 70.5608H71.1339C69.8882 70.5608 69.4384 70.7338 69.0578 71.3566C68.7464 71.7718 68.5042 72.4291 68.5042 72.8097C68.5042 73.1903 68.4003 73.7093 68.2619 73.9168C68.0543 74.2282 67.5007 74.2282 63.8675 73.4671L64.0751 69.6959L62.6564 69.1077C61.8606 68.7617 61.0301 68.6233 60.6841 68.7617C60.4073 68.9001 59.8536 69.5229 59.473 70.1456C59.0924 70.803 58.6772 71.1836 58.4003 71.0452C58.1581 70.9414 57.2239 70.3532 54.7325 68.6579L56.601 65.4057L55.6322 64.437Z" fill="#2B2B29"/>
<path d="M89.8882 64.2986C89.3692 64.0218 88.9194 63.6412 88.9194 63.399C88.9194 63.1222 89.4384 62.9492 90.3381 62.9492C91.0993 62.9492 91.7222 63.0876 91.7222 63.226C91.7222 63.3644 91.5145 63.7796 91.2723 64.1256C90.8917 64.6791 90.7187 64.6791 89.8882 64.2986Z" fill="#2B2B29"/>
<path d="M64.6292 46.2037C64.8714 45.4425 65.3904 44.6468 65.8056 44.4046C66.2555 44.1624 66.9129 44.0586 67.2935 44.1624C67.6741 44.3008 68.1932 44.5776 68.4354 44.7851C68.6776 44.9927 68.9544 45.6155 69.0582 46.2037C69.162 46.7572 69.1274 47.7952 68.9544 48.4526C68.7468 49.2598 68.3316 49.8019 67.7087 50.0787C67.1205 50.3554 66.4977 50.4246 66.0132 50.2171C65.5634 50.0787 65.0098 49.4213 64.733 48.7639C64.3523 47.8298 64.3177 47.3108 64.6292 46.2037Z" fill="#FEFEFE"/>
<path d="M88.9198 47.1378C88.9544 46.0307 89.162 45.4425 89.8195 44.7851C90.5115 44.0932 90.9267 43.9548 91.6534 44.1278C92.1378 44.2662 92.726 44.6122 92.9683 44.9581C93.2105 45.2695 93.4181 46.2729 93.4181 47.2416C93.4181 48.1758 93.2451 49.2483 93.0029 49.5943C92.726 49.9749 92.1032 50.2171 91.342 50.2517C90.4423 50.2517 89.9579 50.0441 89.508 49.4559C89.1274 48.9369 88.8852 48.072 88.9198 47.1378Z" fill="#FEFEFE"/>
<path d="M106.705 46.2729C106.844 45.4771 107.224 44.7851 107.709 44.4738C108.124 44.197 108.712 43.9548 108.989 43.9202C109.266 43.9202 109.889 44.2316 110.373 44.6122C111.1 45.1657 111.238 45.5463 111.238 47.1724C111.238 48.3488 111.031 49.2483 110.719 49.6289C110.408 49.9749 109.716 50.2171 108.92 50.1825C107.743 50.1825 107.536 50.0441 107.051 48.8677C106.705 48.072 106.601 47.1032 106.705 46.2729Z" fill="#FEFEFE"/>
</svg>
