<svg width="101" height="101" viewBox="0 0 101 101" fill="none" xmlns="http://www.w3.org/2000/svg">
<path fill-rule="evenodd" clip-rule="evenodd" d="M88.4734 0.420576C88.1529 0.460645 80.5598 1.40226 71.6445 2.50416C66.261 3.15744 60.5269 3.86185 56.136 4.40125C53.2553 4.75513 50.9529 5.03798 49.7068 5.18877C47.4228 5.46519 40.8075 6.28036 33.2439 7.21239C30.3915 7.56389 27.4041 7.93201 24.4634 8.29411C17.022 9.2104 10.0713 10.069 6.12454 10.5565C4.37585 10.7725 3.21689 10.9156 2.86627 10.9587C1.4017 11.131 0.986773 11.1798 0.869222 11.3928C0.822754 11.477 0.822754 11.5868 0.822754 11.74C0.822754 12.0606 1.26351 15.9272 1.82448 20.3548C2.06616 22.342 2.47183 25.6411 2.94497 29.4889C3.5308 34.253 4.22007 39.8585 4.82964 44.857C5.93154 53.8925 7.55433 67.1553 8.43584 74.3076C9.31736 81.4799 10.3191 89.5939 10.6597 92.3386C10.9802 95.0833 11.3408 98.0284 11.461 98.8498C11.5612 99.6712 11.6814 100.372 11.7015 100.392C11.7215 100.433 17.6517 99.7313 24.8641 98.8498C27.7385 98.4985 31.0997 98.0899 34.4418 97.6836C39.4857 97.0705 44.486 96.4627 47.7034 96.065C49.4069 95.8545 51.344 95.6134 53.3233 95.3672C57.5592 94.8401 61.9881 94.2891 64.7326 93.9614C67.4991 93.6173 72.9606 92.9517 78.6613 92.257C81.2585 91.9404 83.9055 91.6178 86.3698 91.3168C94.2434 90.3552 100.755 89.5137 100.815 89.4536C100.875 89.3935 100.594 86.5486 100.154 83.1228C99.8205 80.4113 98.8601 72.5671 97.8184 64.0598C97.544 61.8181 97.2638 59.5303 96.9881 57.2783C95.7988 47.7109 94.5309 37.3886 93.9507 32.6652C93.8761 32.0573 93.8128 31.5422 93.7625 31.1334C93.5277 29.1315 93.1118 25.7187 92.6577 21.9927C92.2984 19.044 91.9151 15.8992 91.5788 13.1024C91.27 10.6003 90.98 8.22964 90.7384 6.25508C90.3687 3.23354 90.1125 1.13953 90.0762 0.921437C89.9961 0.400542 89.8959 0.280335 89.5353 0.300369C89.2748 0.320404 88.794 0.380507 88.4734 0.420576ZM74.3492 16.3479C72.6626 16.5662 59.2245 18.219 44.4085 20.0413L43.977 20.0943C28.9712 21.9175 16.6299 23.4601 16.5698 23.5202C16.5097 23.5803 17.4113 31.3737 18.5532 40.85C19.0061 44.5433 19.5351 48.8786 20.0654 53.2251C20.8958 60.031 21.7295 66.8642 22.2797 71.3024C23.1812 78.5749 23.9826 84.5852 24.0427 84.6453C24.1028 84.7254 29.4921 84.1244 35.9832 83.303C42.4744 82.5016 56.1579 80.8187 66.3554 79.5766C76.573 78.3345 84.9875 77.2726 85.0676 77.2125C85.1277 77.1524 84.6869 72.8851 84.0659 67.6962C83.9859 67.0279 83.9059 66.3592 83.8269 65.6988C83.2925 61.2316 82.8031 57.1409 82.6635 56.0762C82.4832 54.8541 81.8621 49.7653 81.2611 44.7567C80.992 42.587 80.6478 39.7744 80.2902 36.8531C79.8224 33.0308 79.3318 29.0224 78.9571 26.0245C78.296 20.7354 77.755 16.2878 77.755 16.1676C77.755 16.0273 77.6949 15.9272 77.6148 15.9272C77.5574 15.9386 77.0534 16.0027 76.3134 16.0967C75.761 16.1668 75.077 16.2537 74.3492 16.3479Z" fill="#ED3428"/>
<path d="M26.6871 46.1592C26.7071 44.897 26.7672 43.735 26.8273 43.5948C26.8874 43.3944 28.39 43.3543 40.7913 43.4545L40.8314 46.0189C40.8915 48.2227 40.8514 48.6034 40.5309 48.8838C40.2504 49.1443 39.8497 49.2044 36.7844 49.0642L36.6842 57.3784L30.9744 57.2783L30.8743 49.1643L29.1112 49.1243C27.8691 49.0842 27.228 48.964 26.9876 48.7636C26.667 48.5032 26.627 48.1426 26.6871 46.1592Z" fill="#ED3428"/>
<path d="M42.0935 46.4196C42.0935 45.2175 42.1537 44.0555 42.2138 43.7951L42.334 43.3543L56.2178 43.4545L56.2779 45.8586C56.338 47.6217 56.2779 48.3629 56.0776 48.6234C55.8772 48.9039 55.3964 49.0041 52.1108 49.2645V57.3784L46.401 57.2783L46.3409 53.2313C46.3008 49.5249 46.2607 49.1643 45.9402 49.1443C45.7599 49.1243 44.9785 49.1243 44.1972 49.1643C43.1353 49.2044 42.7146 49.1443 42.4341 48.8838C42.1537 48.6234 42.0935 48.2027 42.0935 46.4196Z" fill="#ED3428"/>
<path d="M57.5802 50.8272C57.5601 47.2811 57.6202 44.1557 57.7204 43.8552L57.9208 43.3343H60.5252C62.3884 43.3343 63.1698 43.4144 63.27 43.5948C63.3501 43.735 63.4302 44.5163 63.4503 45.3377C63.4503 46.1792 63.4703 47.1809 63.4903 47.6016C63.5104 48.0023 63.5905 48.3629 63.6706 48.3629C63.7708 48.3629 64.2717 47.8421 64.8126 47.201C65.3335 46.5598 66.3352 45.4379 68.2385 43.3343H71.2837C73.1269 43.3343 74.3891 43.4144 74.4492 43.5346C74.5093 43.6549 73.5877 44.8369 72.3856 46.1792C71.2036 47.5015 70.0015 48.9039 69.681 49.2845C69.3805 49.6452 69.1801 50.0659 69.2202 50.2061C69.2402 50.3464 70.3621 51.7688 71.6844 53.3515C72.9867 54.9543 74.1687 56.4368 74.3089 56.6572C74.4291 56.8776 74.4892 57.138 74.4091 57.2182C74.329 57.2983 72.9065 57.3584 68.1383 57.3584L67.0164 55.9159C66.4154 55.1146 65.614 54.1128 65.2734 53.6721C64.9128 53.2514 64.452 52.6503 64.2316 52.3298C64.0112 52.0092 63.7708 51.7688 63.6706 51.7688C63.5905 51.7488 63.5104 51.9491 63.5104 52.2096C63.4903 52.45 63.4903 53.612 63.4903 54.7539C63.4903 55.9159 63.4503 56.9778 63.3701 57.118C63.27 57.2983 62.5086 57.3584 57.6202 57.2582L57.5802 50.8272Z" fill="#ED3428"/>
</svg>
