<svg width="97" height="107" viewBox="0 0 97 107" fill="none" xmlns="http://www.w3.org/2000/svg">
<path fill-rule="evenodd" clip-rule="evenodd" d="M66.9821 4.99161C77.4198 5.4735 78.2227 5.79475 83.5219 11.4167C86.5729 14.7899 89.6239 20.2512 90.5874 23.4637C91.3903 26.8369 92.1932 31.8164 92.1932 34.3864C92.1932 36.9564 91.0691 43.5421 89.6239 48.8428C88.3393 54.1435 85.2883 62.0143 82.8796 66.3512C80.4708 70.6881 75.0111 78.2376 62.4858 91.7303L59.1136 84.0202C57.3473 79.6833 53.6539 72.9369 50.924 68.9212C48.1942 64.9056 43.2162 58.9624 39.844 55.5892C36.3112 52.216 29.4062 47.5578 24.4283 45.1484C19.4503 42.739 15.2752 40.169 15.2752 39.2052C15.2752 38.2414 18.005 33.9045 21.5378 29.5676C24.91 25.07 29.888 19.9299 32.6179 17.8418C35.3477 15.9143 37.5959 14.9505 37.5959 15.9143C37.5959 16.878 36.4718 22.6606 32.7784 40.0083L42.4133 50.4491C47.7124 56.2317 54.6174 65.7087 57.6684 71.8125C60.88 77.7557 62.9676 81.1289 62.6464 79.362C62.1647 77.5951 61.0406 71.8125 58.1502 56.8742L67.1427 42.4178C71.9601 34.3864 75.814 27.8007 75.6534 27.6401C75.4929 27.3188 69.8725 29.0857 63.2887 31.1739C56.7049 33.4226 50.7635 35.1895 50.1211 35.1895C49.3182 35.1895 47.0701 30.0495 44.822 23.9456C42.5738 17.6812 40.968 12.3805 41.2892 12.0592C41.4498 11.5773 44.822 9.81043 48.8365 7.8829C54.4568 5.31287 58.6319 4.67036 66.9821 4.99161ZM10.9395 46.5941L15.9175 50.4491C18.6474 52.6979 21.5378 55.4286 22.3407 56.8742C23.4648 58.6411 22.983 65.3875 20.8955 78.3983C19.2897 88.839 17.6839 97.8342 17.3627 98.4767C17.0416 99.1192 15.9175 99.2798 14.7934 98.9585C13.6694 98.4767 11.1001 95.4247 9.17311 92.0516C7.24614 88.6784 5.31918 83.2171 4.67686 79.5226C4.03453 75.9888 4.51628 68.7606 5.64034 63.4599C6.60382 58.3199 8.37021 52.216 9.17311 50.2885L10.9395 46.5941ZM38.3988 75.6676L44.0191 81.1289C47.2307 84.1808 51.0846 88.839 55.4203 96.3885L48.5153 99.4404C44.822 101.207 38.8805 103.135 35.3477 103.617C31.815 104.259 27.3187 104.099 25.3917 103.295C22.0195 102.01 22.1801 101.689 30.2092 88.839L38.3988 75.6676Z" fill="#217D3A"/>
<path d="M82.5582 7.56165C80.3101 5.79475 75.0109 3.54597 70.5147 2.26095L62.4857 0.0121703H68.9089C72.6022 -0.148457 78.3831 1.29719 82.5582 3.38534C86.8939 5.63412 90.9084 9.32855 92.8354 12.7017C94.6018 15.7536 96.3681 22.3394 96.6893 27.1582C97.171 33.4226 96.3681 39.5265 93.9594 48.0397C92.0325 54.6254 90.1055 59.7655 89.7843 59.2836C89.3026 58.8017 90.1055 55.2679 91.3901 51.2523C92.8354 47.2366 93.7989 39.6871 93.7989 34.3864C93.7989 27.6401 92.8354 22.6606 90.2661 17.6812C88.1785 13.6655 84.8064 9.16792 82.5582 7.56165Z" fill="#212E30"/>
<path d="M22.18 56.553C21.2165 54.9467 15.9173 50.1279 10.6182 45.9516L0.822754 38.0808L7.56713 39.2052C11.2605 39.6871 18.6472 42.4178 23.9463 44.8272C29.2455 47.3972 36.4716 52.216 39.8438 55.5892C43.3766 58.9624 48.9969 66.03 52.3691 71.3307C55.7413 76.6314 60.077 85.7871 61.8433 91.4091C63.6097 97.1916 64.8944 102.492 64.8944 103.135C64.8944 103.777 64.252 104.259 63.2886 104.259C62.4857 104.259 58.9529 100.565 55.7413 95.9066C52.5297 91.2484 47.3911 84.8233 38.3986 75.507L27.9609 91.5697C22.18 100.244 17.202 107.151 16.7202 106.669C16.2385 106.187 17.6837 95.2641 19.9318 82.5746C22.9829 64.9056 23.4646 58.6411 22.18 56.553Z" fill="#212E30"/>
<path d="M18.9684 28.9253C21.6983 25.0702 27.4792 19.127 31.8149 15.7538C36.1505 12.22 40.4862 9.48936 41.4497 9.48936C42.4132 9.48936 40.3256 11.4169 36.7929 13.9869C33.2601 16.557 27.8004 21.3758 24.7493 24.9096C21.6983 28.2828 17.5232 33.4228 15.4357 35.9929C13.3481 38.5629 12.2241 39.6873 12.8664 38.4023C13.5087 37.1172 16.2386 32.7803 18.9684 28.9253Z" fill="#F2F6F3" fill-opacity="0.9"/>
<path d="M35.6688 29.7284C36.7929 24.4277 38.2381 18.4845 38.7198 16.7176C39.5227 14.1476 40.1651 14.7901 42.7343 20.7333C44.3401 24.749 46.5883 29.889 49.6393 36.6354L61.6828 32.7803C68.2666 30.6922 73.887 29.0859 74.0475 29.2465C74.2081 29.4071 70.3542 35.6716 65.6973 43.2211C60.8799 50.7706 57.1866 57.9988 57.6683 59.2838C57.9895 60.5688 58.7924 64.5845 60.3982 74.5434L55.5808 66.512C53.0115 62.1751 46.9094 54.3044 33.5813 39.6873L35.6688 29.7284Z" fill="#F2F6F3" fill-opacity="0.9"/>
<path d="M92.8354 38.7235C92.6749 39.8479 92.3537 39.366 92.3537 37.5991C92.1931 35.8322 92.3537 34.8685 92.6749 35.511C92.996 36.1535 92.996 37.5991 92.8354 38.7235Z" fill="#F2F6F3" fill-opacity="0.9"/>
<path d="M2.26807 74.5434C2.26807 69.2427 3.39213 60.7295 4.83735 55.75C6.28258 50.6099 7.88838 46.4336 8.5307 46.4336C9.01245 46.4336 8.20954 50.2887 6.76432 54.9469C5.15851 59.4444 4.03445 67.4758 3.87387 72.6159C3.87387 77.5953 4.99793 84.5023 6.44316 87.8755C7.7278 91.088 10.7788 95.9068 17.5232 103.135L13.027 100.083C10.4577 98.3162 7.08548 94.1399 5.3191 90.6061C3.39213 86.4298 2.26807 80.6472 2.26807 74.5434Z" fill="#F2F6F3" fill-opacity="0.9"/>
<path d="M63.7704 92.5336C63.4492 92.373 66.3397 88.8392 70.033 84.8235C73.7264 80.8079 77.0986 77.7559 77.5803 78.0772C78.062 78.3985 75.3322 81.7716 71.3177 85.7873C67.3032 89.803 63.931 92.8549 63.7704 92.5336Z" fill="#F2F6F3" fill-opacity="0.9"/>
<path d="M29.085 103.938C34.063 104.259 39.6833 103.456 44.8219 101.368C49.1576 99.6012 53.6538 98.1556 54.4567 97.995C55.2596 97.995 53.1721 99.4406 49.6393 101.368C45.946 103.296 38.5593 105.223 32.2966 105.705C25.5522 106.348 21.5377 106.026 21.5377 105.063C21.5377 104.099 24.7493 103.617 29.085 103.938Z" fill="#F2F6F3" fill-opacity="0.9"/>
</svg>
