<svg width="60" height="60" viewBox="0 0 60 60" fill="none" xmlns="http://www.w3.org/2000/svg">
<rect width="60" height="60" rx="30" fill="#FED88E"/>
<rect x="3" y="3" width="54" height="54" rx="27" fill="#EBB54A"/>
<path d="M40.7861 18.9617H38.1131V17.4457C38.1131 17.1372 37.863 16.8871 37.5545 16.8871H33.5133C33.1686 15.2547 31.716 14.041 30.0005 14.041C28.285 14.041 26.8325 15.2547 26.4877 16.8871H22.4465C22.138 16.8871 21.888 17.1371 21.888 17.4456V18.9617H19.2148C18.9063 18.9617 18.6562 19.2117 18.6562 19.5202V45.4005C18.6562 45.709 18.9063 45.959 19.2148 45.959H40.7861C41.0946 45.959 41.3447 45.709 41.3447 45.4005V19.5203C41.3447 19.2118 41.0946 18.9617 40.7861 18.9617ZM23.0051 18.0042H26.9745C27.2699 18.0042 27.5142 17.7743 27.5321 17.4795C27.6109 16.1778 28.6952 15.1582 30.0005 15.1582C31.3059 15.1582 32.3901 16.1778 32.4689 17.4795C32.4869 17.7743 32.7311 18.0042 33.0265 18.0042H36.9959V21.4088H23.0051V18.0042ZM40.2276 44.8419H19.7734V20.0788H21.888V21.9673C21.888 22.2758 22.138 22.5259 22.4465 22.5259H37.5545C37.863 22.5259 38.1131 22.2758 38.1131 21.9673V20.0788H40.2276V44.8419Z" fill="white"/>
<path d="M25.7988 26.1601L23.5007 28.4583L22.4731 27.4306C22.2549 27.2126 21.9013 27.2126 21.6831 27.4306C21.465 27.6488 21.465 28.0024 21.6831 28.2206L23.1057 29.6432C23.2148 29.7522 23.3577 29.8068 23.5007 29.8068C23.6437 29.8068 23.7866 29.7522 23.8957 29.6432L26.5888 26.9501C26.8069 26.7319 26.8069 26.3783 26.5888 26.1601C26.3706 25.9421 26.017 25.9421 25.7988 26.1601ZM28.6675 27.3431C28.359 27.3431 28.1089 27.5932 28.1089 27.9017C28.1089 28.2102 28.359 28.4602 28.6675 28.4602H37.9237C38.2323 28.4602 38.4823 28.2102 38.4823 27.9017C38.4823 27.5932 38.2323 27.3431 37.9237 27.3431H28.6675ZM25.7988 32.4873L23.5007 34.7855L22.4731 33.7578C22.2549 33.5398 21.9013 33.5398 21.6831 33.7578C21.465 33.976 21.465 34.3296 21.6831 34.5478L23.1057 35.9704C23.2148 36.0794 23.3577 36.134 23.5007 36.134C23.6437 36.134 23.7866 36.0794 23.8957 35.9704L26.5888 33.2773C26.8069 33.0592 26.8069 32.7055 26.5888 32.4873C26.3706 32.2693 26.017 32.2693 25.7988 32.4873ZM37.9237 33.6703H28.6675C28.359 33.6703 28.1089 33.9204 28.1089 34.2289C28.1089 34.5374 28.359 34.7874 28.6675 34.7874H37.9237C38.2323 34.7874 38.4823 34.5374 38.4823 34.2289C38.4823 33.9204 38.2323 33.6703 37.9237 33.6703ZM25.7988 38.8145L23.5007 41.1127L22.4731 40.085C22.2549 39.867 21.9013 39.867 21.6831 40.085C21.465 40.3032 21.465 40.6568 21.6831 40.875L23.1057 42.2976C23.2148 42.4066 23.3577 42.4611 23.5007 42.4611C23.6437 42.4611 23.7866 42.4066 23.8957 42.2976L26.5888 39.6045C26.8069 39.3863 26.8069 39.0327 26.5888 38.8145C26.3706 38.5965 26.017 38.5965 25.7988 38.8145ZM37.9237 39.9975H28.6675C28.359 39.9975 28.1089 40.2476 28.1089 40.5561C28.1089 40.8646 28.359 41.1146 28.6675 41.1146H37.9237C38.2323 41.1146 38.4823 40.8646 38.4823 40.5561C38.4823 40.2476 38.2323 39.9975 37.9237 39.9975Z" fill="white"/>
</svg>
