<svg width="60" height="60" viewBox="0 0 60 60" fill="none" xmlns="http://www.w3.org/2000/svg">
<rect width="60" height="60" rx="30" fill="#FED88E"/>
<rect x="3" y="3" width="54" height="54" rx="27" fill="#EBB54A"/>
<path d="M47.2741 36.909V34.318C47.2741 32.9437 46.7282 31.6257 45.7564 30.654C44.7846 29.6822 43.4666 29.1362 42.0923 29.1362H31.7287C30.3544 29.1362 29.0364 29.6822 28.0646 30.654C27.0928 31.6257 26.5469 32.9437 26.5469 34.318V36.909" stroke="white" stroke-width="2" stroke-linecap="round" stroke-linejoin="round"/>
<path d="M36.9103 24.8182C39.7722 24.8182 42.0922 22.4982 42.0922 19.6364C42.0922 16.7746 39.7722 14.4546 36.9103 14.4546C34.0485 14.4546 31.7285 16.7746 31.7285 19.6364C31.7285 22.4982 34.0485 24.8182 36.9103 24.8182Z" stroke="white" stroke-width="2" stroke-linecap="round" stroke-linejoin="round"/>
<path d="M34.3191 41.2273V38.6364C34.3191 37.2621 33.7731 35.9441 32.8013 34.9723C31.8296 34.0005 30.5116 33.4546 29.1373 33.4546H18.7736C17.3993 33.4546 16.0813 34.0005 15.1095 34.9723C14.1377 35.9441 13.5918 37.2621 13.5918 38.6364V41.2273" stroke="white" stroke-width="2" stroke-linecap="round" stroke-linejoin="round"/>
<path d="M23.9553 29.1366C26.8171 29.1366 29.1371 26.8166 29.1371 23.9548C29.1371 21.0929 26.8171 18.7729 23.9553 18.7729C21.0934 18.7729 18.7734 21.0929 18.7734 23.9548C18.7734 26.8166 21.0934 29.1366 23.9553 29.1366Z" stroke="white" stroke-width="2" stroke-linecap="round" stroke-linejoin="round"/>
<path d="M26.5 30L32 29V32.5L25 32.45L26.5 30Z" fill="#EBB54A"/>
<rect x="22" y="34.4502" width="7" height="5" fill="#EBB54A"/>
<path d="M26 31L30 27L32 27.5V29.5L29.5 30.5L26 31Z" fill="#EBB54A"/>
</svg>
