<svg width="60" height="60" viewBox="0 0 60 60" fill="none" xmlns="http://www.w3.org/2000/svg">
<rect width="60" height="60" rx="30" fill="#FED88E"/>
<rect x="3" y="3" width="54" height="54" rx="27" fill="#EBB54A"/>
<path d="M43.095 24.2393L43.5217 23.8125H42.9182H40.0938C39.248 23.8125 38.5625 23.127 38.5625 22.2812C38.5625 21.4355 39.248 20.75 40.0938 20.75H47.2188C48.0645 20.75 48.75 21.4355 48.75 22.2812V29.4062C48.75 30.252 48.0645 30.9375 47.2188 30.9375C46.373 30.9375 45.6875 30.252 45.6875 29.4062V26.5818V25.9783L45.2607 26.405L36.405 35.2596L36.4049 35.2596L32.8638 38.8013C32.5863 39.0788 32.2038 39.25 31.7812 39.25C31.3586 39.25 30.9761 39.0788 30.6985 38.8017L22.458 30.5613L22.2813 30.3845L22.1045 30.5612L13.8638 38.8013L14.0292 38.9667L13.8638 38.8013C13.5863 39.0788 13.2038 39.25 12.7812 39.25C11.9355 39.25 11.25 38.5645 11.25 37.7188C11.25 37.2962 11.4212 36.9137 11.6987 36.6362L21.1987 27.1362C21.4762 26.8587 21.8587 26.6875 22.2812 26.6875C22.7044 26.6875 23.0863 26.8587 23.3638 27.1362L31.6045 35.3768L31.7812 35.5536L31.958 35.3768L34.2398 33.0951L34.4167 32.9181L35.4487 31.8862L35.288 31.7255L35.4487 31.8862L43.095 24.2393Z" fill="white" stroke="#EBB54A" stroke-width="0.5"/>
</svg>
