<svg width="62" height="62" viewBox="0 0 62 62" fill="none" xmlns="http://www.w3.org/2000/svg">
<path d="M46.1109 46.0912L46.1104 46.1031C46.1093 46.1252 46.1088 46.1472 46.108 46.177C46.108 46.1772 46.108 46.1774 46.108 46.1776L46.1079 46.1805L45.6081 46.168C45.591 47.783 40.0338 50.7487 31.0051 50.7487C21.9764 50.7487 16.4184 47.783 16.401 46.168L46.1109 46.0912ZM46.1109 46.0912V46.0792L46.111 31.8817L46.111 31.0279L45.3663 31.4457L33.6759 38.0047L33.6758 38.0047C32.9452 38.4148 31.9942 38.6509 30.9988 38.6509C30.004 38.6509 29.0529 38.4152 28.3218 38.0047L28.3217 38.0047L16.6301 31.4448L15.8854 31.027V31.8809V45.9308V45.9603L15.8889 45.9895C15.8961 46.0506 15.9002 46.1119 15.9011 46.174L46.1109 46.0912ZM55.935 25.5161L55.9347 25.5162L49.7138 29.0066L49.4366 29.1621L49.4598 29.4792C49.4617 29.505 49.4644 29.5279 49.4666 29.5456L49.4723 29.5877C49.4736 29.5975 49.4742 29.6028 49.4744 29.605V46.1915C49.4744 46.2368 49.4727 46.2809 49.4695 46.324L49.4687 46.3334L49.4684 46.3428C49.3704 48.9077 47.2053 50.9791 43.7001 52.4296C40.2264 53.867 35.6097 54.6122 31.0051 54.6122C26.4515 54.6122 21.8855 53.8835 18.4249 52.4769C14.9323 51.0573 12.7374 49.0266 12.5508 46.5145L12.5491 46.4911L12.5452 46.4679C12.5299 46.3783 12.522 46.2862 12.522 46.1914V29.6047C12.5222 29.6026 12.5228 29.5973 12.5241 29.5872L12.5298 29.5451C12.5321 29.5274 12.5348 29.5045 12.5367 29.4786L12.5602 29.1613L12.2827 29.0057L6.06171 25.5152L6.06114 25.5149C4.99598 24.9191 4.43385 23.9992 4.43359 23.0092C4.43334 22.0193 4.99494 21.0987 6.06247 20.5007L6.06274 20.5006L28.3216 8.01317L28.3222 8.01283C29.0445 7.60633 30.0078 7.38974 30.9968 7.38965C31.9857 7.38956 32.951 7.60595 33.6772 8.01349L33.6772 8.01354L55.9361 20.5012C57.0031 21.0999 57.5641 22.0205 57.5635 23.0101C57.5629 23.9994 57.0013 24.9187 55.935 25.5161ZM32.0303 10.9463L32.0301 10.9462C31.794 10.8139 31.4047 10.73 30.9988 10.73C30.5271 10.73 30.1599 10.838 29.9683 10.9457C29.9681 10.9458 29.9679 10.946 29.9677 10.9461L9.24448 22.5722L8.46725 23.0082L9.24446 23.4443L29.9672 35.0715L29.9672 35.0716C30.2029 35.2037 30.5924 35.2874 30.9987 35.2874C31.4721 35.2874 31.839 35.1787 32.0294 35.072L32.0295 35.0719L52.753 23.4447L53.5302 23.0086L52.753 22.5725L32.0303 10.9463Z" fill="white" stroke="#0B2051"/>
<path d="M53.8867 29.9361C53.8867 29.0074 54.6394 28.2544 55.5684 28.2544C56.4975 28.2544 57.2502 29.0073 57.2502 29.9361V47.2567C57.2502 48.1857 56.4975 48.9384 55.5684 48.9384C54.6394 48.9384 53.8867 48.1857 53.8867 47.2567V29.9361Z" fill="white" stroke="#0B2051"/>
</svg>
