<svg width="52" height="50" viewBox="0 0 52 50" fill="none" xmlns="http://www.w3.org/2000/svg">
<path d="M48.4997 1L43.4997 6M24.4747 25.025L34.7497 14.75M34.7497 14.75L42.2497 22.25L50.9997 13.5L43.4997 6M34.7497 14.75L43.4997 6M24.4747 25.025C25.7656 26.2987 26.7917 27.8151 27.4941 29.487C28.1965 31.1589 28.5612 32.9532 28.5673 34.7666C28.5734 36.58 28.2207 38.3767 27.5295 40.0533C26.8383 41.7298 25.8224 43.2531 24.5401 44.5354C23.2578 45.8176 21.7345 46.8336 20.058 47.5248C18.3814 48.2159 16.5847 48.5686 14.7713 48.5626C12.9579 48.5565 11.1636 48.1918 9.49169 47.4894C7.81981 46.787 6.30338 45.7609 5.02971 44.47C2.52504 41.8767 1.13911 38.4034 1.17044 34.7982C1.20177 31.193 2.64784 27.7444 5.1972 25.195C7.74657 22.6456 11.1952 21.1996 14.8004 21.1682C18.4056 21.1369 21.8789 22.5228 24.4722 25.0275L24.4747 25.025Z" stroke="white" stroke-width="2" stroke-linecap="round" stroke-linejoin="round"/>
</svg>
