<svg width="51" height="51" viewBox="0 0 51 51" fill="none" xmlns="http://www.w3.org/2000/svg">
<path d="M30.7494 12.7474C30.2913 13.2147 30.0347 13.843 30.0347 14.4974C30.0347 15.1518 30.2913 15.7801 30.7494 16.2474L34.7494 20.2474C35.2167 20.7055 35.845 20.962 36.4994 20.962C37.1538 20.962 37.7821 20.7055 38.2494 20.2474L47.6744 10.8224C48.9315 13.6004 49.3121 16.6955 48.7655 19.6953C48.219 22.695 46.7712 25.457 44.6151 27.6131C42.459 29.7692 39.697 31.217 36.6973 31.7635C33.6975 32.3101 30.6024 31.9295 27.8244 30.6724L10.5494 47.9474C9.55483 48.9419 8.20592 49.5007 6.79939 49.5007C5.39287 49.5007 4.04396 48.9419 3.04939 47.9474C2.05483 46.9528 1.49609 45.6039 1.49609 44.1974C1.49609 42.7909 2.05483 41.4419 3.04939 40.4474L20.3244 23.1724C19.0673 20.3944 18.6867 17.2993 19.2332 14.2995C19.7798 11.2997 21.2276 8.53777 23.3837 6.38169C25.5398 4.2256 28.3018 2.77781 31.3015 2.23124C34.3013 1.68468 37.3964 2.0653 40.1744 3.32239L30.7744 12.7224L30.7494 12.7474Z" stroke="white" stroke-width="2" stroke-linecap="round" stroke-linejoin="round"/>
</svg>
