<svg width="11" height="11" viewBox="0 0 11 11" fill="none" xmlns="http://www.w3.org/2000/svg">
<g clip-path="url(#clip0_701_749)">
<path d="M10.3125 1.37521V2.75021C10.3125 3.13027 10.0051 3.43771 9.625 3.43771C9.24494 3.43771 8.9375 3.13027 8.9375 2.75021V2.06271H6.1875V8.93771H7.21875C7.59881 8.93771 7.90625 9.24516 7.90625 9.62521C7.90625 10.0053 7.59881 10.2934 7.21875 10.2934H3.78125C3.40119 10.2934 3.09375 9.98594 3.09375 9.62521C3.09375 9.26449 3.40119 8.93771 3.78125 8.93771H4.8125V2.06271H2.0625V2.75021C2.0625 3.13027 1.75506 3.43771 1.375 3.43771C0.994941 3.43771 0.6875 3.13027 0.6875 2.75021V1.37521C0.6875 0.995155 0.994941 0.687714 1.375 0.687714H9.625C10.0053 0.687714 10.3125 0.99537 10.3125 1.37521Z" fill="white"/>
</g>
<defs>
<clipPath id="clip0_701_749">
<rect width="9.625" height="11" fill="white" transform="translate(0.6875)"/>
</clipPath>
</defs>
</svg>
