<svg width="17" height="17" viewBox="0 0 17 17" fill="none" xmlns="http://www.w3.org/2000/svg">
<path d="M0.0663266 8.5401C0.00977563 8.52551 0.00977527 8.4452 0.0663263 8.4306L5.10016 7.13115C6.09618 6.87403 6.87396 6.09625 7.13108 5.10023L8.43053 0.0663965C8.44513 0.00984552 8.52544 0.00984473 8.54003 0.0663963L9.83948 5.10023C10.0966 6.09625 10.8744 6.87403 11.8704 7.13115L16.9042 8.4306C16.9608 8.4452 16.9608 8.52551 16.9042 8.5401L11.8704 9.83955C10.8744 10.0967 10.0966 10.8745 9.83948 11.8705L8.54003 16.9043C8.52544 16.9609 8.44513 16.9609 8.43053 16.9043L7.13108 11.8705C6.87396 10.8745 6.09618 10.0967 5.10016 9.83956L0.0663266 8.5401Z" fill="#272626"/>
</svg>
