<svg width="36" height="37" viewBox="0 0 36 37" fill="none" xmlns="http://www.w3.org/2000/svg">
<path d="M33.0001 25.5188V30.0188C33.0018 30.4366 32.9163 30.8501 32.7489 31.2328C32.5816 31.6156 32.3361 31.9592 32.0283 32.2416C31.7204 32.524 31.357 32.739 30.9613 32.8729C30.5655 33.0067 30.1462 33.0564 29.7301 33.0188C25.1144 32.5173 20.6806 30.94 16.7851 28.4138C13.1609 26.1108 10.0881 23.0381 7.78514 19.4138C5.25011 15.5006 3.67251 11.0453 3.18014 6.40882C3.14266 5.99402 3.19196 5.57596 3.32489 5.18125C3.45783 4.78655 3.6715 4.42385 3.95229 4.11625C4.23309 3.80865 4.57485 3.56288 4.95583 3.3946C5.33681 3.22632 5.74865 3.13921 6.16514 3.13882H10.6651C11.3931 3.13165 12.0988 3.38944 12.6508 3.86412C13.2027 4.3388 13.5633 4.99799 13.6651 5.71882C13.8551 7.15892 14.2073 8.57291 14.7151 9.93382C14.917 10.4707 14.9606 11.0542 14.841 11.6151C14.7214 12.1761 14.4434 12.691 14.0401 13.0988L12.1351 15.0038C14.2705 18.7591 17.3798 21.8685 21.1351 24.0038L23.0401 22.0988C23.448 21.6955 23.9629 21.4176 24.5238 21.298C25.0848 21.1783 25.6683 21.222 26.2051 21.4238C27.5661 21.9316 28.98 22.2839 30.4201 22.4738C31.1488 22.5766 31.8142 22.9436 32.2899 23.5051C32.7656 24.0665 33.0184 24.7832 33.0001 25.5188Z" stroke="#0B2051" stroke-width="2" stroke-linecap="round" stroke-linejoin="round"/>
</svg>
