<svg width="60" height="60" viewBox="0 0 60 60" fill="none" xmlns="http://www.w3.org/2000/svg">
<rect width="60" height="60" rx="30" fill="#A1B9F5"/>
<rect x="3" y="3" width="54" height="54" rx="27" fill="#698DE7"/>
<g clip-path="url(#clip0_514_781)">
<path d="M44.31 27.09C43.68 26.25 42.735 25.77 41.7 25.77H35.04C35.01 25.77 34.995 25.755 34.995 25.74C34.995 25.725 34.98 25.71 34.995 25.68C35.19 25.215 35.295 24.78 35.325 24.525L35.43 24.075C35.91 22.125 35.835 20.1 35.19 18.195L34.98 17.61C34.545 16.29 33.255 15.375 31.86 15.375H31.77C29.955 15.375 28.365 16.92 28.365 18.675V19.5C28.365 23.49 25.41 26.505 21.48 26.505H18.315C16.545 26.505 15 28.155 15 30.03V41.325C15 43.14 16.485 44.625 18.315 44.64H38.22C39.72 44.625 41.025 43.62 41.4 42.165L44.88 30.045C45.165 29.04 44.955 27.93 44.31 27.09ZM30.15 19.5V18.675C30.15 17.895 30.93 17.16 31.77 17.16H31.845C32.49 17.175 33.06 17.595 33.285 18.21L33.495 18.795C34.02 20.37 34.095 22.065 33.69 23.67L33.57 24.195L33.54 24.375C33.525 24.615 33.27 25.245 33.045 25.62C32.895 25.86 32.82 26.13 32.82 26.43V26.94C32.82 27.3 33.105 27.585 33.465 27.585H41.715C42.18 27.585 42.615 27.81 42.9 28.2C43.2 28.59 43.305 29.115 43.17 29.595L39.69 41.73C39.51 42.405 38.91 42.885 38.205 42.9H23.64V28.035C27.54 27.09 30.15 23.685 30.15 19.5ZM21.855 42.855H18.315C17.475 42.855 16.785 42.165 16.785 41.325V30.03C16.785 29.115 17.52 28.29 18.315 28.29H21.495C21.615 28.29 21.735 28.29 21.87 28.275V42.795C21.855 42.825 21.855 42.84 21.855 42.855Z" fill="white"/>
</g>
<defs>
<clipPath id="clip0_514_781">
<rect width="30" height="30" fill="white" transform="translate(15 15)"/>
</clipPath>
</defs>
</svg>
