<svg width="60" height="60" viewBox="0 0 60 60" fill="none" xmlns="http://www.w3.org/2000/svg">
<rect width="60" height="60" rx="30" fill="#A1B9F5"/>
<rect x="3" y="3" width="54" height="54" rx="27" fill="#698DE7"/>
<g clip-path="url(#clip0_514_788)">
<path d="M40.5219 18.4078H16.4718C15.605 18.4078 14.9 19.1128 14.9 19.9796V36.013C14.9 36.8799 15.605 37.5849 16.4718 37.5849H24.8452L24.4866 40.4538H23.9875C23.8364 40.4538 23.6914 40.5138 23.5846 40.6206C23.4777 40.7275 23.4177 40.8724 23.4177 41.0235C23.4177 41.1746 23.4777 41.3195 23.5846 41.4264C23.6914 41.5332 23.8364 41.5933 23.9875 41.5933H26.4927C26.6438 41.5933 26.7887 41.5332 26.8956 41.4264C27.0024 41.3195 27.0624 41.1746 27.0624 41.0235C27.0624 40.8724 27.0024 40.7275 26.8956 40.6206C26.7887 40.5138 26.6438 40.4538 26.4927 40.4538H25.635L25.9936 37.5849H26.4927C26.6438 37.5849 26.7887 37.5248 26.8956 37.418C27.0024 37.3111 27.0624 37.1662 27.0624 37.0151C27.0624 36.864 27.0024 36.7191 26.8956 36.6122C26.7887 36.5054 26.6438 36.4454 26.4927 36.4454H16.4718C16.2335 36.4454 16.0394 36.2513 16.0394 36.013V34.4785V33.539V19.9796C16.0394 19.7413 16.2335 19.5472 16.4718 19.5472H40.5219C40.7602 19.5472 40.9543 19.7413 40.9543 19.9796V30.0005C40.9543 30.1516 41.0143 30.2965 41.1212 30.4034C41.228 30.5102 41.3729 30.5703 41.524 30.5703C41.6751 30.5703 41.8201 30.5102 41.9269 30.4034C42.0338 30.2965 42.0938 30.1516 42.0938 30.0005V19.9796C42.0937 19.1128 41.3887 18.4078 40.5219 18.4078Z" fill="white" stroke="white" stroke-width="0.2"/>
<path d="M36.9462 40.0211C36.9462 40.0218 36.9462 40.0225 36.9461 40.0231C36.9451 40.2606 36.7514 40.4535 36.5138 40.4535H29.4992C29.2713 40.4535 29.084 40.2762 29.0679 40.0524L29.0668 40.0194V28.9981C29.0668 28.7632 29.2554 28.5713 29.489 28.5659H36.5239C36.7433 28.5709 36.923 28.7405 36.9441 28.9557L36.9461 28.9992L36.9462 40.0211ZM40.0898 33.0065C40.0898 32.7682 40.2838 32.5741 40.5222 32.5741L40.0898 33.0065ZM36.5138 27.4264H29.4992C28.6323 27.4264 27.9273 28.1314 27.9273 28.9982V40.0211C27.9273 40.8879 28.6323 41.5929 29.4992 41.5929H36.5138C37.3806 41.5929 38.0856 40.8879 38.0856 40.0211V28.9982C38.0856 28.1314 37.3806 27.4264 36.5138 27.4264ZM43.5284 31.4347H40.5221C39.6553 31.4347 38.9503 32.1397 38.9503 33.0065V40.0211C38.9503 40.8879 39.6553 41.5929 40.5221 41.5929H43.5284C44.3952 41.5929 45.1002 40.8879 45.1002 40.0211V33.0065C45.1002 32.1397 44.3952 31.4347 43.5284 31.4347Z" fill="white" stroke="white" stroke-width="0.2"/>
</g>
<defs>
<clipPath id="clip0_514_788">
<rect width="31" height="30" fill="white" transform="translate(14.5 15)"/>
</clipPath>
</defs>
</svg>
