<svg width="60" height="60" viewBox="0 0 60 60" fill="none" xmlns="http://www.w3.org/2000/svg">
<rect width="60" height="60" rx="30" fill="#A1B9F5"/>
<rect x="3" y="3" width="54" height="54" rx="27" fill="#698DE7"/>
<path d="M34.6893 28.7373C34.6349 28.7373 34.5818 28.7428 34.5301 28.753C34.4944 28.743 34.4565 28.7373 34.4186 28.7373H26.515C26.4916 28.7373 26.469 28.7397 26.4471 28.7433C26.4149 28.7395 26.3819 28.7373 26.349 28.7373C25.8853 28.7373 25.5098 29.1228 25.5098 29.5984C25.5098 30.0741 25.8853 30.4596 26.349 30.4596C26.3819 30.4596 26.4147 30.4574 26.4471 30.4534C26.469 30.4572 26.4916 30.4596 26.515 30.4596H34.4186C34.4567 30.4596 34.4944 30.4538 34.5301 30.4439C34.5817 30.4541 34.6348 30.4596 34.6893 30.4596C35.1526 30.4596 35.528 30.0741 35.528 29.5984C35.528 29.1228 35.1526 28.7373 34.6893 28.7373ZM37.8853 32.3842C37.8307 32.3842 37.7771 32.3898 37.7252 32.3997C37.6902 32.3897 37.6525 32.3842 37.6137 32.3842H26.5148C26.4914 32.3842 26.469 32.3866 26.4472 32.3901C26.4147 32.3864 26.3818 32.3842 26.3488 32.3842C25.8852 32.3842 25.5099 32.7696 25.5099 33.2454C25.5099 33.7208 25.8854 34.1066 26.3488 34.1066C26.382 34.1066 26.4147 34.1042 26.4472 34.1004C26.469 34.1042 26.4914 34.1066 26.5148 34.1066H37.6137C37.6525 34.1066 37.6902 34.1007 37.7252 34.0907C37.7771 34.1011 37.8307 34.1066 37.8853 34.1066C38.3484 34.1066 38.7238 33.7208 38.7238 33.2454C38.7238 32.7696 38.3486 32.3842 37.8853 32.3842ZM37.8853 36.0311C37.8307 36.0311 37.7771 36.0366 37.7252 36.0467C37.6902 36.0366 37.6525 36.0311 37.6137 36.0311H26.5148C26.4914 36.0311 26.469 36.0332 26.4472 36.037C26.4147 36.0332 26.3818 36.0311 26.3488 36.0311C25.8852 36.0311 25.5099 36.4165 25.5099 36.8923C25.5099 37.3676 25.8854 37.7534 26.3488 37.7534C26.382 37.7534 26.4147 37.751 26.4472 37.7472C26.469 37.751 26.4914 37.7534 26.5148 37.7534H37.6137C37.6525 37.7534 37.6902 37.7475 37.7252 37.7376C37.7771 37.7479 37.8307 37.7534 37.8853 37.7534C38.3484 37.7534 38.7238 37.3677 38.7238 36.8923C38.7238 36.4165 38.3486 36.0311 37.8853 36.0311ZM44.0027 42.2207V17.7081C44.0027 17.7081 44.0489 15.9648 42.007 15.9648H17.8579C15.9068 15.9648 15.8613 17.7081 15.8613 17.7081V42.2229C15.8613 42.2208 15.8551 43.9664 17.8579 43.9664H23.552C23.5705 43.9664 23.589 43.9676 23.6073 43.9676C23.6278 43.9676 23.6479 43.9664 23.6685 43.9664H42.0068C44.0889 43.9663 44.0027 42.2207 44.0027 42.2207ZM21.9791 42.3032L18.5183 42.3054C17.6441 42.3054 17.5422 41.5025 17.5422 41.5025V18.3313C17.5422 17.5617 18.5218 17.6592 18.5218 17.6592H21.9791V42.3032ZM41.4135 42.2732H23.689V17.6592H32.5013V25.1347L35.1472 22.7178L37.8149 25.1347V17.6592H41.3515C42.3427 17.6592 42.2927 18.3346 42.2927 18.3346V41.5982C42.2927 41.5982 42.3411 42.2732 41.4135 42.2732Z" fill="white"/>
</svg>
