<svg width="60" height="60" viewBox="0 0 60 60" fill="none" xmlns="http://www.w3.org/2000/svg">
<rect width="60" height="60" rx="30" fill="#A1B9F5"/>
<rect x="3" y="3" width="54" height="54" rx="27" fill="#698DE7"/>
<path d="M43.905 41.1004H17.04V17.8504C17.04 17.3104 16.59 16.8604 16.02 16.8604C15.45 16.8604 15 17.3104 15 17.8504V42.0454C15 42.3754 15.18 42.6904 15.45 42.8704C15.66 43.0504 15.93 43.1554 16.215 43.1554H43.905C44.505 43.1554 45 42.7054 45 42.1354C45 41.5654 44.505 41.1004 43.905 41.1004Z" fill="white"/>
<path d="M19.6807 36.1653C19.9507 36.1653 20.2207 36.0603 20.4157 35.8653L25.3807 30.9003L29.8357 35.3553C30.2407 35.7603 30.9007 35.7603 31.3207 35.3553L41.0707 25.6053C41.3707 25.3053 41.4607 24.8553 41.2957 24.4653C41.1307 24.0753 40.7557 23.8203 40.3357 23.8203H33.3757C32.8057 23.8203 32.3257 24.2853 32.3257 24.8703C32.3257 25.4553 32.7907 25.9203 33.3757 25.9203H37.8007L30.5707 33.1503L26.1157 28.6953C25.7107 28.2903 25.0507 28.2903 24.6307 28.6953L18.9307 34.3953C18.5257 34.8003 18.5257 35.4603 18.9307 35.8803C19.1557 36.0753 19.4107 36.1653 19.6807 36.1653Z" fill="white"/>
</svg>
