<svg width="60" height="60" viewBox="0 0 60 60" fill="none" xmlns="http://www.w3.org/2000/svg">
<rect width="60" height="60" rx="30" fill="#A1B9F5"/>
<rect x="3" y="3" width="54" height="54" rx="27" fill="#698DE7"/>
<path d="M44.5723 15.4326H15.5053C14.8347 15.4326 14.291 15.9761 14.291 16.6465C14.291 17.317 14.8347 17.8604 15.5053 17.8604H16.6437V34.3732C16.6437 36.647 18.4841 38.497 20.7464 38.497H25.2169L21.8539 42.2575C21.3796 42.7878 21.3796 43.6475 21.8539 44.1778C22.3281 44.708 23.0969 44.708 23.5711 44.1778L28.6515 38.497H31.3628L36.4432 44.1778C36.9174 44.708 37.6862 44.708 38.1605 44.1778C38.6347 43.6475 38.6347 42.7878 38.1605 42.2575L34.7974 38.497H39.2553C41.5175 38.497 43.358 36.647 43.358 34.3732V17.8604H44.5723C45.2429 17.8604 45.7866 17.3169 45.7866 16.6465C45.7866 15.9761 45.2429 15.4326 44.5723 15.4326ZM40.9294 34.3732C40.9294 35.3083 40.1784 36.0691 39.2553 36.0691H20.7464C19.8233 36.0691 19.0723 35.3083 19.0723 34.3732V17.8604H40.9294V34.3732Z" fill="white"/>
</svg>
