<svg width="60" height="60" viewBox="0 0 60 60" fill="none" xmlns="http://www.w3.org/2000/svg">
<rect width="60" height="60" rx="30" fill="#A1B9F5"/>
<rect x="3" y="3" width="54" height="54" rx="27" fill="#698DE7"/>
<path d="M27.6212 21.7032C27.7589 21.9803 27.8428 22.2796 27.8666 22.5915L28.4825 31.2824C28.4904 31.4012 28.5458 31.512 28.6393 31.5896C28.7096 31.6491 28.7962 31.686 28.8878 31.6957L28.986 31.6972L37.8115 31.1668C38.5288 31.1241 39.2318 31.3727 39.7527 31.8556C40.2752 32.3369 40.5713 33.0082 40.5665 33.7872C40.1754 39.5062 35.9733 44.2879 30.2511 45.5261C24.5289 46.7658 18.6563 44.166 15.8412 39.1595C15.0956 37.8844 14.5891 36.484 14.3465 35.027L14.2705 34.4887C14.2066 34.0933 14.1716 33.6937 14.166 33.2932L14.1708 32.9085C14.1866 26.9362 18.3808 21.7729 24.2803 20.3796L24.6857 20.2909L24.9026 20.2545C26.0442 20.0993 27.1668 20.6978 27.6212 21.7048V21.7032ZM25.2747 22.5234L25.1417 22.5392L24.7807 22.62C20.0798 23.7537 16.7088 27.7991 16.522 32.5665L16.5141 32.9544C16.503 33.2505 16.5141 33.545 16.5489 33.8601L16.5933 34.1815C16.7516 35.5337 17.187 36.8415 17.8853 38.0385C20.208 42.171 25.0388 44.3085 29.7444 43.2888C34.4501 42.2692 37.9065 38.3362 38.2263 33.7065C38.2263 33.672 38.2191 33.6378 38.2052 33.6062C38.1913 33.5746 38.171 33.5462 38.1456 33.5228C38.1109 33.491 38.0682 33.4691 38.0221 33.4595L37.954 33.4547L29.1428 33.9852C28.4017 34.0388 27.6691 33.8001 27.1018 33.3202C26.8249 33.0866 26.5976 32.8 26.4331 32.4772C26.2685 32.1545 26.1702 31.8021 26.1439 31.4407L25.5296 22.7577C25.5296 22.7435 25.5248 22.7292 25.4979 22.6738C25.4783 22.6309 25.4472 22.5941 25.4081 22.5676C25.3691 22.5411 25.3234 22.5258 25.2763 22.5234H25.2747ZM32.2524 14.1682C39.037 14.3597 44.7291 19.2348 45.8168 25.7898L45.8327 25.9735L45.8295 26.2933C45.7915 26.7636 45.6015 27.2117 45.2848 27.5727C44.8822 28.0284 44.3162 28.3072 43.7094 28.3485L33.1866 29.0341C31.8376 29.1101 30.6786 28.1078 30.5915 26.7905L29.8885 16.4624L29.8964 16.2312L29.9313 15.97C30.0263 15.5077 30.2653 15.0849 30.62 14.7635C31.0665 14.3613 31.6571 14.146 32.2524 14.1697V14.1682ZM32.2334 16.4608L32.9301 26.6417C32.9348 26.7018 32.9887 26.7493 33.0409 26.7462L43.4862 26.0637L43.4339 25.7787C42.4 20.6266 37.935 16.8012 32.5786 16.4767L32.2334 16.4608Z" fill="white"/>
</svg>
