<svg width="60" height="60" viewBox="0 0 60 60" fill="none" xmlns="http://www.w3.org/2000/svg">
<rect width="60" height="60" rx="30" fill="#A1B9F5"/>
<rect x="3" y="3" width="54" height="54" rx="27" fill="#698DE7"/>
<g clip-path="url(#clip0_514_253)">
<path d="M36 41.375H23.1429C21.2491 41.375 19.7143 39.9201 19.7143 38.125V22.6875C19.7143 22.2406 19.3307 21.875 18.8571 21.875C18.3836 21.875 18 22.2406 18 22.6875V38.125C18 40.8174 20.3025 43 23.1429 43H36C36.4734 43 36.8571 42.6362 36.8571 42.1875C36.8571 41.7388 36.4714 41.375 36 41.375ZM40.9982 22.7535L35.9352 17.9542C35.2875 17.3424 34.4196 17 33.5089 17H26.5714C24.6804 17 23.1429 18.4549 23.1429 20.25L23.1434 34.875C23.1434 36.6701 24.6782 38.125 26.572 38.125H38.572C40.4679 38.125 42 36.6676 42 34.875V25.0488C42 24.1855 41.6411 23.3629 40.9982 22.7535ZM35.1429 19.501L39.3643 23.5H36C35.5286 23.5 35.1429 23.1344 35.1429 22.6875V19.501ZM40.2857 34.875C40.2857 35.7708 39.5164 36.5 38.5714 36.5H26.5714C25.6264 36.5 24.8571 35.7708 24.8571 34.875V20.25C24.8571 19.3542 25.6264 18.625 26.5714 18.625H33.4286V22.6875C33.4286 24.0332 34.5804 25.125 36 25.125H40.2857V34.875Z" fill="white"/>
</g>
<defs>
<clipPath id="clip0_514_253">
<rect width="24" height="26" fill="white" transform="translate(18 17)"/>
</clipPath>
</defs>
</svg>
