<svg width="60" height="60" viewBox="0 0 60 60" fill="none" xmlns="http://www.w3.org/2000/svg">
<rect width="60" height="60" rx="30" fill="#A1B9F5"/>
<rect x="3" y="3" width="54" height="54" rx="27" fill="#698DE7"/>
<path d="M16.5781 39.395C16.5781 39.9883 16.8138 40.5572 17.2333 40.9767C17.6528 41.3962 18.2217 41.6319 18.815 41.6319C19.4082 41.6319 19.9772 41.3962 20.3967 40.9767C20.8161 40.5572 21.0518 39.9883 21.0518 39.395C21.0518 38.8018 20.8161 38.2328 20.3967 37.8134C19.9772 37.3939 19.4082 37.1582 18.815 37.1582C18.2217 37.1582 17.6528 37.3939 17.2333 37.8134C16.8138 38.2328 16.5781 38.8018 16.5781 39.395Z" fill="white"/>
<path d="M44.5385 20.3818H26.6438C26.0846 20.3818 25.5254 20.941 25.5254 21.5003C25.5254 22.0595 26.0846 22.6187 26.6438 22.6187H44.5385C45.0978 22.6187 45.657 22.0595 45.657 21.5003C45.657 20.941 45.0978 20.3818 44.5385 20.3818Z" fill="white"/>
<path d="M44.5385 29.3291H26.6438C26.0846 29.3291 25.5254 29.8883 25.5254 30.4475C25.5254 31.0067 26.0846 31.5659 26.6438 31.5659H44.5385C45.0978 31.5659 45.657 31.0067 45.657 30.4475C45.657 29.8883 45.0978 29.3291 44.5385 29.3291Z" fill="white"/>
<path d="M44.5385 38.2764H26.6438C26.0846 38.2764 25.5254 38.8356 25.5254 39.3948C25.5254 39.954 26.0846 40.5132 26.6438 40.5132H44.5385C45.0978 40.5132 45.657 39.954 45.657 39.3948C45.657 38.8356 45.0978 38.2764 44.5385 38.2764Z" fill="white"/>
<path d="M17.6971 24.8551C17.3615 24.8551 17.1378 24.7432 16.9142 24.5195L14.6773 22.2827C14.23 21.8353 14.23 21.1643 14.6773 20.7169C15.1247 20.2695 15.7957 20.2695 16.2431 20.7169L17.6971 22.1708L21.3878 18.4801C21.8352 18.0327 22.5063 18.0327 22.9536 18.4801C23.401 18.9274 23.401 19.5985 22.9536 20.0458L18.48 24.5195C18.2563 24.7432 18.0326 24.8551 17.6971 24.8551Z" fill="white"/>
<path d="M17.6971 33.8023C17.3615 33.8023 17.1378 33.6905 16.9142 33.4668L14.6773 31.23C14.23 30.7826 14.23 30.1115 14.6773 29.6642C15.1247 29.2168 15.7957 29.2168 16.2431 29.6642L17.6971 31.1181L21.3878 27.4273C21.8352 26.98 22.5063 26.98 22.9536 27.4273C23.401 27.8747 23.401 28.5457 22.9536 28.9931L18.48 33.4668C18.2563 33.6905 18.0326 33.8023 17.6971 33.8023Z" fill="white"/>
</svg>
