<svg width="40" height="74" viewBox="0 0 40 74" fill="none" xmlns="http://www.w3.org/2000/svg">
<path fill-rule="evenodd" clip-rule="evenodd" d="M39.5557 1.50986C38.5714 0.361825 37.7056 0.523139 33.5297 2.58033C30.5068 4.06594 28.7603 5.15208 28.7009 5.60074C28.5787 6.66774 30.1231 7.71646 31.3882 7.02827C32.7818 6.2577 35.7909 4.61054 36.9357 4.02183C39.9529 2.39183 40.1595 2.20913 39.5557 1.50986ZM25.2071 7.81555C23.7707 7.30371 17.5498 11.0099 17.5739 12.3853C17.5987 14.1596 19.3156 14.1593 21.7769 12.4165C23.295 11.3344 24.4674 10.6274 25.4081 10.0941C26.3489 9.56083 26.215 8.17474 25.2071 7.81555ZM13.4555 15.4027C12.3346 14.7612 9.04157 17.0902 5.81403 20.838C3.0191 24.0849 5.10151 25.7382 8.15491 22.683C9.62997 21.2011 12.0255 18.9224 13.4794 17.6608C14.6934 16.5557 14.6854 16.0972 13.4555 15.4027ZM30.373 56.2855C29.9163 55.8522 29.4032 56.1392 27.1598 57.988C26.154 58.8256 25.2449 59.4698 25.1531 59.4086C24.9434 59.3197 21.0048 55.2537 20.2603 54.3904C19.6158 53.6055 17.2546 54.9852 18.0771 56.1895C18.7183 57.1441 21.2134 59.756 22.2969 60.5835C23.2885 61.3497 23.3259 61.1637 21.8111 62.5176C19.9864 64.1454 19.7872 64.3877 19.8269 64.9571C19.9428 66.3937 21.1709 67.6144 22.8138 67.9436C26.3857 68.6754 29.1958 69.8761 33.8526 72.6745C36.4862 74.2537 36.5554 73.7373 34.3372 69.0599C32.3952 64.965 31.4854 62.1634 31.1942 59.2975C30.9688 56.9676 30.9135 56.7628 30.373 56.2855ZM14.669 50.063C14.487 49.8557 13.5767 48.8195 12.6583 47.7661C7.04153 41.2654 5.69483 43.1063 8.05245 46.2672C11.4487 50.8233 13.3214 52.3876 14.6532 51.7516C15.3532 51.4173 15.3566 50.8063 14.669 50.063ZM2.24181 27.9654C-0.0847773 27.5635 -0.385159 32.5821 1.6826 37.6045C3.70972 42.5413 6.56829 41.6805 4.92624 37.8206C3.75382 35.0394 3.29816 33.2396 3.14596 30.6226C2.98882 28.26 2.92467 28.0806 2.24181 27.9654Z" fill="black"/>
</svg>
