<svg width="97" height="97" viewBox="0 0 97 97" fill="none" xmlns="http://www.w3.org/2000/svg">
<path d="M59.541 55.2724C60.0445 55.0374 59.8431 53.9856 59.0934 52.9673C55.2107 47.6524 54.226 46.623 54.0582 47.7531C53.9015 48.8273 58.8361 55.5968 59.541 55.2724Z" fill="black"/>
<path d="M68.0017 65.2077C68.5723 65.5546 68.6619 65.5546 68.8633 65.1965C69.1542 64.6371 68.729 63.8986 67.2408 62.4104C64.1302 59.255 62.1161 55.6073 61.9259 57.4983C61.814 58.7067 65.8869 63.8986 68.0017 65.2077Z" fill="black"/>
<path d="M75.9799 72.269C77.5464 73.4327 78.4418 73.5893 78.2292 72.6606C78.1285 72.2018 71.9629 66.1036 71.5042 66.0029C69.6691 65.5777 72.735 69.8521 75.9799 72.269Z" fill="black"/>
<path d="M91.3098 77.8623C82.6157 73.8453 80.7807 72.883 80.8478 74.3376C80.8925 75.2104 82.4478 76.2512 86.4759 78.0862L87.7629 78.6792L86.6997 78.7576C81.161 79.1716 79.5275 79.8876 80.6912 81.387C81.0604 81.8682 81.0716 81.857 83.0186 81.6332C86.3866 81.2192 89.9112 81.1855 94.1072 81.4876C96.3115 81.6555 97.7326 80.1897 95.8192 79.7533C95.3045 79.6414 90.1909 74.4831 88.4118 72.2788C86.4761 69.8955 85.3458 68.7655 85.0213 68.9109C84.0814 69.3137 85.3906 70.9137 91.3098 77.8623Z" fill="black"/>
<path d="M45.4207 38.4668C45.6892 39.72 51.0489 45.863 51.4182 45.3371C51.821 44.7552 51.0154 43.3901 48.6992 40.7159C46.3382 37.9969 45.1409 37.18 45.4207 38.4668Z" fill="black"/>
<path d="M1.68258 17.7759C2.79033 18.1451 3.85321 18.0222 6.25892 18.2348C8.58631 18.4362 8.98924 18.257 8.69831 17.1157C8.46334 16.1646 6.87444 15.6499 3.70785 15.5044C0.608395 15.3814 -0.790271 16.9367 1.68258 17.7759Z" fill="black"/>
<path d="M12.5583 19.3653C13.4982 19.9472 19.809 21.5808 20.2901 21.3682C20.6817 21.2004 20.581 20.4731 20.1223 20.0143C18.981 18.873 13.3975 17.0715 12.2114 17.452C12.2002 17.4631 10.3763 18.0114 12.5583 19.3653Z" fill="black"/>
<path d="M25.6725 23.887C26.769 24.6479 30.484 26.3262 31.7148 26.8633L31.7372 26.3038C31.7932 24.9051 27.2615 22.119 24.4977 21.8616C23.4795 21.7833 24.0724 22.8016 25.6725 23.887Z" fill="black"/>
<path d="M34.8022 29.749C36.9618 31.6848 39.1884 33.3744 41.0347 34.9745C42.0417 35.8472 42.2879 35.8472 42.2767 35.0304C42.2767 33.2177 33.549 26.1237 33.2021 27.6566C33.1126 28.1266 33.3588 28.4399 34.8022 29.749Z" fill="black"/>
</svg>
