<svg width="416" height="413" viewBox="0 0 416 413" fill="none" xmlns="http://www.w3.org/2000/svg">
<path d="M411.249 198.969C413.291 308.856 327.966 399.554 220.671 401.548C113.375 403.541 24.7393 316.076 22.6973 206.189C20.6553 96.3019 105.98 5.6044 213.276 3.61058C320.572 1.61677 409.208 89.0817 411.249 198.969ZM30 206.189C32.0347 315.683 113.759 410.987 220.671 409.001C327.582 407.014 405.035 308.463 403 198.969C400.965 89.4749 320.201 2.33594 213.289 4.32262C106.378 6.3093 27.9653 96.6952 30 206.189Z" fill="#0B2051"/>
<path d="M376.117 163.071C377.713 248.981 239.355 366.629 165.5 368.001C91.6457 369.374 57.1086 287.771 55.5121 201.861C53.9157 115.951 165.645 11.3734 239.5 10.001C313.355 8.62857 374.52 77.1601 376.117 163.071ZM55.9907 201.852C57.5814 287.455 97.4099 361.369 171 360.001C244.591 358.634 383.091 243.604 381.501 158.001C379.91 72.3984 318.963 4.11208 245.373 5.47957C171.782 6.84706 54.4 116.249 55.9907 201.852Z" fill="#0B2051"/>
<ellipse cx="67" cy="342" rx="67" ry="62" fill="#B7DDEA"/>
<path d="M310.167 116.875H150.834C139.834 116.875 130.917 125.792 130.917 136.792V236.375C130.917 247.375 139.834 256.292 150.834 256.292H310.167C321.167 256.292 330.084 247.375 330.084 236.375V136.792C330.084 125.792 321.167 116.875 310.167 116.875Z" stroke="black" stroke-width="2" stroke-linecap="round" stroke-linejoin="round"/>
<path d="M190.667 296.125H270.334" stroke="black" stroke-width="2" stroke-linecap="round" stroke-linejoin="round"/>
<path d="M230.5 256.291V296.124" stroke="black" stroke-width="2" stroke-linecap="round" stroke-linejoin="round"/>
<ellipse cx="371" cy="299.5" rx="25" ry="25.5" fill="#D9EBF3"/>
<path d="M353.75 276.25L347.375 284.75V314.5C347.375 315.627 347.823 316.708 348.62 317.505C349.417 318.302 350.498 318.75 351.625 318.75H381.375C382.502 318.75 383.583 318.302 384.38 317.505C385.177 316.708 385.625 315.627 385.625 314.5V284.75L379.25 276.25H353.75Z" stroke="black" stroke-width="2" stroke-linecap="round" stroke-linejoin="round"/>
<path d="M347.375 284.75H385.625" stroke="black" stroke-width="2" stroke-linecap="round" stroke-linejoin="round"/>
<path d="M375 293.25C375 295.504 374.104 297.666 372.51 299.26C370.916 300.854 368.754 301.75 366.5 301.75C364.246 301.75 362.084 300.854 360.49 299.26C358.896 297.666 358 295.504 358 293.25" stroke="black" stroke-width="2" stroke-linecap="round" stroke-linejoin="round"/>
<circle cx="97" cy="104" r="30" fill="#A5D7E5"/>
<ellipse cx="359.5" cy="74.5" rx="33.5" ry="34.5" fill="#CFE7F0"/>
<path d="M82.3337 285.334H41.0003C38.2598 285.334 35.6314 286.423 33.6936 288.361C31.7557 290.298 30.667 292.927 30.667 295.667V378.334C30.667 381.075 31.7557 383.703 33.6936 385.641C35.6314 387.579 38.2598 388.667 41.0003 388.667H103C105.741 388.667 108.369 387.579 110.307 385.641C112.245 383.703 113.334 381.075 113.334 378.334V316.334L82.3337 285.334Z" stroke="black" stroke-width="2" stroke-linecap="round" stroke-linejoin="round"/>
<path d="M82.333 285.334V316.334H113.333" stroke="black" stroke-width="2" stroke-linecap="round" stroke-linejoin="round"/>
<path d="M92.6663 342.166H51.333" stroke="black" stroke-width="2" stroke-linecap="round" stroke-linejoin="round"/>
<path d="M92.6663 362.834H51.333" stroke="black" stroke-width="2" stroke-linecap="round" stroke-linejoin="round"/>
<path d="M61.6663 321.5H56.4997H51.333" stroke="black" stroke-width="2" stroke-linecap="round" stroke-linejoin="round"/>
<path d="M360.5 83.125C365.263 83.125 369.125 79.2635 369.125 74.5C369.125 69.7365 365.263 65.875 360.5 65.875C355.737 65.875 351.875 69.7365 351.875 74.5C351.875 79.2635 355.737 83.125 360.5 83.125Z" stroke="black" stroke-width="2" stroke-linecap="round" stroke-linejoin="round"/>
<path d="M381.775 83.125C381.392 83.9921 381.278 84.9541 381.447 85.8867C381.616 86.8193 382.061 87.6799 382.724 88.3575L382.896 88.53C383.431 89.064 383.855 89.6982 384.144 90.3962C384.434 91.0943 384.583 91.8425 384.583 92.5981C384.583 93.3538 384.434 94.102 384.144 94.8C383.855 95.4981 383.431 96.1322 382.896 96.6662C382.362 97.2009 381.728 97.625 381.03 97.9143C380.332 98.2037 379.584 98.3526 378.828 98.3526C378.072 98.3526 377.324 98.2037 376.626 97.9143C375.928 97.625 375.294 97.2009 374.76 96.6662L374.587 96.4937C373.91 95.831 373.049 95.3863 372.117 95.2172C371.184 95.0481 370.222 95.1623 369.355 95.545C368.505 95.9094 367.779 96.5146 367.269 97.2859C366.758 98.0572 366.484 98.9611 366.48 99.8862V100.375C366.48 101.9 365.874 103.363 364.796 104.441C363.718 105.519 362.255 106.125 360.73 106.125C359.205 106.125 357.742 105.519 356.664 104.441C355.586 103.363 354.98 101.9 354.98 100.375V100.116C354.958 99.1646 354.65 98.2417 354.096 97.4675C353.542 96.6933 352.768 96.1036 351.875 95.775C351.008 95.3923 350.046 95.2781 349.113 95.4472C348.181 95.6163 347.32 96.061 346.642 96.7237L346.47 96.8963C345.936 97.4309 345.302 97.855 344.604 98.1443C343.906 98.4337 343.158 98.5826 342.402 98.5826C341.646 98.5826 340.898 98.4337 340.2 98.1443C339.502 97.855 338.868 97.4309 338.334 96.8963C337.799 96.3622 337.375 95.7281 337.086 95.03C336.796 94.332 336.647 93.5838 336.647 92.8281C336.647 92.0725 336.796 91.3243 337.086 90.6262C337.375 89.9282 337.799 89.294 338.334 88.76L338.506 88.5875C339.169 87.9099 339.614 87.0493 339.783 86.1167C339.952 85.1841 339.838 84.2221 339.455 83.355C339.091 82.5047 338.485 81.7795 337.714 81.2686C336.943 80.7578 336.039 80.4837 335.114 80.48H334.625C333.1 80.48 331.637 79.8742 330.559 78.7959C329.481 77.7175 328.875 76.255 328.875 74.73C328.875 73.205 329.481 71.7425 330.559 70.6641C331.637 69.5858 333.1 68.98 334.625 68.98H334.884C335.835 68.9577 336.758 68.6497 337.532 68.096C338.307 67.5422 338.896 66.7684 339.225 65.875C339.608 65.0079 339.722 64.0459 339.553 63.1133C339.384 62.1807 338.939 61.3201 338.276 60.6425L338.104 60.47C337.569 59.936 337.145 59.3018 336.856 58.6038C336.566 57.9057 336.417 57.1575 336.417 56.4019C336.417 55.6462 336.566 54.898 336.856 54.2C337.145 53.5019 337.569 52.8678 338.104 52.3337C338.638 51.7991 339.272 51.375 339.97 51.0857C340.668 50.7963 341.416 50.6474 342.172 50.6474C342.928 50.6474 343.676 50.7963 344.374 51.0857C345.072 51.375 345.706 51.7991 346.24 52.3337L346.412 52.5062C347.09 53.169 347.951 53.6137 348.883 53.7828C349.816 53.9519 350.778 53.8377 351.645 53.455H351.875C352.725 53.0906 353.451 52.4854 353.961 51.7141C354.472 50.9428 354.746 50.0389 354.75 49.1138V48.625C354.75 47.1 355.356 45.6375 356.434 44.5591C357.512 43.4808 358.975 42.875 360.5 42.875C362.025 42.875 363.488 43.4808 364.566 44.5591C365.644 45.6375 366.25 47.1 366.25 48.625V48.8837C366.254 49.8089 366.528 50.7128 367.039 51.4841C367.549 52.2554 368.275 52.8606 369.125 53.225C369.992 53.6077 370.954 53.7219 371.887 53.5528C372.819 53.3837 373.68 52.939 374.357 52.2762L374.53 52.1038C375.064 51.5691 375.698 51.145 376.396 50.8557C377.094 50.5663 377.842 50.4174 378.598 50.4174C379.354 50.4174 380.102 50.5663 380.8 50.8557C381.498 51.145 382.132 51.5691 382.666 52.1038C383.201 52.6378 383.625 53.2719 383.914 53.97C384.204 54.668 384.353 55.4162 384.353 56.1719C384.353 56.9275 384.204 57.6757 383.914 58.3738C383.625 59.0718 383.201 59.706 382.666 60.24L382.494 60.4125C381.831 61.0901 381.386 61.9507 381.217 62.8833C381.048 63.8159 381.162 64.7779 381.545 65.645V65.875C381.909 66.7253 382.515 67.4505 383.286 67.9614C384.057 68.4722 384.961 68.7463 385.886 68.75H386.375C387.9 68.75 389.363 69.3558 390.441 70.4341C391.519 71.5125 392.125 72.975 392.125 74.5C392.125 76.025 391.519 77.4875 390.441 78.5659C389.363 79.6442 387.9 80.25 386.375 80.25H386.116C385.191 80.2537 384.287 80.5278 383.516 81.0386C382.745 81.5495 382.139 82.2747 381.775 83.125V83.125Z" stroke="black" stroke-width="2" stroke-linecap="round" stroke-linejoin="round"/>
<path d="M112 91H80C77.7909 91 76 92.7909 76 95V115C76 117.209 77.7909 119 80 119H112C114.209 119 116 117.209 116 115V95C116 92.7909 114.209 91 112 91Z" stroke="black" stroke-width="2" stroke-linecap="round" stroke-linejoin="round"/>
<path d="M104 119V87C104 85.9391 103.579 84.9217 102.828 84.1716C102.078 83.4214 101.061 83 100 83H92C90.9391 83 89.9217 83.4214 89.1716 84.1716C88.4214 84.9217 88 85.9391 88 87V119" stroke="black" stroke-width="2" stroke-linecap="round" stroke-linejoin="round"/>
</svg>
