<svg width="337" height="451" viewBox="0 0 337 451" fill="none" xmlns="http://www.w3.org/2000/svg">
<path d="M287.357 213.71C254.048 284.177 190.771 322.024 146.023 298.243C101.275 274.462 92.0021 198.059 125.311 127.592C158.619 57.1249 221.896 19.2782 266.644 43.0591C311.392 66.84 320.665 143.243 287.357 213.71ZM125.601 127.746C92.4112 197.961 101.651 274.091 146.239 297.786C190.827 321.482 253.877 283.771 287.067 213.556C320.256 143.341 311.016 67.2115 266.428 43.5157C221.841 19.8199 158.79 57.5311 125.601 127.746Z" fill="#4EC285"/>
<path d="M287.357 213.71C254.048 284.177 190.771 322.024 146.023 298.243C101.275 274.462 92.0021 198.059 125.311 127.592C158.619 57.1249 221.896 19.2782 266.644 43.0591C311.392 66.84 320.665 143.243 287.357 213.71ZM125.601 127.746C92.4112 197.961 101.651 274.091 146.239 297.786C190.827 321.482 253.877 283.771 287.067 213.556C320.256 143.341 311.016 67.2115 266.428 43.5157C221.841 19.8199 158.79 57.5311 125.601 127.746Z" fill="#4EC285"/>
<path d="M296.505 218.921C263.196 289.388 199.919 327.235 155.172 303.454C110.424 279.673 101.15 203.27 134.459 132.803C167.768 62.3358 231.045 24.4892 275.793 48.2701C320.54 72.051 329.814 148.454 296.505 218.921ZM134.749 132.957C101.56 203.172 110.8 279.302 155.387 302.997C199.975 326.693 263.026 288.982 296.215 218.767C329.404 148.552 320.164 72.4225 275.577 48.7267C230.989 25.0309 167.938 62.7421 134.749 132.957Z" fill="#4EC285"/>
<path d="M296.505 218.921C263.196 289.388 199.919 327.235 155.172 303.454C110.424 279.673 101.15 203.27 134.459 132.803C167.768 62.3358 231.045 24.4892 275.793 48.2701C320.54 72.051 329.814 148.454 296.505 218.921ZM134.749 132.957C101.56 203.172 110.8 279.302 155.387 302.997C199.975 326.693 263.026 288.982 296.215 218.767C329.404 148.552 320.164 72.4225 275.577 48.7267C230.989 25.0309 167.938 62.7421 134.749 132.957Z" fill="#4EC285"/>
<path d="M305.302 223.927C271.993 294.394 208.716 332.241 163.968 308.46C119.221 284.679 109.947 208.276 143.256 137.809C176.564 67.3417 239.842 29.495 284.589 53.2759C329.337 77.0568 338.61 153.46 305.302 223.927ZM143.546 137.963C110.357 208.178 119.597 284.307 164.184 308.003C208.772 331.699 271.823 293.988 305.012 223.773C338.201 153.558 328.961 77.4283 284.374 53.7325C239.786 30.0367 176.735 67.7479 143.546 137.963Z" fill="#4EC285"/>
<path d="M305.302 223.927C271.993 294.394 208.716 332.241 163.968 308.46C119.221 284.679 109.947 208.276 143.256 137.809C176.564 67.3417 239.842 29.495 284.589 53.2759C329.337 77.0568 338.61 153.46 305.302 223.927ZM143.546 137.963C110.357 208.178 119.597 284.307 164.184 308.003C208.772 331.699 271.823 293.988 305.012 223.773C338.201 153.558 328.961 77.4283 284.374 53.7325C239.786 30.0367 176.735 67.7479 143.546 137.963Z" fill="#4EC285"/>
<path d="M275.299 217.274C244.217 283.031 190.542 321.204 155.412 302.534C120.282 283.865 117.001 215.423 148.084 149.666C179.166 83.9085 232.842 45.7361 267.971 64.4056C303.101 83.075 306.382 151.517 275.299 217.274ZM148.311 149.787C117.34 215.309 120.609 283.506 155.613 302.108C190.617 320.711 244.101 282.675 275.072 217.153C306.043 151.631 302.774 83.4343 267.77 64.8317C232.766 46.229 179.282 84.2648 148.311 149.787Z" fill="#4EC285"/>
<path d="M275.299 217.274C244.217 283.031 190.542 321.204 155.412 302.534C120.282 283.865 117.001 215.423 148.084 149.666C179.166 83.9085 232.842 45.7361 267.971 64.4056C303.101 83.075 306.382 151.517 275.299 217.274ZM148.311 149.787C117.34 215.309 120.609 283.506 155.613 302.108C190.617 320.711 244.101 282.675 275.072 217.153C306.043 151.631 302.774 83.4343 267.77 64.8317C232.766 46.229 179.282 84.2648 148.311 149.787Z" fill="#4EC285"/>
<path d="M222.357 312.71C189.048 383.177 125.771 421.024 81.0231 397.243C36.2754 373.462 27.0021 297.059 60.3106 226.592C93.6192 156.125 156.896 118.278 201.644 142.059C246.392 165.84 255.665 242.243 222.357 312.71ZM60.6006 226.746C27.4112 296.961 36.6513 373.091 81.239 396.786C125.827 420.482 188.877 382.771 222.067 312.556C255.256 242.341 246.016 166.212 201.428 142.516C156.841 118.82 93.7899 156.531 60.6006 226.746Z" fill="#4EC285"/>
<path d="M222.357 312.71C189.048 383.177 125.771 421.024 81.0231 397.243C36.2754 373.462 27.0021 297.059 60.3106 226.592C93.6192 156.125 156.896 118.278 201.644 142.059C246.392 165.84 255.665 242.243 222.357 312.71ZM60.6006 226.746C27.4112 296.961 36.6513 373.091 81.239 396.786C125.827 420.482 188.877 382.771 222.067 312.556C255.256 242.341 246.016 166.212 201.428 142.516C156.841 118.82 93.7899 156.531 60.6006 226.746Z" fill="#4EC285"/>
<path d="M231.505 317.921C198.196 388.388 134.919 426.235 90.1716 402.454C45.4238 378.673 36.1505 302.27 69.4591 231.803C102.768 161.336 166.045 123.489 210.793 147.27C255.54 171.051 264.814 247.454 231.505 317.921ZM69.749 231.957C36.5596 302.172 45.7998 378.302 90.3874 401.997C134.975 425.693 198.026 387.982 231.215 317.767C264.404 247.552 255.164 171.422 210.577 147.727C165.989 124.031 102.938 161.742 69.749 231.957Z" fill="#4EC285"/>
<path d="M231.505 317.921C198.196 388.388 134.919 426.235 90.1716 402.454C45.4238 378.673 36.1505 302.27 69.4591 231.803C102.768 161.336 166.045 123.489 210.793 147.27C255.54 171.051 264.814 247.454 231.505 317.921ZM69.749 231.957C36.5596 302.172 45.7998 378.302 90.3874 401.997C134.975 425.693 198.026 387.982 231.215 317.767C264.404 247.552 255.164 171.422 210.577 147.727C165.989 124.031 102.938 161.742 69.749 231.957Z" fill="#4EC285"/>
<path d="M240.302 322.927C206.993 393.394 143.716 431.241 98.9685 407.46C54.2207 383.679 44.9474 307.276 78.2559 236.809C111.564 166.342 174.842 128.495 219.589 152.276C264.337 176.057 273.61 252.46 240.302 322.927ZM78.5459 236.963C45.3565 307.178 54.5966 383.307 99.1843 407.003C143.772 430.699 206.823 392.988 240.012 322.773C273.201 252.558 263.961 176.428 219.374 152.733C174.786 129.037 111.735 166.748 78.5459 236.963Z" fill="#4EC285"/>
<path d="M240.302 322.927C206.993 393.394 143.716 431.241 98.9685 407.46C54.2207 383.679 44.9474 307.276 78.2559 236.809C111.564 166.342 174.842 128.495 219.589 152.276C264.337 176.057 273.61 252.46 240.302 322.927ZM78.5459 236.963C45.3565 307.178 54.5966 383.307 99.1843 407.003C143.772 430.699 206.823 392.988 240.012 322.773C273.201 252.558 263.961 176.428 219.374 152.733C174.786 129.037 111.735 166.748 78.5459 236.963Z" fill="#4EC285"/>
<path d="M210.299 316.274C179.217 382.031 125.542 420.204 90.4118 401.534C55.2822 382.865 52.0012 314.423 83.0836 248.666C114.166 182.909 167.842 144.736 202.971 163.406C238.101 182.075 241.382 250.517 210.299 316.274ZM83.3112 248.787C52.3401 314.309 55.6093 382.506 90.6133 401.108C125.617 419.711 179.101 381.675 210.072 316.153C241.043 250.631 237.774 182.434 202.77 163.832C167.766 145.229 114.282 183.265 83.3112 248.787Z" fill="#4EC285"/>
<path d="M210.299 316.274C179.217 382.031 125.542 420.204 90.4118 401.534C55.2822 382.865 52.0012 314.423 83.0836 248.666C114.166 182.909 167.842 144.736 202.971 163.406C238.101 182.075 241.382 250.517 210.299 316.274ZM83.3112 248.787C52.3401 314.309 55.6093 382.506 90.6133 401.108C125.617 419.711 179.101 381.675 210.072 316.153C241.043 250.631 237.774 182.434 202.77 163.832C167.766 145.229 114.282 183.265 83.3112 248.787Z" fill="#4EC285"/>
<path d="M287.357 213.71C254.048 284.177 190.771 322.024 146.023 298.243C101.275 274.462 92.0021 198.059 125.311 127.592C158.619 57.1249 221.896 19.2782 266.644 43.0591C311.392 66.84 320.665 143.243 287.357 213.71ZM125.601 127.746C92.4112 197.961 101.651 274.091 146.239 297.786C190.827 321.482 253.877 283.771 287.067 213.556C320.256 143.341 311.016 67.2115 266.428 43.5157C221.841 19.8199 158.79 57.5311 125.601 127.746Z" fill="#4EC285"/>
<path d="M287.357 213.71C254.048 284.177 190.771 322.024 146.023 298.243C101.275 274.462 92.0021 198.059 125.311 127.592C158.619 57.1249 221.896 19.2782 266.644 43.0591C311.392 66.84 320.665 143.243 287.357 213.71ZM125.601 127.746C92.4112 197.961 101.651 274.091 146.239 297.786C190.827 321.482 253.877 283.771 287.067 213.556C320.256 143.341 311.016 67.2115 266.428 43.5157C221.841 19.8199 158.79 57.5311 125.601 127.746Z" fill="#4EC285"/>
<path d="M296.505 218.921C263.196 289.388 199.919 327.235 155.172 303.454C110.424 279.673 101.15 203.27 134.459 132.803C167.768 62.3358 231.045 24.4892 275.793 48.2701C320.54 72.051 329.814 148.454 296.505 218.921ZM134.749 132.957C101.56 203.172 110.8 279.302 155.387 302.997C199.975 326.693 263.026 288.982 296.215 218.767C329.404 148.552 320.164 72.4225 275.577 48.7267C230.989 25.0309 167.938 62.7421 134.749 132.957Z" fill="#4EC285"/>
<path d="M296.505 218.921C263.196 289.388 199.919 327.235 155.172 303.454C110.424 279.673 101.15 203.27 134.459 132.803C167.768 62.3358 231.045 24.4892 275.793 48.2701C320.54 72.051 329.814 148.454 296.505 218.921ZM134.749 132.957C101.56 203.172 110.8 279.302 155.387 302.997C199.975 326.693 263.026 288.982 296.215 218.767C329.404 148.552 320.164 72.4225 275.577 48.7267C230.989 25.0309 167.938 62.7421 134.749 132.957Z" fill="#4EC285"/>
<path d="M305.302 223.927C271.993 294.394 208.716 332.241 163.968 308.46C119.221 284.679 109.947 208.276 143.256 137.809C176.564 67.3417 239.842 29.495 284.589 53.2759C329.337 77.0568 338.61 153.46 305.302 223.927ZM143.546 137.963C110.357 208.178 119.597 284.307 164.184 308.003C208.772 331.699 271.823 293.988 305.012 223.773C338.201 153.558 328.961 77.4283 284.374 53.7325C239.786 30.0367 176.735 67.7479 143.546 137.963Z" fill="#4EC285"/>
<path d="M305.302 223.927C271.993 294.394 208.716 332.241 163.968 308.46C119.221 284.679 109.947 208.276 143.256 137.809C176.564 67.3417 239.842 29.495 284.589 53.2759C329.337 77.0568 338.61 153.46 305.302 223.927ZM143.546 137.963C110.357 208.178 119.597 284.307 164.184 308.003C208.772 331.699 271.823 293.988 305.012 223.773C338.201 153.558 328.961 77.4283 284.374 53.7325C239.786 30.0367 176.735 67.7479 143.546 137.963Z" fill="#4EC285"/>
<path d="M275.299 217.274C244.217 283.031 190.542 321.204 155.412 302.534C120.282 283.865 117.001 215.423 148.084 149.666C179.166 83.9085 232.842 45.7361 267.971 64.4056C303.101 83.075 306.382 151.517 275.299 217.274ZM148.311 149.787C117.34 215.309 120.609 283.506 155.613 302.108C190.617 320.711 244.101 282.675 275.072 217.153C306.043 151.631 302.774 83.4343 267.77 64.8317C232.766 46.229 179.282 84.2648 148.311 149.787Z" fill="#4EC285"/>
<path d="M275.299 217.274C244.217 283.031 190.542 321.204 155.412 302.534C120.282 283.865 117.001 215.423 148.084 149.666C179.166 83.9085 232.842 45.7361 267.971 64.4056C303.101 83.075 306.382 151.517 275.299 217.274ZM148.311 149.787C117.34 215.309 120.609 283.506 155.613 302.108C190.617 320.711 244.101 282.675 275.072 217.153C306.043 151.631 302.774 83.4343 267.77 64.8317C232.766 46.229 179.282 84.2648 148.311 149.787Z" fill="#4EC285"/>
</svg>
