<svg width="321" height="344" viewBox="0 0 321 344" fill="none" xmlns="http://www.w3.org/2000/svg">
<path d="M249.476 120.391C274.945 180.457 246.71 253.248 186.412 282.974C126.113 312.699 56.5847 288.103 31.1157 228.037C5.64671 167.971 33.8816 95.1799 94.1801 65.4543C154.479 35.7286 224.007 60.3245 249.476 120.391ZM31.5064 227.844C56.8843 287.696 126.164 312.204 186.247 282.584C246.329 252.965 274.463 180.435 249.085 120.583C223.707 60.7321 154.428 36.2242 94.3452 65.8435C34.2624 95.4628 6.12857 167.993 31.5064 227.844Z" fill="#3AF090"/>
<path d="M249.476 120.391C274.945 180.457 246.71 253.248 186.412 282.974C126.113 312.699 56.5847 288.103 31.1157 228.037C5.64671 167.971 33.8816 95.1799 94.1801 65.4543C154.479 35.7286 224.007 60.3245 249.476 120.391ZM31.5064 227.844C56.8843 287.696 126.164 312.204 186.247 282.584C246.329 252.965 274.463 180.435 249.085 120.583C223.707 60.7321 154.428 36.2242 94.3452 65.8435C34.2624 95.4628 6.12857 167.993 31.5064 227.844Z" fill="#3AE089"/>
<path d="M262.085 114.461C287.554 174.527 259.319 247.318 199.021 277.044C138.722 306.769 69.1941 282.174 43.7251 222.107C18.2561 162.041 46.491 89.2502 106.79 59.5246C167.088 29.7989 236.616 54.3948 262.085 114.461ZM44.1158 221.915C69.4937 281.766 138.773 306.274 198.856 276.655C258.939 247.035 287.073 174.505 261.695 114.654C236.317 54.8024 167.037 30.2945 106.955 59.9138C46.8718 89.5331 18.7379 162.063 44.1158 221.915Z" fill="#3AF090"/>
<path d="M262.085 114.461C287.554 174.527 259.319 247.318 199.021 277.044C138.722 306.769 69.1941 282.174 43.7251 222.107C18.2561 162.041 46.491 89.2502 106.79 59.5246C167.088 29.7989 236.616 54.3948 262.085 114.461ZM44.1158 221.915C69.4937 281.766 138.773 306.274 198.856 276.655C258.939 247.035 287.073 174.505 261.695 114.654C236.317 54.8024 167.037 30.2945 106.955 59.9138C46.8718 89.5331 18.7379 162.063 44.1158 221.915Z" fill="#3AE089"/>
<path d="M274.203 108.76C299.672 168.826 271.437 241.617 211.138 271.343C150.84 301.068 81.3113 276.472 55.8423 216.406C30.3733 156.34 58.6082 83.5491 118.907 53.8234C179.205 24.0977 248.734 48.6936 274.203 108.76ZM56.233 216.213C81.6109 276.065 150.89 300.573 210.973 270.953C271.056 241.334 299.19 168.804 273.812 108.953C248.434 49.1012 179.154 24.5933 119.072 54.2126C58.989 83.8319 30.8551 156.362 56.233 216.213Z" fill="#3AF090"/>
<path d="M274.203 108.76C299.672 168.826 271.437 241.617 211.138 271.343C150.84 301.068 81.3113 276.472 55.8423 216.406C30.3733 156.34 58.6082 83.5491 118.907 53.8234C179.205 24.0977 248.734 48.6936 274.203 108.76ZM56.233 216.213C81.6109 276.065 150.89 300.573 210.973 270.953C271.056 241.334 299.19 168.804 273.812 108.953C248.434 49.1012 179.154 24.5933 119.072 54.2126C58.989 83.8319 30.8551 156.362 56.233 216.213Z" fill="#3AE089"/>
<path d="M241.186 132.689C264.953 188.741 245.845 253.098 198.507 276.434C151.169 299.771 93.527 273.25 69.7602 217.198C45.9934 161.146 65.1016 96.7891 112.44 73.4527C159.777 50.1162 217.419 76.6373 241.186 132.689ZM70.0669 217.047C93.7487 272.898 151.184 299.324 198.353 276.071C245.521 252.818 264.561 188.692 240.879 132.84C217.198 76.9891 159.762 50.5629 112.594 73.8159C65.425 97.0688 46.3852 161.195 70.0669 217.047Z" fill="#3AF090"/>
<path d="M241.186 132.689C264.953 188.741 245.845 253.098 198.507 276.434C151.169 299.771 93.527 273.25 69.7602 217.198C45.9934 161.146 65.1016 96.7891 112.44 73.4527C159.777 50.1162 217.419 76.6373 241.186 132.689ZM70.0669 217.047C93.7487 272.898 151.184 299.324 198.353 276.071C245.521 252.818 264.561 188.692 240.879 132.84C217.198 76.9891 159.762 50.5629 112.594 73.8159C65.425 97.0688 46.3852 161.195 70.0669 217.047Z" fill="#3AE089"/>
<path d="M244.065 325.844C204.536 321.495 162.756 297.829 150.745 272.985C138.735 248.141 161.043 231.526 200.572 235.875C240.1 240.224 281.881 263.89 293.891 288.735C305.901 313.579 283.593 330.194 244.065 325.844ZM200.65 236.036C161.263 231.703 139.034 248.258 151.002 273.013C162.969 297.769 204.6 321.35 243.987 325.683C283.374 330.017 305.602 313.462 293.635 288.706C281.668 263.951 240.037 240.37 200.65 236.036Z" fill="#3AF090"/>
<path d="M244.065 325.844C204.536 321.495 162.756 297.829 150.745 272.985C138.735 248.141 161.043 231.526 200.572 235.875C240.1 240.224 281.881 263.89 293.891 288.735C305.901 313.579 283.593 330.194 244.065 325.844ZM200.65 236.036C161.263 231.703 139.034 248.258 151.002 273.013C162.969 297.769 204.6 321.35 243.987 325.683C283.374 330.017 305.602 313.462 293.635 288.706C281.668 263.951 240.037 240.37 200.65 236.036Z" fill="#3AE089"/>
<path d="M246.401 330.981C206.872 326.632 165.092 302.966 153.081 278.122C141.071 253.277 163.379 236.663 202.908 241.012C242.436 245.361 284.217 269.027 296.227 293.871C308.237 318.716 285.929 335.33 246.401 330.981ZM202.986 241.173C163.598 236.839 141.37 253.394 153.338 278.15C165.305 302.905 206.936 326.487 246.323 330.82C285.71 335.154 307.938 318.599 295.971 293.843C284.004 269.088 242.373 245.506 202.986 241.173Z" fill="#3AF090"/>
<path d="M246.401 330.981C206.872 326.632 165.092 302.966 153.081 278.122C141.071 253.277 163.379 236.663 202.908 241.012C242.436 245.361 284.217 269.027 296.227 293.871C308.237 318.716 285.929 335.33 246.401 330.981ZM202.986 241.173C163.598 236.839 141.37 253.394 153.338 278.15C165.305 302.905 206.936 326.487 246.323 330.82C285.71 335.154 307.938 318.599 295.971 293.843C284.004 269.088 242.373 245.506 202.986 241.173Z" fill="#3AE089"/>
<path d="M248.647 335.917C209.118 331.568 167.338 307.902 155.328 283.057C143.317 258.213 165.625 241.598 205.154 245.947C244.682 250.297 286.463 273.963 298.473 298.807C310.483 323.651 288.175 340.266 248.647 335.917ZM205.232 246.108C165.845 241.775 143.616 258.33 155.584 283.085C167.551 307.841 209.182 331.422 248.569 335.756C287.956 340.089 310.184 323.534 298.217 298.779C286.25 274.023 244.619 250.442 205.232 246.108Z" fill="#3AF090"/>
<path d="M248.647 335.917C209.118 331.568 167.338 307.902 155.328 283.057C143.317 258.213 165.625 241.598 205.154 245.947C244.682 250.297 286.463 273.963 298.473 298.807C310.483 323.651 288.175 340.266 248.647 335.917ZM205.232 246.108C165.845 241.775 143.616 258.33 155.584 283.085C167.551 307.841 209.182 331.422 248.569 335.756C287.956 340.089 310.184 323.534 298.217 298.779C286.25 274.023 244.619 250.442 205.232 246.108Z" fill="#3AE089"/>
<path d="M237.371 320.75C200.484 316.691 162.938 297.59 153.509 278.085C144.081 258.581 166.34 246.06 203.226 250.118C240.113 254.177 277.659 273.278 287.088 292.782C296.517 312.287 274.258 324.808 237.371 320.75ZM203.287 250.245C166.533 246.201 144.353 258.677 153.748 278.112C163.143 297.546 200.555 316.579 237.31 320.623C274.064 324.667 296.244 312.191 286.849 292.756C277.454 273.322 240.042 254.289 203.287 250.245Z" fill="#3AF090"/>
<path d="M237.371 320.75C200.484 316.691 162.938 297.59 153.509 278.085C144.081 258.581 166.34 246.06 203.226 250.118C240.113 254.177 277.659 273.278 287.088 292.782C296.517 312.287 274.258 324.808 237.371 320.75ZM203.287 250.245C166.533 246.201 144.353 258.677 153.748 278.112C163.143 297.546 200.555 316.579 237.31 320.623C274.064 324.667 296.244 312.191 286.849 292.756C277.454 273.322 240.042 254.289 203.287 250.245Z" fill="#3AE089"/>
</svg>
