<svg width="296" height="344" viewBox="0 0 296 344" fill="none" xmlns="http://www.w3.org/2000/svg">
<path d="M224.476 120.391C249.945 180.457 221.71 253.248 161.412 282.974C101.113 312.699 31.5847 288.103 6.11572 228.037C-19.3533 167.971 8.88161 95.1799 69.1801 65.4543C129.479 35.7286 199.007 60.3245 224.476 120.391ZM6.50644 227.844C31.8843 287.696 101.164 312.204 161.247 282.584C221.329 252.965 249.463 180.435 224.085 120.583C198.707 60.7321 129.428 36.2242 69.3452 65.8435C9.26243 95.4628 -18.8714 167.993 6.50644 227.844Z" fill="#3AF090"/>
<path d="M224.476 120.391C249.945 180.457 221.71 253.248 161.412 282.974C101.113 312.699 31.5847 288.103 6.11572 228.037C-19.3533 167.971 8.88161 95.1799 69.1801 65.4543C129.479 35.7286 199.007 60.3245 224.476 120.391ZM6.50644 227.844C31.8843 287.696 101.164 312.204 161.247 282.584C221.329 252.965 249.463 180.435 224.085 120.583C198.707 60.7321 129.428 36.2242 69.3452 65.8435C9.26243 95.4628 -18.8714 167.993 6.50644 227.844Z" fill="#3AE089"/>
<path d="M237.085 114.461C262.554 174.527 234.319 247.318 174.021 277.044C113.722 306.769 44.1941 282.174 18.7251 222.107C-6.74391 162.041 21.491 89.2502 81.7895 59.5246C142.088 29.7989 211.616 54.3948 237.085 114.461ZM19.1158 221.915C44.4937 281.766 113.773 306.274 173.856 276.655C233.939 247.035 262.073 174.505 236.695 114.654C211.317 54.8024 142.037 30.2945 81.9545 59.9138C21.8718 89.5331 -6.26205 162.063 19.1158 221.915Z" fill="#3AF090"/>
<path d="M237.085 114.461C262.554 174.527 234.319 247.318 174.021 277.044C113.722 306.769 44.1941 282.174 18.7251 222.107C-6.74391 162.041 21.491 89.2502 81.7895 59.5246C142.088 29.7989 211.616 54.3948 237.085 114.461ZM19.1158 221.915C44.4937 281.766 113.773 306.274 173.856 276.655C233.939 247.035 262.073 174.505 236.695 114.654C211.317 54.8024 142.037 30.2945 81.9545 59.9138C21.8718 89.5331 -6.26205 162.063 19.1158 221.915Z" fill="#3AE089"/>
<path d="M249.203 108.76C274.672 168.826 246.437 241.617 186.138 271.343C125.84 301.068 56.3113 276.472 30.8423 216.406C5.37327 156.34 33.6082 83.5491 93.9067 53.8234C154.205 24.0977 223.734 48.6936 249.203 108.76ZM31.233 216.213C56.6109 276.065 125.89 300.573 185.973 270.953C246.056 241.334 274.19 168.804 248.812 108.953C223.434 49.1012 154.154 24.5933 94.0717 54.2126C33.989 83.8319 5.85514 156.362 31.233 216.213Z" fill="#3AF090"/>
<path d="M249.203 108.76C274.672 168.826 246.437 241.617 186.138 271.343C125.84 301.068 56.3113 276.472 30.8423 216.406C5.37327 156.34 33.6082 83.5491 93.9067 53.8234C154.205 24.0977 223.734 48.6936 249.203 108.76ZM31.233 216.213C56.6109 276.065 125.89 300.573 185.973 270.953C246.056 241.334 274.19 168.804 248.812 108.953C223.434 49.1012 154.154 24.5933 94.0717 54.2126C33.989 83.8319 5.85514 156.362 31.233 216.213Z" fill="#3AE089"/>
<path d="M216.186 132.689C239.953 188.741 220.845 253.098 173.507 276.434C126.169 299.771 68.527 273.25 44.7602 217.198C20.9934 161.146 40.1016 96.7891 87.4395 73.4527C134.777 50.1162 192.419 76.6373 216.186 132.689ZM45.0669 217.047C68.7487 272.898 126.184 299.324 173.353 276.071C220.521 252.818 239.561 188.692 215.879 132.84C192.198 76.9891 134.762 50.5629 87.5935 73.8159C40.425 97.0688 21.3852 161.195 45.0669 217.047Z" fill="#3AF090"/>
<path d="M216.186 132.689C239.953 188.741 220.845 253.098 173.507 276.434C126.169 299.771 68.527 273.25 44.7602 217.198C20.9934 161.146 40.1016 96.7891 87.4395 73.4527C134.777 50.1162 192.419 76.6373 216.186 132.689ZM45.0669 217.047C68.7487 272.898 126.184 299.324 173.353 276.071C220.521 252.818 239.561 188.692 215.879 132.84C192.198 76.9891 134.762 50.5629 87.5935 73.8159C40.425 97.0688 21.3852 161.195 45.0669 217.047Z" fill="#3AE089"/>
<path d="M219.065 325.844C179.536 321.495 137.756 297.829 125.745 272.985C113.735 248.141 136.043 231.526 175.572 235.875C215.1 240.224 256.881 263.89 268.891 288.735C280.901 313.579 258.593 330.194 219.065 325.844ZM175.65 236.036C136.263 231.703 114.034 248.258 126.002 273.013C137.969 297.769 179.6 321.35 218.987 325.683C258.374 330.017 280.602 313.462 268.635 288.706C256.668 263.951 215.037 240.37 175.65 236.036Z" fill="#3AF090"/>
<path d="M219.065 325.844C179.536 321.495 137.756 297.829 125.745 272.985C113.735 248.141 136.043 231.526 175.572 235.875C215.1 240.224 256.881 263.89 268.891 288.735C280.901 313.579 258.593 330.194 219.065 325.844ZM175.65 236.036C136.263 231.703 114.034 248.258 126.002 273.013C137.969 297.769 179.6 321.35 218.987 325.683C258.374 330.017 280.602 313.462 268.635 288.706C256.668 263.951 215.037 240.37 175.65 236.036Z" fill="#3AE089"/>
<path d="M221.401 330.981C181.872 326.632 140.092 302.966 128.081 278.122C116.071 253.277 138.379 236.663 177.908 241.012C217.436 245.361 259.217 269.027 271.227 293.871C283.237 318.716 260.929 335.33 221.401 330.981ZM177.986 241.173C138.598 236.839 116.37 253.394 128.338 278.15C140.305 302.905 181.936 326.487 221.323 330.82C260.71 335.154 282.938 318.599 270.971 293.843C259.004 269.088 217.373 245.506 177.986 241.173Z" fill="#3AF090"/>
<path d="M221.401 330.981C181.872 326.632 140.092 302.966 128.081 278.122C116.071 253.277 138.379 236.663 177.908 241.012C217.436 245.361 259.217 269.027 271.227 293.871C283.237 318.716 260.929 335.33 221.401 330.981ZM177.986 241.173C138.598 236.839 116.37 253.394 128.338 278.15C140.305 302.905 181.936 326.487 221.323 330.82C260.71 335.154 282.938 318.599 270.971 293.843C259.004 269.088 217.373 245.506 177.986 241.173Z" fill="#3AE089"/>
<path d="M223.647 335.917C184.118 331.568 142.338 307.902 130.328 283.057C118.317 258.213 140.625 241.598 180.154 245.947C219.682 250.297 261.463 273.963 273.473 298.807C285.483 323.651 263.175 340.266 223.647 335.917ZM180.232 246.108C140.845 241.775 118.616 258.33 130.584 283.085C142.551 307.841 184.182 331.422 223.569 335.756C262.956 340.089 285.184 323.534 273.217 298.779C261.25 274.023 219.619 250.442 180.232 246.108Z" fill="#3AF090"/>
<path d="M223.647 335.917C184.118 331.568 142.338 307.902 130.328 283.057C118.317 258.213 140.625 241.598 180.154 245.947C219.682 250.297 261.463 273.963 273.473 298.807C285.483 323.651 263.175 340.266 223.647 335.917ZM180.232 246.108C140.845 241.775 118.616 258.33 130.584 283.085C142.551 307.841 184.182 331.422 223.569 335.756C262.956 340.089 285.184 323.534 273.217 298.779C261.25 274.023 219.619 250.442 180.232 246.108Z" fill="#3AE089"/>
<path d="M212.371 320.75C175.484 316.691 137.938 297.59 128.509 278.085C119.081 258.581 141.34 246.06 178.226 250.118C215.113 254.177 252.659 273.278 262.088 292.782C271.517 312.287 249.258 324.808 212.371 320.75ZM178.287 250.245C141.533 246.201 119.353 258.677 128.748 278.112C138.143 297.546 175.555 316.579 212.31 320.623C249.064 324.667 271.244 312.191 261.849 292.756C252.454 273.322 215.042 254.289 178.287 250.245Z" fill="#3AF090"/>
<path d="M212.371 320.75C175.484 316.691 137.938 297.59 128.509 278.085C119.081 258.581 141.34 246.06 178.226 250.118C215.113 254.177 252.659 273.278 262.088 292.782C271.517 312.287 249.258 324.808 212.371 320.75ZM178.287 250.245C141.533 246.201 119.353 258.677 128.748 278.112C138.143 297.546 175.555 316.579 212.31 320.623C249.064 324.667 271.244 312.191 261.849 292.756C252.454 273.322 215.042 254.289 178.287 250.245Z" fill="#3AE089"/>
</svg>
