<svg width="1280" height="837" viewBox="0 0 1280 837" fill="none" xmlns="http://www.w3.org/2000/svg">
<path d="M1231 151.455C1231 129.364 1213.09 111.455 1191 111.455H535.816C525.061 111.455 514.758 107.124 507.234 99.4389L421.64 12.0162C414.116 4.33116 403.814 0 393.058 0H71.875C49.7836 0 31.875 17.9086 31.875 40V760.609C31.875 782.7 49.7836 800.609 71.875 800.609H1191C1213.09 800.609 1231 782.7 1231 760.609V151.455Z" fill="black"/>
<path d="M33.375 40V760.609C33.375 781.872 50.6121 799.109 71.875 799.109H1191C1212.26 799.109 1229.5 781.872 1229.5 760.609V151.455C1229.5 130.192 1212.26 112.955 1191 112.955H535.816C524.657 112.955 513.969 108.462 506.162 100.488L420.568 13.0656C413.326 5.66875 403.41 1.5 393.058 1.5H71.875C50.6121 1.5 33.375 18.737 33.375 40Z" stroke="#2B313F" stroke-opacity="0.3" stroke-width="3"/>
<path d="M1.5 58.5781V797C1.5 818.263 18.7371 835.5 40 835.5H1174C1195.26 835.5 1212.5 818.263 1212.5 797V169.777C1212.5 148.514 1195.26 131.277 1174 131.277H527.669C516.605 131.277 506 126.859 498.208 119.005L411.357 31.4627C404.128 24.1764 394.289 20.0781 384.025 20.0781H40C18.7371 20.0781 1.5 37.3152 1.5 58.5781Z" fill="white" stroke="#C3CDDC" stroke-width="3"/>
</svg>
