<svg width="106" height="106" viewBox="0 0 106 106" fill="none" xmlns="http://www.w3.org/2000/svg">
<g clip-path="url(#clip0_388_958)">
<path d="M81.1077 76.6913L53 104.799L24.8924 76.6913C19.3333 71.1321 15.5475 64.0494 14.0138 56.3386C12.48 48.6279 13.2673 40.6355 16.2759 33.3722C19.2845 26.1089 24.3793 19.9008 30.9162 15.533C37.453 11.1653 45.1382 8.83398 53 8.83398C60.8618 8.83398 68.547 11.1653 75.0839 15.533C81.6207 19.9008 86.7156 26.1089 89.7242 33.3722C92.7328 40.6355 93.52 48.6279 91.9863 56.3386C90.4525 64.0494 86.6668 71.1321 81.1077 76.6913ZM53 57.417C55.3428 57.417 57.5896 56.4863 59.2461 54.8297C60.9027 53.1732 61.8333 50.9264 61.8333 48.5836C61.8333 46.2409 60.9027 43.9941 59.2461 42.3375C57.5896 40.681 55.3428 39.7503 53 39.7503C50.6573 39.7503 48.4105 40.681 46.7539 42.3375C45.0973 43.9941 44.1667 46.2409 44.1667 48.5836C44.1667 50.9264 45.0973 53.1732 46.7539 54.8297C48.4105 56.4863 50.6573 57.417 53 57.417Z" fill="#1D5688"/>
</g>
<defs>
<clipPath id="clip0_388_958">
<rect width="106" height="106" fill="white"/>
</clipPath>
</defs>
</svg>
