<svg width="729" height="721" viewBox="0 0 729 721" fill="none" xmlns="http://www.w3.org/2000/svg">
<g opacity="0.4">
<path d="M273 98V721" stroke="#6F6F6F"/>
<path d="M160 531V721" stroke="black"/>
<path d="M50 549V721" stroke="#6F6F6F"/>
<path d="M600 649L600 721" stroke="#6F6F6F"/>
<path d="M490 649L490 721" stroke="#6F6F6F"/>
<path d="M380 212L380 721" stroke="#6F6F6F"/>
<path d="M490 158L490 544" stroke="#6F6F6F"/>
<path d="M597 158L597 587" stroke="#6F6F6F"/>
<path d="M710 0L710 721" stroke="#6F6F6F"/>
<path d="M729 244L250 244" stroke="#6F6F6F"/>
<path d="M729 354L250 354" stroke="#6F6F6F"/>
<path d="M729 464L228 464" stroke="#6F6F6F"/>
<path d="M729 577L-6.19888e-06 577" stroke="#6F6F6F"/>
<path d="M729 690L-6.19888e-06 690" stroke="#6F6F6F"/>
<circle cx="380" cy="577" r="4.5" stroke="#B7AFAF"/>
<circle cx="597" cy="464" r="4.5" stroke="#B7AFAF"/>
</g>
</svg>
