<svg width="120" height="71" viewBox="0 0 120 71" fill="none" xmlns="http://www.w3.org/2000/svg">
<path fill-rule="evenodd" clip-rule="evenodd" d="M10.7816 42.4753C11.5129 42.5972 12.2169 42.8992 13.2779 43.3543C13.8638 43.6057 14.5587 43.9038 15.4271 44.244C17.7883 45.1731 18.1882 45.532 17.8463 46.4489C17.569 47.2166 15.9413 46.9314 12.734 45.5484C9.59552 44.1768 8.2466 42.0669 10.7816 42.4753ZM62.2139 40.8036C61.8626 40.1399 56.1875 43.2568 55.8636 44.288C55.527 45.3449 56.7715 45.1627 59.2719 43.7777C61.7253 42.4126 62.5968 41.5352 62.2139 40.8036ZM70.8406 35.5006C71.3398 35.9595 71.0922 36.8364 70.2917 37.4195C66.1444 40.4779 65.1059 40.9588 64.9835 39.8323C64.87 38.763 70.1415 34.8624 70.8406 35.5006ZM79.8087 30.3598C80.4001 30.3123 80.4906 30.3552 80.6792 30.7831C80.9499 31.4404 80.4892 31.9201 78.9225 32.5843C77.7523 33.0949 76.7208 33.7307 75.8731 34.2532C74.3473 35.1936 73.4169 35.7671 73.3441 34.5834C73.2815 33.4112 77.616 30.558 79.8087 30.3598ZM90.4606 28.364C90.7143 27.6063 89.8026 27.3221 88.1704 27.6484C84.7889 28.3301 81.5108 30.8169 83.3837 31.3028C83.8517 31.4295 90.3396 28.7403 90.4606 28.364ZM103.902 29.8189C103.246 29.786 102.628 29.7556 102.045 29.7269L102.045 29.7269C94.6778 29.3644 93.0587 29.2847 93.178 28.0668C93.2597 27.2805 94.8755 27.0626 99.0244 27.2948L100.35 27.3628L99.2787 26.7807C93.6967 23.7428 92.0753 22.2972 93.3144 21.4672C93.7005 21.2038 93.7181 21.214 95.5705 22.2925L95.6775 22.3548C99.065 24.3522 102.627 26.0726 106.881 27.8041C109.117 28.7052 110.492 30.743 108.539 30.2298C108.014 30.0867 102.629 32.4102 100.739 33.5977C98.682 34.8758 97.4922 35.38 97.1702 35.0899C96.2369 34.2665 97.6273 33.4132 103.902 29.8189ZM29.743 48.0683C29.2655 47.6409 22.8174 46.1283 21.8429 46.2164C19.703 46.4125 21.2162 47.6592 21.3955 47.8069L21.3955 47.8069C21.4057 47.8154 21.4116 47.8202 21.4122 47.8211C22.5953 48.7416 28.3152 49.7503 29.5167 49.241C29.9996 49.0363 30.1319 48.4114 29.743 48.0683ZM35.2908 48.3172C36.4312 48.1385 40.2569 48.3657 41.5237 48.4585L41.5229 48.9871C41.521 50.3084 36.8233 50.7152 34.0185 49.6288C32.9859 49.2132 33.6279 48.5549 35.2908 48.3172ZM48.6537 46.1487C47.3953 46.481 46.0705 46.8309 44.7649 47.2672C43.251 47.7871 42.989 47.9591 43.0598 48.437C43.3464 50.022 52.4661 47.6391 52.5419 45.9614C52.5874 45.2107 52.3385 45.0928 51.284 45.4179C50.4655 45.6702 49.5775 45.9048 48.6537 46.1487Z" fill="#2C2C2C"/>
</svg>
