<svg width="64" height="65" viewBox="0 0 64 65" fill="none" xmlns="http://www.w3.org/2000/svg">
<g clip-path="url(#clip0_3_855)">
<mask id="mask0_3_855" style="mask-type:luminance" maskUnits="userSpaceOnUse" x="0" y="0" width="64" height="65">
<path d="M0 0.638184H64V64.6382H0V0.638184Z" fill="white"/>
</mask>
<g mask="url(#mask0_3_855)">
<path fill-rule="evenodd" clip-rule="evenodd" d="M64 32.6382C64 50.3102 49.672 64.6382 32 64.6382C14.328 64.6382 0 50.3102 0 32.6382C0 14.9662 14.328 0.638184 32 0.638184C49.672 0.638184 64 14.9662 64 32.6382ZM33.1467 24.2622C30.0347 25.5555 23.8133 28.2355 14.4853 32.2995C12.9707 32.9022 12.176 33.4915 12.104 34.0675C11.9813 35.0435 13.2027 35.4275 14.8613 35.9475C15.088 36.0195 15.3227 36.0915 15.5627 36.1715C17.1973 36.7022 19.3947 37.3235 20.536 37.3475C21.5733 37.3689 22.7307 36.9422 24.008 36.0675C32.7227 30.1822 37.2213 27.2089 37.504 27.1448C37.704 27.0995 37.9813 27.0408 38.168 27.2089C38.3547 27.3742 38.336 27.6889 38.3173 27.7742C38.1947 28.2889 33.4107 32.7395 30.9307 35.0435C30.1573 35.7609 29.6107 36.2702 29.4987 36.3875C29.248 36.6462 28.992 36.8942 28.7467 37.1315C27.2267 38.5929 26.0907 39.6915 28.8107 41.4835C30.1173 42.3449 31.1627 43.0569 32.2053 43.7662C33.344 44.5422 34.48 45.3155 35.952 46.2808C36.3253 46.5262 36.6827 46.7795 37.032 47.0275C38.3573 47.9742 39.5493 48.8222 41.0213 48.6889C41.8747 48.6088 42.76 47.8062 43.208 45.4089C44.2667 39.7395 46.352 27.4622 46.8347 22.4009C46.864 21.9806 46.8461 21.5584 46.7813 21.1422C46.7425 20.806 46.5788 20.4967 46.3227 20.2755C45.9413 19.9635 45.3493 19.8969 45.0827 19.9022C43.88 19.9235 42.0347 20.5662 33.1467 24.2622Z" fill="#81C0DA"/>
</g>
</g>
<defs>
<clipPath id="clip0_3_855">
<rect width="64" height="64" fill="white" transform="translate(0 0.638184)"/>
</clipPath>
</defs>
</svg>
