<svg width="64" height="65" viewBox="0 0 64 65" fill="none" xmlns="http://www.w3.org/2000/svg">
<g clip-path="url(#clip0_3_862)">
<path d="M32 0.638184C49.6736 0.638184 64 14.9646 64 32.6382C64 50.3117 49.6736 64.6381 32 64.6381C26.3449 64.6473 20.7893 63.1507 15.904 60.3021L0.012845 64.6381L4.33924 48.7406C1.48834 43.8538 -0.0094028 38.2958 4.44168e-05 32.6382C4.44168e-05 14.9646 14.3264 0.638184 32 0.638184ZM21.0944 17.5982L20.4544 17.6238C20.0401 17.649 19.6352 17.7579 19.264 17.9438C18.9169 18.1403 18.6 18.3861 18.3232 18.6734C17.9392 19.035 17.7216 19.3486 17.488 19.6526C16.3044 21.1915 15.6671 23.0808 15.6768 25.0222C15.6832 26.5902 16.0928 28.1166 16.7328 29.5438C18.0416 32.4302 20.1952 35.4862 23.0368 38.3182C23.7216 38.9998 24.3936 39.6846 25.1168 40.3214C28.6477 43.43 32.8552 45.6719 37.4048 46.8686L39.2224 47.147C39.8144 47.179 40.4064 47.1342 41.0016 47.1054C41.9336 47.0572 42.8436 46.8049 43.6672 46.3662C44.0863 46.1503 44.4952 45.9154 44.8928 45.6622C44.8928 45.6622 45.0304 45.5726 45.2928 45.3742C45.7248 45.0542 45.9904 44.827 46.3488 44.4526C46.6144 44.1774 46.8448 43.8542 47.0208 43.4862C47.2704 42.9646 47.52 41.9694 47.6224 41.1406C47.6992 40.507 47.6768 40.1614 47.6672 39.947C47.6544 39.6046 47.3696 39.2494 47.0592 39.099L45.1968 38.2638C45.1968 38.2638 42.4128 37.051 40.7104 36.2766C40.5323 36.1988 40.3414 36.1543 40.1472 36.1454C39.9283 36.1229 39.7071 36.1475 39.4984 36.2176C39.2898 36.2877 39.0986 36.4016 38.9376 36.5518C38.9216 36.5454 38.7072 36.7278 36.3936 39.531C36.2608 39.7094 36.0779 39.8442 35.8682 39.9183C35.6585 39.9924 35.4314 40.0024 35.216 39.947C35.0076 39.8911 34.8033 39.8205 34.6048 39.7358C34.208 39.5694 34.0704 39.5054 33.7984 39.3902C31.9618 38.5887 30.2614 37.5058 28.7584 36.1806C28.3552 35.8286 27.9808 35.4446 27.5968 35.0734C26.3379 33.8677 25.2407 32.5038 24.3328 31.0158L24.144 30.7118C24.0084 30.5075 23.8988 30.2871 23.8176 30.0558C23.696 29.5854 24.0128 29.2078 24.0128 29.2078C24.0128 29.2078 24.7904 28.3566 25.152 27.8958C25.504 27.4478 25.8016 27.0126 25.9936 26.7022C26.3712 26.0942 26.4896 25.4702 26.2912 24.987C25.3952 22.7982 24.4672 20.619 23.5136 18.4558C23.3248 18.027 22.7648 17.7198 22.256 17.659C22.0832 17.6398 21.9104 17.6206 21.7376 17.6078C21.3079 17.5864 20.8773 17.5907 20.448 17.6206L21.0944 17.5982Z" fill="#81C0DA"/>
</g>
<defs>
<clipPath id="clip0_3_862">
<rect width="64" height="64" fill="white" transform="translate(0 0.638184)"/>
</clipPath>
</defs>
</svg>
